<mxfile host="Electron" modified="2023-10-23T10:13:31.316Z" agent="Mozilla/5.0 (Windows NT 10.0; Win64; x64) AppleWebKit/537.36 (KHTML, like Gecko) draw.io/22.0.0 Chrome/114.0.5735.289 Electron/25.8.3 Safari/537.36" etag="sVmN8TNzUcG-ZXXXlzxu" version="22.0.0" type="device">
  <diagram name="Page-1" id="vNfcaWdeR-74uJ0gN8q7">
    <mxGraphModel dx="792" dy="1187" grid="1" gridSize="10" guides="1" tooltips="1" connect="1" arrows="1" fold="1" page="1" pageScale="1" pageWidth="827" pageHeight="1169" math="0" shadow="0">
      <root>
        <mxCell id="0" />
        <mxCell id="1" parent="0" />
        <mxCell id="NrACzrblmRAF2PJDY66M-3" value="Inner:&#xa;KStream-KStream&#xa;KTable-KTable&#xa;KStream-KTable&#xa;KStream-GlobalKTable" style="shape=image;verticalLabelPosition=bottom;labelBackgroundColor=default;verticalAlign=top;aspect=fixed;imageAspect=0;image=data:image/png,iVBORw0KGgoAAAANSUhEUgAAAL0AAACLCAYAAAA09JiAAAAAAXNSR0IArs4c6QAAAARnQU1BAACxjwv8YQUAAAAJcEhZcwAADsMAAA7DAcdvqGQAAE2MSURBVHhe7d13sC1F1TbwLeESBBVzQoxgzjm8YhbMWcusYKrSKjBbhtfSUv+wzBEzigoYMOcsZjGDmHNARUVF0sVvft3nObvPsOO9J+zzfj51+85MT/fqtVavXr26Z2afc/2nw2BBEdZyPNe5zrXiXDr77LNXXG/dunX5HMaJ19KZBmWUT1s77LBDSX24H7o77rhjOeIH3DvrrLMGu+22W7mehr5cLbSRdkbxMQm1Wl8n2lg6/f8A82lsDaBzYyz91GJcPsiLUbX0IEaTJD+GCKPpDdtjVKmXVMvU87QXKNsaomto+Zo1TcIsZfqo5Ue1c05aLs9Z7v8GNtTTa5qhBjHMpD4YTQyWJ00ZdOS7v/POOy/nhU7qnXnmmYPTTz99cMYZZ5RyyU+KKlJPilfX3k477VTqSe1gcHT/rLPwVgdK+Duzk2+HJTracJwHaPShzfA6L73Ua2XtH1v6fbg/iqfNhA03eoYIUeYopaYTWkNnsKeddlo5ymeI1fA6I1sySEamzN/+9rfBX/7yl8HJJ588+Pvf/17Sz372s8Ff//rXwZ///OfBSSedVO4pi4YQZPfddy/HXXbZZXDuc597cIELXGBw8YtffHCZy1ymJOd77bVXKRODDn8ZRFu2bCm8wr///e/BP/7xj1KnL18f7qMVuZOC1HecRito67fn0KcxqmzbJsw72BYJGx7TMw7odyC2khi21OYpyzAoXyLEmZ0H/9Of/jQ44YQTBt/61rfKkVEbEOc73/kGe+yxRznnsS90oQsNdt1112UDdy5fOwaOwZiZAQwIg+T3v//94I9//GPh4fznP//gYhe72GCfffYZXP/61y/n2mHs5FIXb+jiV94sxqKsOq28+ApaXeU4DdFZkHP5Qcokr70HbZv/NfrtQDqTItuOkFpDp+Szz5ZXwxAGLzHEn//854Mf/ehH5fjPf/5z2dAYOE/NqBm8xLgZ5XnPe95lg+fJnce7MnohUIyfwaN7yimnlFlDkicpJ/Hk+OfJzQRXucpVBpe4xCUKH+HVeQb5NCgPVQ90MDT6YB7jQwei576ul++jt3SevCB12vqbEQsR00eJrTJj8BkUDMb5v/71r2LoQhJe/aST/jT4wx9+36U/FKPcc889i9Fd+cpXHlzhClcYXOQiF1muy0BiJGhrK3lpN4haHDMAlDFglHctZNLub37zm8HXv/71EiLJP895zlMMnuc3CPDgXIg0K8JP4aLhpeULyDYLyB95+7JG11IGW5B2VtbRT0unmxAbavSUzaCi7H6HyOflurNSjof95S9/Ofj+978/OO6444p3582vdKUrlfDi2te+dgk1QqftZLR4Wck5z9621Z4Hymm35Q0/W7eeVe65dk8iC4PH35e//OXBpz71qcFPfvKTEvvjS7rc5S5XwiqzizpVvromSXvdv45uuSzo86V8jBTIPwkpF37HGb0EeGnvpz706/WRNhYdcxv9LIKlDANzTMq9HNPhQgPHxMKSznRMZ/z4xz8eHHXUUYMvfvGLpe7NbnazwR3ucIfBJS95yWJE6gplhCPa0rlJrtVJgvAzDQy51Fiqhx5eRxlP+HU89dRTywzw7W9/u6wvTjzxxHLv4IMPHuy///4l9ie3uN/aAC3hkvZ23nlLkQf56AlNeWlHfrx8ykQ2vIG85NOnNkbJ3dZHW9nQCORD5FYeQlNdvLufMqGb60B+e73eWBOjJygFtMYRBYC8FvKFLcoIDWobyvynePUjjjiiePV99913cM1rXnNw+ctfoQsVzl/ChXhsHpkBidmj+LQdftGVYJoMEJ5bo1cvtIOUaxGehFy//e1vy3rDjtH3vve9wucNb3jDwa1vfesiUwwKDfWqgVrDVOPWVkI0Oi08LbX5u9/9bnlnyK6U0C/JNb267xge0eAoEnpJF7zgBctAvOhFL1ryMxuVQd+1pX18oIFffO7Y5dHi2XSzxGcf4b+FvFn0v1ZYM09PMYSVXPebSV46koE4Z8TqfOMb3xh89atfHfz0pz8t5fbee+8Sp1/xilcs8bFOaGmqy8unc/CYY/hNmzCr0lOnbYtB7rDDSpqS9to81xIPzgDt+hx//PGDH/7wh+XcAvpqV7va4CY3uUkxPDMVvuijpSuRjSEb/HaQrCUkZSNrkrz22v0YfAt05Us5j7fGG54ufelLDy572csu73ZB+ja8pf3Q6LfrKAXKQZu3nlgzo4/wOXdkkFFE8kJPWSHBr3/96xILf+c73ykGb5fldre7XfGMmXbRSWdXr6Ojq5LjNaN0qYX25oH64VNV5FqakQPSXsqDY2Yt5/j6yU9+Ovj85z9XQh/GbMF9jWtco+z48LQxegPDTGHBbLawUHa0k0RXvPeFL3zhYoyM1CxJXzy2o0U9j20wbemSh2T4oyMDEW000c/zCzOHWUMZNBm7WQA9bXE4BoN7kTeDTJ30e/SQMlCOUpevXO7l/nphzcMbR0kdneOYJnNuuteRjPyTn/zk4IMf/GDx6ne9610H//M//1MU3rbZ1t+6lQer15TdKhPaetsK7bVthmbyk8gJGZSMwAymvAGb2YlRubb79JGPfGTw5je/uXjU29/+9oMb3OAGxaBOPfXf3cD/dlkY/+IXvyjhkfrXuc51yuCQzHqtkQXamIaU6dczCPUF3vSH9cjXvva18ryDwRucFuXODQIDLNu9aKFB7iTrEHnuSXhNmVxL64k1XcgyAkp0JJhOy31KkuKx3vnOIwfve98xxRge9ahHld0YXkY9NHgr55SFns5OHmSg1Xh4+w09wGtUhG6fdu7jgyx4IGfWFu6ljnMDnAzKSAYFA7NuMQAMCDtQYn+GzauK+4VA1jCMLXzE27bQxpln0s/Kh34ZHFIMFPLsw/3w6r5zsuDVPbOOcJNTsnNmFjFIb3rTm5bBhze6z9pKO7vttntH48xCC9K+a3STRw99OdYSa2r0BMu5o2vnUbxr++2HHXZY2enYb7/9Bre97W3LNh+DljJQ0hGQIzoWaTpFubrjsbrKQztAu08fL8pIuec8nbrTTkKyqgsGIe26q8V35V++MOetb31r8ajidHJb5JrpDABhC4/KqEA9Sdv04ryF/Oioj5b/frmhfF3q/m3tjB6/oW9ACoUMUmHWZz7zmbK+8EziFre4RQlBeX98tjrp97s2DShH16vtqKZhzcIb3llijDoRIrxkCrUNeeSRRxbF8ha8O8NXHg1Ip6rrXN2w7FxdUCYDZFbMKXqBNgP18YVXfGSal5cZzkBMR8uX5DEgC1pbsI48ZeJzC9Yf/OAHg6tf/eplW1aoh35CBcAHmaXw5F7u5zzXGTBB8qEtG2MMbUCfjPIjC2f13e9+t4Rev//9HzqeTy5t8PxCMDNUZHVMXX3kPP3mus/bWmPH/+2wdD4z2o4fBUKl4wkqqRPhPWQyfX/sYx8r78fsv/8tOk+xf/Fq7lNC25lBOkEZcF9e6CdvFoTGPGhpq84QpK0GaJeBl9ANT+EZnEu2YXl1O1QGPsO41a1uNbjNbW5Tnj8IZxiTwWBwuG9d4ziKXtpsj20C/ECuAX8rZRoOYlAnfdHmq8NYOSrJFqdFsLjfTCUUEupZRGcLGtAJH2hFP8lbL2yTpw8wneu+8oDRyyeUPIqwY6DTP/e5zxWDf8xjHlM8mR0CnQqttwEKck9eaLf32ryWD8g9GMXjNPTr5JoRZBAD/sgrDxiF5Fp+9tLJ/5a3vKV4coP8Xve61+B617temSVSXkzs+rWvfe3g05/+dAn3DjrooDIY6LKVPXUgvDm2fAfhNcdR5SbpRXv6Jsm7TI7aR8f5a17zmhL2CMfucY97DK51rWst920GkTbi6eWRoQ9lwlvL72pgbqMHDFO8RFCLoS1bVsZlylCSRLAY7Xve857Be9/73rIIe/KTn1y26ChC3dTvn0M6eqOgY/GfDmK85MqClWG7h1/GLUQxxbtm8Pbn3//+95edKU9kb3/7A7ow4NrFIKIjSRsx5tNOO33w5S9/aXDMMceU/fmXv/zly+sddKMTfRA95Tw6BTRzPgnKZQDNAvyii1918aPfrVHM4p///OfL/ec///klbCUT3pWzZeqePHQgfMZunEe3EKe4vZg7vEmnYAizmLJHLo/Cw7iOJ2A8oOn68MMPL8rwVPUBD3hAMYq6jTn00I7j0nqDLDrRkWwMgrySzpKcyzeLKQfyeWoe22xmZ+YDH/hA0Qe5LVLNbuJ4ZTOgYjwQ3dJfPOob3/jGMkjy/g5EL+pJ6ikLrc5m058ytf+mpRg83vVv9IRf4Y4HWmYmOProo8sO3aUudamy68MJGJSgTksHyC0vxwwCKQNke7DNMX0/hfkwav+cAjBqj/mjH/1oeRPRYlXsKhZ0X3m7Gy0tqd/ORqLyWFN4SafHUHVa7Uj8Vo8rbn/Xu95VBoRp3iLvxje+cfHWBrt66oNzQNO5dQ96Bg8jEi7Y4eI86I3DMIh4TAMnfDmG10Be7k9CiqT8uAQxQpDXtoevPMwyk4v3PXD0Goaye+99qVLOeQa3c3K3vLuW36a2nW3F3Eafhh0JrXMLQ0vMOq/lqrHoKDsUYvhrdB7+3ve+d3kCCe6nTv+YtJFI++kMHeQ8nZHz8Mz4XHvKaaEuHrelx9DvfOc7l3337K0bJPSnrqQepE2e0cBg4Op4KY0RmTk8NZXvFWp0Whq8ZUII9+TN6x3xMCkBuuijTe44AfmO2seH5wq2NA1iIZqtTm+pGsjRBRuK7tRLG/KTF/q5tz3YpvAmgmGKF3Meg4iidahtSXEdgzdFP+UpT1l+4KSMKZE3i6ARqD3fSEQOMkKMJ8bqPjiX5Ovcb37zmyWcEdff8573LA+WsphTho5ARyf2luceaIfBOMrTjgHAawprzCCelnpvR4gUeo5CKu2A/lF/xx3NBCVrKqL7aYm8LZLfnuMbDxfqButVuwEvtPGA60Mf+lB5As3wyagMnh27iuV1CXUNYPynvdDfXsxl9BGCYgETruXrQPkMhCA6STjz7ne/u1y/6EUvWjbyoMbzK5UpLQrCi8ELZAyPMXIdEx04t1D3oMlC90lPelLZs+bR3Cd7dJXBjkbqu06KntBkzOpIe+55nm5AbCkh48c//vHyVFR9PLmvrvIduY5G9cC+upK/FsC3BNGL5BwftjH1szCNodMHG7E+cbzsZX1jcMEiQ9HlmcNXOdCRB6G9GpjL6NNwVt5GJ6WmU5zHc4k9X/WqV5Vp+T73uU+JYwnufryXOosOskTW8GshRla6SJ7OtcVob138ft/73rcYvjLRkcHjGj3yy4vB00s62rX80E8bnAoDEuYwBvv83s0R5uSdfDSrt68fyqcttFYLLX9JaSdHDo6d8O6gvH43g/noRzlx/q9//asijwiAnC0d/EPbxmpgm2L6HCXMEAaDEuF+9atflZ0aQlu83ehGN+o6q+5D6xDlI4TjoiKdC60BMbh4at7KdqQBbsF21atetWxJ+krKXrzdKmXtZjgaPOpFfim6k0c3DNd58lzXBSuHMlh+6OO+L7QsaoVPnAp+6Tn8QtpaLfTp5joDob3PyOmIDHgiPz7xa91ixjJwyUAm9+lYefpCq9/O9mJuo4+BY8w5BTsPY57I6QgPKLxHw+iNZNualBLhQ8NxkYFfcpFVSieQm5HbkxajeiXaG6E3v/nNy0JdGe+p+HSQh9ehFnXxZuBIfke6gBx1uHMJDxIvn/t2R8T4FocMx/UlLnHJjn5dDxiYyq62wQToBqHdb885nel3cpJdHlkYvbCPDs2O1j/koafYlCOEprzVkGObYvow3ho9ZkznplwPYUxhdixMve4pr64OyQiW0FpU4C+DkxGRIR3hnnf+3/e+95XjM57xjDKj5WEbuQx207t3VOy6+LTR1iN0JP1fzumFLiHGEZ1pWx69hZ8MQEYjTvYZJf7MJjymewnB2v5ZbYRntMNb2nGPXMIcnj38y885XViIK2N9YrNDmGMA4zm2oazr1ZJj7pg+DBAw3oiCKdcuDSOAZz7zmcUAIMpRB1oBFtHoqz0OF2imZ/IJKxiibVi824MXylmweuAG0ZFfO1Oe4QtNhDoW9nZydK5FJtm1ke3JGDvQWfQTmkF7zWMyGs7GLOvdHQ8G6/qpvnWadloaq4HwNgrJZxvRI5lyHvuxg2O95x59MnpPb8kUfUjq0X2u+5hHvrk9vYYJi0kjGTBnP9oDKK+dPvjBDx5c/vKXL/kQRluG+9cLhdovBWSVyOIIzj1atx/v6ap3Z3hdHUkn1i0euInBdaxFpjrCEFuaBgKj5J0ZRc5DG2Ic0/SkHzzpNBCFWAYa3eMj9dBuvfB6IG05ZsMjedEp4N+5WRCfX/nKV8pzCM825HM4KSPFuFtZWl3Ngrk9PcTYMWEQgH1pXs8DGJ/36ciWuZxL6rXXiwq69CAlyiarEE4ML6SxaPUeeRZlbdjmPOsYuhCr6rz8moNr0zgjZxSBe+nEFpP0lAWgBz/HHnts0T8aDC3GRoaOSpcq7baNteyD8FDbr4iOgE5AqGMGNHDZEV1bGylHRymP7z6/88qyTbFF27DRma9qxK+MQGf2DXtUqp2wyKixfGBhKkQxwH02Z+Fqas6gkHQwA4zH1nnyhXrKi8F5Mw+YLN6U1fF1kHTrh65OaLWp/OLACKgreffe+zx2QvRFf1u16nuJ1lIdKfTXAtrEQ217pbEHrjPwGbkBK873vMM6CI/KtHyOOm/TNMxl9AjyXBjEiHPxKkOgZNt0GFcuAk5OS4QXGsO9b/vKvLxO0jnieLogL09FJp0E8pwz5syGwhCvCMsTg3tye0oXf4tflWegO3e00XcdGsU4paW8wLlBqR+sCRi9b2zf/va3F0eUMi1Po9K2YFI9eghGlWttwKCQwALXZoDQxrrEg01hM93TYXEKDd+h3c9L/jjMZfSYzMpbR2FEev3rX188jdDGIGinMmiFlDYL8Lr77ruVbTVbg7yzh25Pe9rTiodncBQcoxb60Av5GaKQp6NS4n16A4b/nOc8p5ShtxOOP77cC53+oOmndKqERt7ApHeziB0z3ytIZiY82jJVvo9RefNgUv30c3itv8dZy/dtwDXZDHYxvId7hx56aHnWwzlYBwVtm6E9L+bepwedQ+GUiakPf/jD5WMIX8nzONA3/M0KHcLbvOMd7ygL0Uc+8pFlNvNDRzt1niehA29EdgZcZa8zhAWt6+SdfvppJcYX7tCf3a7oLWuCDJwgRpIjpLN5vwyIhEhmJDzbvjQQ5LV1wbU2HJPmgfan1Vt5v/KbNgGNDGQ8ZpfMQN6yhXMdlOc9dnREEfUB3XBHZ0i7os3v32sxl2Vi0LTjqEMpl8HbwaDcPHVtOywgWDpqswC/wjbxJW9z3etet+yFM9BdO+NmnLx5OpLs9GIAeN9F6ONejFI/8LzyDBzrH8fnPve55alu1g/ut2lcR+IvA0Rb4PigBz2ovJDmoY/7DCpoaY2iuVYY1V5sInZRdVRDHnG9l/XoWhjoWUcrR9Cn256Pw1xGD2HQdh2lUu6BBx5YPJeOdn9ao5sFjNcujZ+8EJb4jtVinUeNgTNU8rpuOxDkx2hzL+V0prckhSN0abtXx/JmOl89ndwafmi2KXSVlcwiYmKv89oFsRjsYxTNbYW2J6Hyt3QxBpEjMx35vTtk69ULdfTzhS98oXMw9W1XZUbxPKscU8MbzISYo+kbUzpIaINRoY1tM8hoHcfArIytByJb7ZihnAYvOcTE3gYUk3ufxsLVOYijgfytR3fMbBcvK6GvDqOMjhg+j6ZzLdqsCezhy9dO2thhB+FJOS10QX1J+xl4+MjaQTmzhxfh/DRHV6NLQ+tr6eAtcD0LUid8jMO0cvKUoZPMVs4l8lsnksMH9LaGRRTq4L+lh0bbRnuvj4mePo1LrWKc23bDjDco7VxgUL4OrtP7sDy0DK0l+u2OQsrw1Ek8bPLJImzxhFP45iknryyfLsSeyjJgD4PANflCDxh/9Mcw0XSuw9xTXkfzzA95yENKuPjKV76y/LwGeo7q5CcL0QiPEMPNIHMPfXzaBdEXPL2tUWsL9/SNwais85TPwJkV2usb3ihMKicv9/IQKnrBYxzKLW95y/Lklm7cI5cjVdA13h0jv+tJWOHphwploENDzTesURRjtzuAkbvc5S4lj3eKR8MsYTYKeJ0GZSgonYL3M86o8bZzi1YfccMd73jH8ssF6vD+BoLOiMEw/qqn2olAD+jk3D1eWOdk8Mh3jVZerfWAySyqo91XR90YBd3St46NZ1QOwkPk8pTW7IGGtYh28ZR6rrUpT/nwud7QJrkMcDw4xxM5HOVZUwnXLP49vTUTGhicFf2nHGTgjMMKyxwWHHoTebIRxAR4c5DCfBDA8KM4UC4dv6jAI4WRjZ7CszcU5VO+hzzieYPaLkirULL7RQf31aMXC94YW6VbDSi6cK4z1ZdSjt4YtLWC74eFIq5f+tKXlo5WBm2Dg/Giqw5aIB8t+dpX3pFhm52EBOJhPCvrvqQ8PqDN2wikfTyHp8jj6GEnWYSXNhUYfwYInaQP0Ii+J+EcJVTs/i/nUYJjmHCfJ8IcRuRliod0wKJjOAVWbyuRiTz24u3Lm72ENsI3MpGdVxGD28Wyb2+Rm3BBinFFX1B1Wg00Bpv72kxde//CEs7ks5/9bHEuPL9yGTAGgLLokME5+pJzyH07QzYYhDieNciX+vKG3/C53sC29hlw9IGneq8u+umcUzDTijKEnmCg0P9ZS+XJEL2Pw8hhQXaNqSw5z7URZnFk4eo34zWY6VKDlK3soqM1EnKRI8ryS72+3PfagIWlziCXOozPa9OeyHrq6WcJxeLy3WeIaAH6BoF8yXnadK4sJ2GqdkTDQs2vRXiJzQco3qUxhet4/JkFXKcd9UI/Xi6Oh5c3SylLnsjXDhbneIHUX290bBRe8CdFR5GD7kUUBrGZkLMhDxgcxREs1Wvrj8OylBnt4CjJQwRDGnYunmfwYtB2OtJhMXjlFxn4MzvpbDKRQZ5ri0cfhjCuu9/97kUuAz0GCt6avNKVrly203j+Zz/72SOfGtIHA2WczukretYm2inrHH3lrB+e/vSnF554fJ2snHsGIeBP2+HJPSnn6QdG78GOX2YQ35M3Rg7KpZ83EuSgZ/pybpDTCT25xt8ee+w5eNjDHlZe07abQ69koQflyZL+nISykKV3hRGnKAkcKTDXFhFHHXVUacSj4nwgoq6fAMloi/I3CuF3EpSJITvHNyV79M3weVrTKdkYq3spJ8/rCbYb1feswkteDFIe/bR6c552wHmu8cAYQTmJEdpx8TAMbd4eD+VJcHdfp7p2nr4Lbfw5b68ZkjWIh2FCqAzyWr/2V/I2EuFJigz4i87tYvH4fl5FeMnQ2WD6JrO160kobmKUrBpqDcKI0jkWbxTn4UegXFeolC3nmwDk0dHpeAoTL1qvkM9njgySTMowxHhsiWItsLxCkPddfETDSFNPB8SY4k3pR9uuAS1PstFzTxn3hDx2XA444IASz/oaTRJaKoPn2jfVQ7uGtJs2rUd8lOG1BMkAqPWqMeFPgtBYb2iXzugCL/i2QwVkoXd56S8zLDmEoerRp3KtLJOwbKExVgy0SgXXGjGFe8H/Yhe7eIkXMdIqEFJnkYFXiiJz+BUX8taU5tfX6g8pVT2QU4qM0Y8OMEB8F+tVDItf78tbCCuvs0DZ1JEPrp3jwazh6L6EJ0bvvhlVJxtgZlmDMq+CMIyUb0G2tGUwmYGEcxZ/WdDWMrXf+324UcBH0iiQWTID0gd5fLSU3a0MmmlyjDT6VgEaoSChjYWbadXvlFBiOtD9MNrWXXTwEuTDO8XxpEIInpUCPQqP/PRDdrK1nkcS4/tkkHF5T8QPXJk1lFNXWfXQiM60Kc99SDuO2gbX2mT4fgOT00E7s0nrtdWTnKe9wELcQGYgHumnfB5YSdDWWU+QISEJHsiPZ3AujHGkD/oWQlrw06f1V3QKrTzjsEMUAFE6YogDb4Ip3kUDRpmOCAM61lEZdTHgfKMwS9vko0iy4Z9C6YGXFrbx3mRJZ5A3+oB0gjoxFPcPOeSQssC3l+wXIdyrfwRuuMhE6/SuTfcS0oBzbVrMcTDuawddZTyQeclLXlIWtd7pt+7wNiK6jF9K56vrXFtJdpuEN7wjudJuBvBG9lmAp1F8kIce6AOU8xGPa2sVXp/+yJIwaRKWPT2Fp3M0ojJk75SXMLVqzI4ARarD+MNskvqLjigS79YqHkZlIUpm98k3C5RDw+z38Ic/vIQ6b3jDG4qT+Ne/6g88SaG3W9dZOikdzGANQLoX1uhM9+KEAK92dR7xiEeUvXuP5D017vOIb/QCdNA0aKwHhDd40X/K4iNGIn/RgUfykceWOXlEII5kJQvjn4RlKSlAJck5hTtqxDmFiVW9ACSel5863aEg9TcDGAtDoiSy2RGwtXfhC9dfAybbrCCzOgyIYd7ylrcq79O8+tWvLl+VmSWViVE5MnKdp/3woU3JdWag3Ge4jr6MktQ/6qijy9YdWbSvjXg6baQvwpfwyK4Qz+5+PHzKpvwiA490xLt789VujpBPeEo/7vcdQR/LRt8XONcU45VOnoxC/WCRLTn3KYtCuyGz3JC8rnY5X1S0xoVfoQKjF/f6S+RRXl8n46BcBgqD22+/fQd3u/vdS56/GOhtVAZOR3Em4ChPwkeu0y5a0TOe4IIXvFDZerzmNa81OPHEH5bvdeO9QXkzRehJ6uo3betHvCiXtlJuswDPZOLtrcHoOK8lkIneJmHZ6FslOTf9Ic7Q//GPavB5IBVoOGGOBOp0/xYalcdqTAY1Ty+88aSVRwX3lJkV5EcLhDn77bvv4IlPfGIJQfyQkYd6HijRo7IGhMSj89rywxMk/EAziYPxfpCtzJvd7Kblm1hfFhmwFs7Kq4euNhIeMQJyeaiovezgyE+fS5sB6Tv8XuQiFy2Rh103g5ls0dMkLBs9qEBJrfJ1BoIUaGSBMi3USx3M9O8vIqI8oYf1CsMT3rSz2DSPEZCZwhlc6vC2pt/HP/7xZSZ58YtfXLZ7GSRdxpD9zVcLUgNCvg6L/eFDGfmhK49+ban6Qkqo84pXvKI8ueWElMc7z+dcvRh/3hQlr351T5n0+WYBnuG8560/lajv9GOrp0lYNvq+oWbk81o6FFFvAupYyk2HxEO1StssRo9Pr9/ykrxnnrCSi/yzGoJyjNWR4qMTeV7K86amWVKMb0uTPoUY4lB79MrSaRyNZt0HnZh78tDPgNQffljLxoIdHX/mhkzK6Tft+6U18mjTNh9Y+OER5pV1IxHnQh9JHIYFrcW9XS95sd1xWDZ6QlOmo0oSBcpj8Ah6upcyEOI6oFXaZlAg2RiQF5f+8peTy5NVhkJpuT9NeS3ILIVu/vwQml5n8PakhaSf5+DxtZNdGovLtJsB49oxniudLc+5curzdD5A0fliW+GOMsMBMuwLGxDqJRQKlN8swHd0BQa+HUWbLGbUWWRZYfR9ZBph8LwSpUEUFo8jpbMzUBYZ+A+/3s0+5ZS/lwdA7aCPB5wFyjFENNWvdKozQIeXF4b4HUseyZ+a94ApelJP2VZvrtEalcBReeXQ9WamAWZha+Gsz1JGYijuCwXcS1tpZzMAn/gFOpfIZKeM8/IcQt40eYrkCqWDc0xF1wxep3ry2N6P0p3r3Bj9tEY3CnhPwieZ2ng+hkCOTP9tncD9XIeW8jHeeGTXGTziaV/3ez+f0X/iE58onaRNC8zoUl3lW/27Jx8t+dYFZpFAO15V8FaoRbnf00FbfngS6qhD5mzvhXbkXlS09oTX6AHIxKH4OcCTTvpTyZuGHVSWKCeI0hOnUpSONp1SoPtRqHNJ4+6rs4gIzxQmgbBNGIBnhseYKJVRSM4zADKg0bGwj/zuoWeajW5cG0gS2skXHh588MFll8iDK6/7gjIxarruihaoA8nPYAo/cOqp9Yst4PGe+tSnlvjeoLKHTz7tg/aVtWjWX2iQEU1Ie4uI8Bh5XOOXTizqhYgeBMqLPsZhxRBvFQBRgobsMiSm36yosg07mJfX+eJihld3cv5cthltA55wwg+XDUbdKDvGF+Wi4Tz6oiNlpaKvrqx7kjzvhNtu5PFf8IIXLMff7qHVcbdioMnPgAx97aNXfx25LnSVM6Mcdthh3aD6TtkqJQvvrywajmiD882E9AEngPdcg1dHOAbrlWkoWiT7JAXY/jrjjNNLbBrFbzZQkJRfHGPkjJ5Rebonz/muu+5SvLy4+O1vP6IYDY+tLmUzUNuaysfQ3KO/dETyJeeGWe7Ls9vgr7RYPPuUz++y21Hp1y91u+skxqpM226ODF+yoL3xjW8y2H//m5cpn+GL4dUzEzuSJ3BdUneOzqIDj+GZHiTndt8YvbBumhxLFlyJQCrk2pHRU5SF7GZQzDjgXYrR5Emm0IRBV6PftaxdGDajsTDMm4nxvLyxes6loNVhm6DVpzzvuFt8erji1xW8G87wY5DpzLThHI9S7qPD0MODPGmvvc5XPnU07QtlvGSmXjw94wDnSd1/JW/REX32jxwJ3dFh8sZh2W33C7adWcObM5c94iJjuRPHIHIqw6MzBPF8jF6+h0rekbfN6G1JH84IEZRhZKBsa4Totn/uv4W86C0DRx7v5AMUPHi4ZA8/78bgQ1kG6hiZWj7B4HWePMksJmQzqMhgcKsnH8JzkHqbAfjM7OY8uhSFMHoOahpKT7Qd5bwSHOZH0VHaImOWziMXecTwznl6hufIOD2y9yvMdlv8MoE/lckoeXi6iDHShxkBreplhwNKngTRqTKO2nLPDOqFKQ+tfHnlQ/B210Vbie11tFkIDfTTJ5KBGENwBOsvg9cfjvDTGe4F7TlaJS1dLzrIGz1GR2Drkq7odBqW3XaU1geFRKk8fne50BglQx8xSkYPefUgRk15//53/cWzhz70oeWjEg99vLtNF9nnRoN3UQ7Q6Kcg1waK8gxfGMXodZTf3JLnZwRPPPHEYuj40pnqpHMdc14H2vBJLfp4MoMpo642zNDu4VX5ulge6srRX+nejIjuOSoyk30aVoQ3CIRIC51B8Ywk32QuKsiRzhyFKmP1GOThPRkezx0DZhj+EBrP76MSXy3xnBaFthnpQll1isF05YO0H4McxU9mioQujHPfffct3+Uy9MMPP7yEVDrQIFNfub6xg/yUMVjRdO2+e+SMkaMnX39CeAufmwFxzjHT6EH/6DtrmGkY9laH1uhbHVASRVajP+eg2CwYss6wdyzbW4yCcQeUKFEu4yb3ta99nfKLxWL/Y445piw6xcmgnPIrdVeNKQlyf5T+8EDHHrL4FQYhjr12Txl58drJtZ72JIjXd+2+c2XxHYMP5BuojjF6CH+bAXiNrJyv6+ie44K5PH0lNOwQBJPH+1CUhzJtmRbyKXnc/UVA+pdsPLnFKc/I0/KGUgyKLAyHPLZr/bbk3e52t7JQestb3lIM0n20WrmdM77W4KKb5OsobUWvOmrn7tri03s6FtE8vZ/j88qzeupUvmuow4Ad066j+/HqmQFi4O5xWuiQN/U2G6LvnEtk4ZAc6XKabMXoFYpic+08nWQUmT680APuKdM2Tsmnn16n7EVGFIV3CmIUYt7Ik/tkZDSMS9jgnl/XetaznlW+1OGJ/bJZFpqpp3x9rjHUAz2mnORacg7066+agMWn1wnMLH5A1loCPbR5fXwYeGYpAwDfEmOPh3dtQOHfuboGszdK5dl6Tjn3AF1pkYHf2GnrnFzrR7oX3kSmcVgy+kpQaoFwFIY4T6/zlNNQjB+qkQyn3s2Avrx9kJ0xxVv6vUTe+E1velN5aMXwvd1HZotbhq68RRUDBB2hHcYG9IRuP7UQbtk5isd/5zvfWehn8F2gM1pbdM6tSbTvnkGBh8jlKCknGeTK8vSOeNQ2HiW8LTLwGv31Qf7INA1FSjRaQlFaGuE1EPNqLMVRYMrHa7nWqPJL1Rca+I0M5G2vA3IyIgZbDKTLI6Mnqbyxmc+rwt6YdN89umgND814eHToJ3pKB/bbVs478ne9613LXr73dBi+fOV2XKKBPzRahGYQ2trntAzKzGzy20GxGRDZ+n3GLskeBzUJyxqLsqKA/N1S+R5t77bb7mXxpkPd16ikk12rGxpLfCw8GBEZGAREgS3IFJmXjb8r5ztVryN7lcFWpnfkMwtKQDc5h+goqepqtLK056mttYQv1vyCsRhfWIOfOJq0gR7ewl/pw6V+Shsnn1z/bq1wSr3wSy5J+UUHWVqdkhvMhGTgoKfJscLoAcGirEZhpttzn3v34un75SBK3WwwzZOBl4C+HK6FD4yDoeXaOW95pzvdqbzZ6MGVUMcAUIbyeWI6aqddXzG1xt6mtAfqxZj9zpB2eP43v/nNZedITI9vdL0I6BzdtAvy0Egf2a36858rf/H0py2FXlkPKL+Z0OrOLEZ+oWVkHodlo2/RdgwkRvVeQ4khl7wChVGyxpSVN63BRQHe0/nZio28feTtUoOjK1Z2CuIx7bZ43O+PKPjDc4nh0aIX53QSoxyHtO0o0Xfq+jLoMY95TNG/l9M8ve1KLpWtdVI2gyXn6Q+7VcIx/PGG+I9jA+Uy421GiELot91+Hodloye0RIE6SAJKESfJt38Mnt7F2ONZlEvaDMCnxaBjXigLck5mhuCaEZL3rLPqa7k8i3u+O7WV6e/LvuxlLytGGUNzpDt1oSM3F7TPcO1ImJVe97rXlWsvqB177BeLAaOtr7SVGQm/O+1UPxqJDGAXyLk+k8+BuZbQCJ+LDvJJZJBAFEIuRp+8cTiHp28JBRTOO/CI2cGBlIuRwLQGFwkxei95RYYoVIosDCpGwfDtkjBmRiXZ0WH43pH3s3v+IDLjVE49dFp6s0D5GKR6ZhdPh+973/uWzvUnOP0VFH0So01b4D0g5SS85O1DszZjd04exwxSZTcj8M8u8U8+epiE5buETwKEogyEznOeGgrwitnBcU2hkvNW6YsMvEp5dE1hjkHOyRIFRt4YRnYJOADG4zVehi/k8ZuYvlxSR/3ocppu2vsMWXvqG2gxUE9thVQ8unWEh1cM34forZGnT9RBy9YqY/cuDt4zmCLPLPwtCtq+ArybDekqUckkrBgSCiOISI5QlbVX6VDvmFsp554jBYL6Gu4ztYjAY57iVaMZxr8QGcgTw7UQlZ+wgcHHyzomvmekFp35a3gMNDpSPwYZ9M/DC4Pceef6lNi1fkDbu/K+tfVU2G/iM/zTTqtbdlLq54hPPzblJ078XicaeALn6mi35WNRET5bVl2L6emJg54mRzF6HUhBEKIIZMRQHIO3oDKlig3jIeKBgih7M4ARkFV4Yycj8XASOJKHcXj4lndh5JE9nsV9R7s5d7jDHYqR+4En+tIh7R8Cy2CB0HekOzyYSWPgXYmSH+hU3tqWqe9tX/jCFy7/NDg6aGtD/4Sm/vJk10/g+diitjlcxCqb8huFWdpWJrrvv/joYaG+8Ifl3J+EZU8fI2+NFhsack/86xVbMatFg/wwITlP5yi/yMAvg2JYgO89OmPiwSO7MjEgYCTO1UmeY2YBRwbr6HUFv2zGA/sIxR7+lm6AGDCgc7TP8OXRl3M6dI9h4yP6BPdSRl1rLG9mWtz6ussCWuhJBmXwnr4023iAxstzXksUy0JYmcghbQaQEegD7/RHTnKTYZr9LUuZjlRRArs0IUZZPIWOtB+ts1IO1KfAKHHRgXcGxgvy9JTVN4AoTx7P0npnBh7DdO4Yo7SD4OONxz3uccVBWHT6KiqGHhqpz0C1Fx265wjhB1JeHt55fLOvJ7fKCGHsx5uB8ISuWcNWpZjXQy51lMWLdpI2G+gAYvjZNKCX3BuHZaNvleyzt5ynE3g4uxQ61A8W5avz3AflN5MCGQBkIRvP7pyBgaM8CpXci+HKh8jsfnRGX14a86owT++rKH+exz0p9BmfOow0HQiO/QRpy4DUwdYl/qK5h1ienBucMQC0DWjPD4Q1HnAZENp3TNvhabNAP9GDRG8GdkJCOpiGFUaPCGWKXSHKlm8gIGjqtkCzoHUvBgCuKXszAJ+MwCCmOIYfAydvvGrCBHrJ+oXMDI7RgKP7pl1HddFER3zvd26EF96a9Dqz2SXePVO1UEM9ebUPqkGCo7xcB651tK1M/eITR7wxAOXxyMt7d8e3smZrsmgH/ciDz81k9AZ1HAQ9e3uUDPpy5oWsQkmUJUUJUTYPIo488MADi8HbOQjSiHI6bTMoEI86PT9VyDAYEGOQGCNZyEbJrXeJTtCQlIOUj/zKeMZxr3vdq/zkh/je11cGgM7SPgO00NVZ9Js21A2i1wyutJ2BKa8dPBbojALPZmSLPLs9ZgVl0WmBdmhuBpANr+Rw9IcvbD8b1OmDSSi9RWDKSOephHDreZTRSX6yInEiY5DXdoC6obOowCODkOyvU5jdjRg2kJ9H5i0l8rmOlyGrc0ZGXte2Pn1b6zqP+tVFn6dl/PkG1uIyKU8RDQT08AF4SXIfXcckwIO29Yn6BhletY9fD6Xwu/felypGkrppR13Xob0ZQKfRORlt21pv+sGnyDcJy9aJSIu2YggxfqPJTo7OSoiTToEYzSIDrzEAOyA+3PBXqC06GRHjsVj3N7bMaIxDWckgV5ch0YcOyD0zxS67DL++Ci3XOoS39fKYXxf2xiS6GRypA60nHqdPf6xamwxcGXzZ03edQem1ETIJf/yWuzLqQOieffZwUOXeIoNcMXoD10zm5wv9FRnblZFlElZYery1SjohikBIPlCcd7x1mC+H5EeB0J4vMiiNcRjAEiM3e8XADWq/PuabWMZDN/Jj9LmO8p1HZ3TivnuuQT2Gf4973KN0jq1fH5nHSCE02gGQ+gH9lo7tzpVDFw2wFlNeu3hgDOQS6xuQyoc358p1FEuetOiIHUZHdqT8kJX1mIV6XiCchhVGH+GjuKqUoaKLsrt7RpVydgXy+HdYrpxOhXKzMLgW0C5DY+CMhrIYhe1Y+fJck9Vrw/68iwHhWgpChzd3HgOWXPPiaEE6S+f4dQU683dr0ba/rk6ffq6ltIWOc0m+NrQ7NPy6QNUvBq31gkVuZjblwosU2tKiA68B/QknvV6h//J6xSyyrDB6ymqn1iADQKMU5a9rODf984KZ4ik0T8rSeJuCet0NsCZvPaF9MbD4F+88va+h2l854JX9/LWtwKOPPnrwla98peiHwQhbhCTphGyT0V10lYWlgaU9dSVeycchDN8WsF8Z5jzwk0GjjT7QEL9Gj22ZhEfuyceXsMxWqfWEbVP5aCuHT2WlDBL5G4nochKUwS85PCxke55N+EEufdna6STs+L9+ZWhGUBKvppMdLZIsyrwERfFto6NSkOuN+oEhbetoyks4QzahjNcIGKM8MvHMQgQeRXzs2k4LLxM6aDDYeE4JYmi5dg46jmfipdH2Hay4W5428aIOuqmDdqtjZdzXD+hBBoKjd3/cJ4+3P0MTwmPSZkNk53Q99BMy6rM4XzqbNIhXePpZQOGUzNt7LcFnbOIqcW2mzlHAqLQoIEeM1FaedYoQRqghnqdUSvS+vMUng/OOS949cg8NMtNHneXqzlWMki5yHQNj6MqrbyfsPve5T7n2DaytNwhfjmnD7ALO24EQOEcH335m3KzFELwEB2k/KVi0fpkF5Dcz6iszp6fS7UOpVi+jMJfRpyN4F3vBtonEvnYiPHTRyTH6KDOd36ZFUDI+YigM0a6Ud1MMYDsC4ZF8Bre42ODwAYcpNcbeNyJIXfnKaCe6c+0+40RP6OHNTLOIV5IZq05VptVTPR/OGPFmmWlca8OAtVbAt52p7Gi0Aw9yDNq2Fhn6zYNSM6R+YuyZNcmQfp2EuT09UDAl8oI3venNypNGD0DkA4OIcTsmyW/vbRTCF17IQUmMhAGSQ6wojzzKKePnOLzZaLHrlQJPAeu9+gSWMUMMUBtoMK5WVnU4jdAWKlk7+ABcuGhQ2XVxH63wyLjPPnv4a2bRtfzQcxTHe9eHLNYO6isfg08ahZbPRQT+6GzLlp3LziFHK+KQn5Qt2EmYy+gRM81aNOhkXuTAAw8onk+yCNRBdg4w1288jE1jaq2h0/GfBzR49oDIAyRPSxk2MBj3GaZksXvQQQeVL6OOPfbYEg4xRMZWjbL+oKtr0A5jRCcJPWW0KWRK/gMf+MAym3g/xy+o5X2g0JF4cWW1hX+0AB3XjMBMoa7fxbQYFwZk8LVpFDa6X2YBHunguOPqB/Leb6JLunHPt8DuT8JcC1nQQLygRsSmFnUMxdaRP1gmX7lRinZU3/2NBkNhqDEk4YYQg2xCHe/mMCzl8KuM3RBvK3rARNEebJleI28UzhBdGwDaCNCiMx5JWfVM1fIsZrVhcWa2oUu06ROdPA9Agw7BveiUwdtpOuCAA8oC1tQfvvtQR2oxKm+RgDfykPMLX/h8CUm9YSq0oZ9WL8qNw9xGj6ifnYhyGIhH+V/60pfKOYPIi01RYl+RYrL275uuNxgKXqssNRxxbgYT0+fRvVgerzF6cjDOPMyyLZgtyGrkVdHKqgMx7HQGGs7la8NRp5lB1TGoGKl3dOSbgRzp01E76KVTySIJa2yrmvYf/ehHF4NHB7/KKgPn7IthH/XvLRrowMzl2wEOwHayRWz06z456XGSLHO7W4RN6YhqSIPeIuSlKP673/3eMgM6NJ0COS979N39jQajA/xGHh5SKCNcM3vtuOPQg8eAed/b3e52Jbyz3Tj8u051EaWMsgYUedMpkuuqw2EHaS8Dy46L9YNQRwhldyzv+8fg1Qs/eJPwYRD6Awy2VfNwLe0FrjcreHN9YneKnshKHxD9RR+TMLfRU1qIaoQnAVtjGj7uuG8W44+io+Rcq6uzYnAbATzgHU8MkTE54ssAtislZPM0VlnGK8VQwUci3qXhiS3k7Rnbyoxu4sVdq+f7WufqJ6Vt980yEmNltD4FdG4qZ9A6PHyEtnrkMDtlK9XbnGhn3aVceF5kVN0uXTRodc6xeLmMzEI/eopO6UU+madhZqNHPEQdw0iMnufzEMTOw7vf/e5y3/SqY8F16utAHRS41woHo/JWC2gyHPy1SpKPR3+B286UBzz4tJ1IqRkckdkOiVetGecb3vCG8gALjRi+cpKp+NRT64CIPOqgF2PWrrJpg9E+4QlPKOXf9ra3Fb3iBS15yuCdjvysIC8vHLPYRhvcR1NZbSctGshQ5ar97Rqc6yfXkpBSn+y///7F6UBkEvbQ4yyYO6bHiA6iSEcQj0oWf5h7z3veU/aIhQEYwrgOcMRYOoMXQgfSGW2njMpbDaAn4R+/ZAL8RS5KLB+Md3JZs3guIV9Z+coxUJ7eAtizCl+UMThTrwGVtzaVE8JEDnRamVyPMky8oW2XyI6RrU20Uh5t7b7iFa8ouzX+Pq3BEr2ig1+pbW/RgDc2QS5OQD/IS1+4tkXsz5wa3LZ3DXA6paOUpXPn5FdvHOY2ekTjcSqzfmGrjjQKZ8wWghZVnnIyFgxJGYm5ltBo0b+GUXnbCzSlGL1zR8rPDEUmD3qEbgY05VMow1OeYhm5XSv37fy4z+gNBuXa2S5y5BiEVpuPF/VtCljAmtoNIrtF9KwPeH+/qub5gQFhi5I8MSDnEkwygkVAZCc3kMF5jPr440/o1k4fK/L7CRQ7a2Sib4g9RebofBTmNnpgvOmojs3SsRh0NPp4p29+009f/K0YBAZ5pcqYbaXawer0O6Pt+GBU3vYiys0Rb9qJXAzOPfG62NGODQMnO6NTLgYl366V2Jq3Z6AM30wXhHaLtB3kvnzJNYNHx6BiCDYM5DF47wrZPbLHb2aNLuMpIe3mehFBVsYbHsnhnNPRL57/8PLWN14J8ZYvO1MvBu4YnUl9u2qxTeEN5WeajYJz7chA8G/RoTyDUCa7FJDfXcGwI4RhGJW3WkD57K79dtsUH/iPIRvAkkW5j2UMXnKAslF05DfD8bSe6PqBVXVTnixop07y2uMooL1DV+fc3SAziBi2tsS2dnW8C3S/+92vxLd0mzYYC3Aw7ffOiwzOBO/hk144Snq1SPdeknNfn9nWVa7Vq7K5jo2Nw9xznk4LYxrAiDhMfpiWbxfBQs8TTj9xxztixj3lJQMkwHDfAEblrQZwHxvAb+QBckj45F0f9ahHFQ/uow/GxrhOPbW+BqwM43ZkaIzewtYU7LNAnikhkafU0LZFtLb9yOqaroq+unM01EdHWOnBGEPwM4J2kDKjZKo305Jh69b6ANH5oiOGStY4Eo7GYPApp61KIRyHqixZW5uT5HGm0zC3p08HM1pI52CUgt2XMKHzGb1H63Z2dA4h3E/4oJxj2+HQz0v+agEPQUs/PEnKiM0tooQTtjH9IQa8534S46cHHWVgiL8/+clPlgUXL50HTDopQMN1eAlNRxAq4YfDkI8+Y/eBOfhrKLwex+OeMjqejuXhKXpMG4sI8kqcCT7jSOS99a1vLfvy7MfTV3KmfJvosabhg7tx2KaYPo0ABYNrnZqOxZyngsoKD7yklYcJhIrhwCjj7uclfzXRb4PBOEbhoAzDt4NCDnKJ8TPoycq7+AnvGoN6V77+YTpTMuNntDwUQ0yHoJt2cw3Jcy1ZL9AXPXtg5r0cA8tPizAE90MDnOPJdB+PGUNZZODPbIZ3tmGh7uGcB392z25961sXJxqnWfVIpqq3fp9Nknebjb5tADALaVC2l394Pcr//vd/UN4n8ZMbPL6OlJ96UOlGmAp5MZTVRmvk+A4/uU6yg8K4hDc+77MrxYDjYaN4oYdrg4Rhom2mU09ZgwVtjgHditpxuVYHDKBddvFda/0szmzpvRqGYffCs4TMAOqQBQ38S5Et8oTuogLveM7s5LeV7EzZ/bM75W3KDN7IQyRloztwXu+Nl3ebFrI5MlBMAkYoWGOY97dXXZvWGY2v8W3/Kcco5DtXXx2GEDr4RQPcS5uTBNkW9BXkOjI4x1N4tGsiLz+WyuuQy73Kc6WTc0Zul8F6gIe2t2+wkB1dAyz0014LRm8RaudCfXGt0MZXQl5RyKBSD40MpDoIh59+ugfKbhTCG4Tn/jUPHluyeWD71yvS97///cuWMb2xiawDI4+66IeOoz6chLmNHlGJMrP7kY6DHE1PGCRItt1sXR555JHlAYNzTz1TntAMIaNZp4NzwrZtrBb6fA8N3nXJLjzJU9bClrE/5SlPKS86WbjG6Ktnrh8mZ8ZwT1gjxCEzA/ZymnvCIzKTV7m0Dc7NLMqLZy1cLaQ9fPI0kveD1qgd1RuH0F5v0IcZUB/iQXJO9uiV0ZrB2ItZzTcF73jHO8qLc2Y1tkM2Cb0WoRHaUox/HLYpvJkGTDAAgp3eda6/bSS+Z+R+jsJvzPBc6bzsezMECtCZGHeMsOncPqYJuD1AO4bpXDKAbR0yRHGzQeA+GezP40UZZRktuXl4ZT2ptrNi1hDzq0deRp81gvpp09bn4YcfXvbin/a0pw2ud73rd/X3LPpQjzGpOwvWSkeTwLjxbgAzaNfZhiSfPuUg/NHteHB/aMJsSq++XaAn8ipHR+rNgknyronR6xAGgEEphksBvKWwwLlH6GJ+hrF7d2QsyrWLxBiec4K4brHWnRkvosMgi1JbaNYo7nlJrXaIV3lr5ymfWUAnqydPXG5hJjxxX5JPZ4Aeb2dGZAAGiPfjvQS3xx71VYbqAHi1qqNZsNZ6GgVt4o98Ocd7+lK/1kFfd/+Eb5whffl2mJNM/zuypVnlmFRuTYweg4QwemM0IA/jDJ/HE7uJV5W50NICV10GxBhaQ1fPsU0wqxK2FdoJD45kYsB4s5sj8WS2JS062zpkcCQfeS3iLdDEp655MfTIix54ac30ziHQh+9nxfCtPhiKNoZGMDnVMusP7eKZ0Uvps8jKmIEcZoDDDjusyGmnxs96qFMHeIX6te45ZWyTdifJvCZGr0Gd6RhBnfPkBI2ReGLpAY79aAIyBAkyWJJco5UOl4YKiYArZ4FJQHMatBHFD/noZp/uHoO0brGrYuAKYciVcjonPEo6lnffd9/9Oh2cUeTMS2zaUIcevM7sYR56/lS+bUl64/1iLJwH2hlU3b+JaaOBRzxLQBfx3vJ85uhdLTObh5peNUid2BEd1VmBzOeUsU2gzjisidGDRnkwx3hpjDMMjEs8vv1m77fkQwxfw7hn5GfKr6HDOWM5tNGtGA6uWTBLuXYIKV8H2X/KoktYZuCSSQzqB5u8450X7JQnA751HhnIQ34PrHyAgp58R88B/Ml9nW/xdsghh3ShzSU7+mLeYeyubHh3nEWOjUb4pBdGTA8W9+A7V+ujJz3pSeUVA14+OlSWvEJhejZDzopJejlXZzSzu8c5YUcDeR2W0U0IiRCMR55OtT1FeHleoMqPLqkbFltBKE5q2Q/tWTCpXCVZZxNt4jXl8UuuPHizfekjD7G6hat3YfyRBOV9B3sWo+2M37WBgqZzswSDJ7tPLV/1qleV2UP8bofGQo4uQOeDbU8zhIED5M9gWFTgMQ6M7shMd2SyM+WlOS+THXrooeUdIgZP3/STcupB9LC9WFOjJyzDSMcQJl7QuQ7PiBbf261gQBaJ4mZPcP16mgVN6kqMBts8KGWCPKkdGJOg7DjE6NHWSfhX3jU+tKFTIhs5/G6kp8489nW62eoB979/4U9YopyOc81g0RHb62xbkWY4YYwHMBasZkADS1iDvnoGQBb6cSbCpUlyLALwyQ7SN/RHJk9bOTken4PzAMqAjq2oR1e8PB2Sfda+nYY1C28CzEs6qxtjcso1ASiCQHYrjOp99tmneHf35VkkWtg5t2MSg4/wyoG8pFkxiwLDOzBU59rQca6dG7B4F65k8HoKy+uft1uoGrxkBJ3P+O1QCGMMbjQYvDCPp2PIaCunbtrDL/p04Fp+PP6igr7IgdeEp4ycwXsvyeD14MmLZAxeGWWTOBw02vzVwJoaPSZjINVbDnceQAc6N5rlG828nC1AOx0Mx0LRF/6wtSuzazPqy5+pXDLEUQpRpk2QtmdVYIwsRi4x3hhz8iRTM6MV8liQysOrsEbne0DlL57ocLGs2N5bmd6UJDej1paZQz2dHQN3zeOTQzkJItesIP64KnQT/Yyjm/ujyrV9C/iVyEGPeSXa2kU5v1kjXaDra/IoFwNHy6AQx6sL8lcDa2b0hKIQQmTKgijJfYJJPCWjICRjUkYn8wIGgN2RV77ylYN/dWGAuPd859urq18fzgBl0LVFn/bUl+fYprbNKHIUuqIFyus0/OsUNBhhHcChXztCvjJicXvrPJrXi7XluYQOP+KII4ocflTqIQ95SDF4g1vokgEU/ujBkVzy8SudcUYNk4Css4IsUndWMzrgH0puaavqB6KzFqGRF+xaHcvHFz2Ao2v96B5H4QU8v9lJN4997GPLYOcQrHlCIwltM5ljEvR52hasWUyP7CgG5dfOrMLFSBl8Ots5pTEE58IFnyAKC8TOlEFhFn0MDI0YAiVHgeilrSguPM2qPPVNs9qQ0GqBTx0aWSTlhWW24PyNV3G+8MdLYve+973L/rykwyF8MX7tcQLyyBTeM0i1pYzrhE2rgSpWla3VjfbDhzbxEgg7M+uEJ7BGiRzq0ofB7n0ar2b7pQdt5EU+Do/eoO2fpKA93x6s6UJ2FDQnUQoQltCtUikpHa2cjqY8iz/vtRsEnoZSOiO3FvALwF7w8iZjlA9pT8o1tAumNkXR6Vx5eNB+OlYnm2XkKetaOS+XWYhL3sF33x60AWvhi7fnPe95hV+DGy31Qss1fWhbW87RV8Z9UCadr1zOVwMZwOEjbaWvnLftJV6X1HVNr9EXjy7ME9IZ0MI5O1Nm7+hSAjIGaaPfXnu+Pdgwo0+zhI6iY4gUQkCKS+fHCMX/HuKI9Q0A23jKMDyGJFy42MUvPrh0Z1h5xwWUadttDabNj6JzT2c6d5RaGHQM3YLbgNTJ+NP5eLEo583MVsoYCMIznW5nyr6+QdufKZzjlz607Zwu5Ce0Cs/CqyVWx0K5UYiM9XYNWzw4Qz8G3ybl8kNd+MFr+KJ/5+pa09iOtDOVX7P2hFVYl5cM0Y8+ndf+wZMc7bXHIa+rgXU3etBkmqUkRkIo58mDePjEdpB6ypsRGJ0HQ7Y7DQJTq0Wh2NoTX0bGUBghA9M5Osu76vK9K5M8NOOxtOvIQ8nTFn6khCGMPrs1jFobDFoHm3XsSAhhlBXT+0Eo79SQhcF7U9POTUI07cGWLmw5u2tTPTxFN63eguhlGvp1W33Lr0Y3nOna8srJA389ZmunG3oIz+7rI7OZHSlyeo/GILcuk8zE+oIu0Roaeg3fzom1MXjYEKOHtllCxdhArCqvr5QYo3sMNZ2hjPo8qgHg1QZbgrwNT8P4hBSMyw6La+eOZgLeOHE0Grz1KZ1B/7NLjNW1uFyyoxQPr6N1pj3mvOOOpvx0VOQkC97x7cew/IATerYq83s1yjAkA0VZvETWxO9CIbLWgVtfZZ4Fyg3LVoMKj6BtCW2Ibkel6Nvg5zgYsBk3g9pum7dpySWk4WzQwzuZ1EkeWtpFow9trQU2zOhB0xShUwlIeHmUQamO8Qi+n9x11/r+iXsx/kz38gwKZR0pl9dnoMIOxi/pHIYrROKZ3JeU1zaDNQAkxuf5gDxeSujEqBmb0MV1DC+/w6J9SCfis8okTq5vkEoGkunfe+OMxVNo37x658b9PfbwyL12jfrokBFdSVvzQHl0pBhvUPPLWTnv05YXh0SO9vc96daujNemHb034yW5K17xSp1h19kUv2QCxg5mCvek9caGGz3hGT3FtKzoZMqPcqHfGQzMPWViCM7RkY8GZeswg0tbjvKcy5eSX43Kz5vULUqJwUs6i4Frx9GAcB+0gxftuy+BdhI2hRceXTkDziAUFvm7XRa/Bp4ZyE/zSWYObYcWuEYfr/Jyfxq0SS8SfiDH5EvkyBEijzxwpC+7U0IZA9d6hlPw6xfCNjKYPaOf0MMDfQC9R1/uh5f1wIYbPWMgMAW0gntvJV9m6eCWzSiLIusPo9a80FDWvXRg6rrXV27qpDz0y+U8dNSB0JbwGL5yn2yu1a9G7w1Tv01fZyNgBLy+7TzhGM/JkA0shmNdYvFn58eDGuW1F9lm9ZR4CK+5bmUMvfAaeTJoLU4Zud/1Eat7uKYMmOWsT7wsGCN2zIBEu20/ZVI/OlovbKjRBzH8JMgxiuLV5FFQDLUP5VoaqZsObZE2Qy+GOgo6Jx2XDoPQlxhfzqGl15bTriNjUsY12uqL8bMmcXRPOMXweVALdB41awezDVrnlLmclevkg3tBPz8JT+TlzQ1Gxm1GEg7y7mYm4SFeDETvRnlnyNooAyXt0FULckrx9tEF2Vt+1hoLYfTjgLV52esrL/X7dGLEKZ9jv/ykwdBCfZ0e76VeBlQ6Wyfz8Do5Ha+8tlwrj07aZvg+JsmryzwnI7P1Z9fHmgKEEdpJSn00M7gC98KPtvHkmOvMQAagkEvbdmKEZbZZ/VAsj27t0QLdtAvOydI3/HFoeVxrLLzRt8dZEOMNxtFwnbKOOZff1pm1M5RjNFKuY8StkTm2hugaUlZSjqc1u+HBNa/rdYxjj/1SNwBOKAtydfJk19EgEGpYZDvmXaBs18Z7C1UYtR0oD85cZ0FvC5YnR9sMY/vVzlTCKwMvsTpEb5DzNm9W/Nfol1A5m8/bj1L4qPrylO13VMo6psws0GkxblAvXg6d3JOvrGPbRlLylM0xdRhjDJXRW/hmYe48iXFLuXbfwEEji3MDxWDIgJAvZcEufDKI7F55IWyXpdkkfDoH5+OOkWUWhN56YFMY/Woi4vY7qY951dJ2suS67Uh5DDiGk3LgOnyknLBDGOQ8s0dmCPdi1Aya4Wd71rE9t5fuvrDFIGTUDJ5RS7y36xi7c3kGg/bwk/YhvLayhfftwWrQmBUbbvSanyTwWrE3q5JnbR+9WnRYvt9GK6vzXLfl5JXwpjPU3TqPzFBd2/mxz5/yqW9ggMEBfVrzwoDK4EIzdAP5rcG3aNvLecvPJMxabjWwEEYPk4RebRbnUfCsbc/baa2Rpq622pTwCJRh/Ly2c4YZg+/XC7TRXgdpMwac9oP+AHI0s2hfu2aEcRjV3izo87CW2HCjp2ACr5bQ4zp5GlJvPZSvrbQXr5lrx+hD6JKHOMKP3Gd87XOMGG6f99Ach3Gy8vb1YZ2t1J1K2y0t9XI9jsYi4/+80c9CV522E9e6I9Ne21bfu+a6lUce79/nr6WjvHJtPW9itn+Aoo+2bPgKjdDOwJJv0LV85LhZsH5L5gmg3Fbx64l+2+vFS4xpFJLP0IQTMbA2uRdD7KNfVpGI1L+XvO6/5fPIj35r3Mk/R90eosP10OO2YGFiehilwHkxLz3l+ypoO3VWoNGvE7qz5POgbbuz0kse9Mu3GEVvHIQ34cegc5ynnRaztrme2HCj/y/+i/XFYPD/ABG+cdaICC48AAAAAElFTkSuQmCC;fontFamily=Architects Daughter;fontSource=https%3A%2F%2Ffonts.googleapis.com%2Fcss%3Ffamily%3DArchitects%2BDaughter;fontSize=16;align=left;fontStyle=1" vertex="1" parent="1">
          <mxGeometry x="32" y="340" width="189" height="139" as="geometry" />
        </mxCell>
        <mxCell id="NrACzrblmRAF2PJDY66M-4" value="Inner:&#xa;KStream-KStream&#xa;KTable-KTable&#xa;KStream-KTable&#xa;KStream-GlobalKTable" style="shape=image;verticalLabelPosition=bottom;labelBackgroundColor=default;verticalAlign=top;aspect=fixed;imageAspect=0;image=data:image/png,iVBORw0KGgoAAAANSUhEUgAAALsAAACUCAYAAADLaliJAAAAAXNSR0IArs4c6QAAAARnQU1BAACxjwv8YQUAAAAJcEhZcwAADsMAAA7DAcdvqGQAAFfkSURBVHhe7d0HsG1JWff/DcMwwJBzMICCoiJKUjEnMGcFBSUZS8tQBVVUYXrLQIlayh9FREFFBkUHFRQVRTAAJnJUYUBQSYKCIDBDmPfdn17ne0/fPSfsy9xw7p/51e271urV/aR++umw1trnSv93jdWHAFLzSle60jheXsxmO1k0r8CpxZV3jlfgCvz/Hlc4+w5E6g92kPsQGRzPepz105gTFX+vKcdMY5spyX48r5jOHG2c1c5O9G3F54j7OfpMY1uHrc5m+Ssc/ujirHf2D3zgAztX+4MDXvnKV76MI6pfAve3ddbZbJt1tqVxBU4vznpnf//7379ztT843znnnHMZJ1R/Tu5v66iVD3vV25bWFTg9OOsXqDnoNmlGDt75fNwWc/m96p4ovStwavEh4+z74fI65Fz9Cuc+2jgjzs4pTpZj7OXYe6WZ3yZv9z94nLguJ1P/vXCq6Z+tOOlz9k1ym47k/nvf+96xYLzKVa5y7P6ll156nGNaeDpvYSlPGXPveDiWr9y8CFW/a/ddx8+1eu5XTopuNC69FP2lbHN+eWvO41zd6LgPyV1a8si3q5t1hnLnnnvusXozlCEjdD+ZowkzD6ie1L1sMEM5KSgzo/vlb5af6W3SPso4JQvUSO5niBoyVG4uH406BseQV5kchjPUoN2T/853vnP1lre8ZfVf//Vf4/x973vf6p3/+7+r1732tat3vetdq/e85z2rN7zhDaO8+le96lUHLbJd/epXX133utdd3fCGN1zd7GY3W33Yh33Y6ha3uMXIO++88445wTnn6DyLPng66lDJMyOdk5Mu6aN819JcToLd+rNjXtYBqz9D3fL3km2TZ1CPnd1n/70wl9+ke9RwWndjOMQll1yyutrVrnasgYGRnP3fnQaVX+RzdK18UY6jgvvqvutd71697nWvXb3yla9c/eu//utw8Oo4KsOZdZzzzrva+nxpOB3gGte4xqCDpsRZ46Oh1XGUp5x0netcZ/VRH/VRq4/4iI8YHeH8889fdNjhhe8MTiO/MukGm87kXJrPZ5quncvrWpo7U3mb5WCmA5v3g3LyyArZZBPVPxtwWp2dc7373e9eXfOa11obb9fZwfl8rawoChoyh9EIIvP//M//rN761reuXr+Ozv/z9revXv/616/e+MY3rt72trcNB9Whrn/96w/HzKE5Jecs73rXu96gJ5KjaQRwjdf/rkcB9EV/6e1rHsqgrePc5CY3WetxzcHjBje4wbhG27n7ORWZObSjREfXdONI3XOd/o7pLHG0nI1dulYPKqdePCQylGZEH5ILqlfefL1J42zEaXH2WDCwxuIMDDg3kPOM6lhe+ZyMw6nPQf7pn/5p9Vd/9Verf/iHfxjR+Fa3utXq0z7t01af/umfvrr1rW99rHHUrZNxbg598cUXD+fnrEYB8jjnQO5VD93m+aAD6GT//u//vnrBC16wet7znrf6l3/5l3H/Yz7mY1af9VmftbrjHe84HF7H0ol0qvSG2fnwQj9HVw7Qi6cOkU2cS1daX19lcvbQNVrZFeZytQW0Jok+dIwXmdxv5DkMM6+jhtPm7LFhjGONtj7PmTiD5JxhOd473vGOY87yb//2b6u//du/XT3jGc8YDiai3uUud1nd9a53Xd3udrcb82mNEp1rX/vag7apic5xrWtda9zHl5MaCXSMG93oRqMMnkaDGhec62SSPJ2CXOWT1bTs1a9+9erZz3726pnPfObqP/7jP0bHu/Od77z67M/+7MFDB+PQ6pNFp0GnEYdt0HQv/mSPl/zs1WhHR/mgnOQ+KOs+Opv30Mv+7tMZf7QcKx80mw6h3mHAY6571HDanJ2xJI3A0Bq+aFED1CjOc0DR+y//8i/HXJyD3+Y2txnz5Zve9KZjAclZc4DZQepE8XWNLjz3uc9dPe1pTxuO+ZM/+ZPrjnK99b3FcThgHUZ99XJ+R9GYYyjnmm5kNX36z//8z9EpX/Oa14zoL48zfeVXfuXqUz/1U8fIQhZAW1305KGXo5AzWeXFXzlyZU/3yJeulZHUKa+jls5xa3Y0pGjiGw/52iA9Z0Rzhry98o8KTouzZ9yOnIWzayTnGpzDumZoU4tXvepVq+c85znDIU0xbnnLW65ufvObD0e3QyJvaWTReolKNXDO4loZ90Rg0wr33/SmN63++q//evWkJz1p9Rmf8Rmrr/iKr1h9+Id/+Chf9JXIC9HR+HWEnKTG7Shqm+Pn9K997WuHfhz94z7u41af/MmfPDosoI8WWdHSMdCRn63wltIpXUzLSkYOHcs0z2hYByolP/rsJrXjxKbOTbvojj/d8QH2tW2KRph17vxswGlzdgkYR2OIGBpAvmuRTaNddNFFq5e//OXDUUxXPvqjP3r1+Z//+WPKokMweg3IQTgAUKPk/l7OrpHxd60T/emf/unq6U9/+uqLv/iLV5/3eZ83OlSNioZGjz55q+ue46azJxuoZ37/yle+aj0yPXNMdeh429vedvVJn/RJo9O2mE1ePNAFtNA0XWrEsJVKJnlstpk4vqMOlIyADlnZgg0LLJzcYh1f0zwjp5Hyxje+8ThfbLeMBtHZ1XfpBMv5rsPP50cNJ83ZkaHobOCQ4Tu+4x3msFcdkUYjyBeVXvziF48py8te9rIRCe973/sOx+AknFVdDZWTxYOjSO67p0yQj/5SZxkFXKtr+vFzP/dzYxT5zM/8zNVXf/VXj4ZOhxmc733ve/86LXN1MiknJQu6HE1enQwPjmRB/Wd/9mdjQU2WL/qiLxpTG9MxdiAzWTkrZ0aHznaEXvSiF62e//znr/75n/952Ilz4t+zANHZcwC0OKkojSYZ8CIHmu1g6TRGAusWNHUSsrO5TviJn/iJYxRiC7TwQ0eqE+6XChYHgTyg/OnEB+Xsm8K61lCM0RCYcXKszXIN3/I0wqMe9aix+BT57n3ve4+dFffUZWxG1GAN9UUwC9Fow14GVM62YYtUdPAW2dB5yEMeMtYEd7vb3Vbf/d3fPZysBqaPa3yTR1KfM9EPXHMazgH4SO6j474pDqd/6lOfuvqLv/iLsbD+ki/5kjGVElGVs33qecE//uM/DnuQy9RHmTvd6c7rxe8tx2ggKQ/kSg6yyZ87PCzm2Q04EjuwCzuY/rz0pS8daySLbVNJu1qCzaesO+Wn7aw58KVXNPDruPBZpl7dB9eBHfIJyb3qhurB5r3Lg5Pi7EABhluGSEP+zo0dcBpJOVHJUVTRoKI5Q3K2O9zhDiNaaTDOmVHw5LRouCd1bxuozznRAOfqirwcyoLVVMGURoezb05G5cmhUyy6LRFbowE5XJfWVlnnLU6+XK8GXfTUb//eNApP83v6mseLtKZwaLr+hE/4hCGjqZzIbcrBMTlIfPHJgeSXtkVy66hsQb7//u//HqmFtnMgp61VO00eqKnHLvgVHLKZ69pGnnab8w7Ctm16orhczr6Awy15IiCFJaC0SACiiPtg7mzx+Td/8zejgT2MMXTe6U53GgZlHEk0ZUh1GYuzONagjLKN+MpVlmOoW8O0LSiSiric8Lu+67uGPBzLXvTVrnbeiHyiNjrqqV8DukbbeZ0xHSQj17IAtOZY6nN4C2Q8dbamIzqaqYTEydlAZ5sdpWP0544npethqP6sk+Rdnosvfs8YZaQ3v/nN42hhL6AZhXREUd9mQTZARzDQARp55Jv+0buRkGzOwfmmrNrnVOCc/7PGzvnlAkUpB4TX6ClN+BTSMBzL4pDxDOX3ute9Vre//e13nGuJUBwQdJiiMaNK0crht0nq1KDVA3ICp3L/Fa94xYhuFo/mv9e4xtXHffei40iO8pMn2StTeXqBBmcTEVNnN3dmH1Mx/DmAyOnhFEfi5OyAF7qQ3JuQn25dH5agl9TUrf3WLThkMdqK4Dqeo2sjgABFB51AIFKPjDP/bEx/KUeXug/dD7NsJxtbOfssDMwCdc91ijgyAifNAO67ft3rXrf6qZ/6qdHoFmlf+7VfO4yozmwUQ6e6ysnjMGi61wghP1kOSqDeXnlo4GG0EUntyDz2sY8d90VbUwfl8C9qc1CyOicTenRsrq9c9+Wjj4bRQWcSzXV29b7sy75s9Z3f+Z1jjWLObJGuvsWm0SBds+GsR3mO4Lz26N5hyZQL5nac6crHU6fzlPhTPuVThmwivYdoFs/k1Vmvvp6esicbqK+uVJtmK3aJ7sx3r+PJxFbTGEWkTUHkJTCFRG3zPqinm6+Kkso861nPWv3sz/7sWOk/4AEPGNELOIEoxokYzvajLcHP/dzPHVGFI+JjCLWLwAkZP76HQV100WfwnEOUal2gjM4oqltL/NIv/dLq4z/+41f3vOc9Rz1TLfoAPZUlA7rqSxxTp3BEb3Yao9gTnvCE1ZOf/OTRgX7oh35ozMuVRxcPOy0WiH/8x3889Hrwgx889CcnKKNs/AI7hDn/MCTbJshOR3QlZcgTbffY0Zbo7/7u744n23TWYe93v/uNEVEd5dZc1nIvo6D62XAOEpLz0ozN68uDE57GzAIxBMPkTLb2zj136dnyOKeG1QE04J/8yZ+M6HCf+9xnDIscRmqvtyjGEPalf+/3fm8szGyBzWWBDNs4OiRzjpKBXZeHtsYRTTWWDmgL1Bz+7ne/+5BpdgCgo/ryi27Rdk/HscD7rd/6rdWFF1447GABfP/73384uumLDoMGmu3kODey2W78yI/8yGOvFpOTnQB9fCXnMOvm/LCED73pNnfaaEjpytbxrDx96WFTQRsJUtqM/SQdOX+gI3uggUcyJ2tHiCeUdzKwtbPjjy/ms1AJTRnn5TlSwBCuoQ13nlJqbPNzOzLoMKKGXHr6EkFEMOnv/u7vhrMpa3qBB8Oh7TxnT6bDkoaqAaPhejMSayQOJqKam1pAatQaDd/oONYRNL68nPzv//7vV3/wB38wOg75bR96l8eWnrJ4cpp4o4t3b1QaFY2GpnlGM/fIh4c62RnUL806H5Sgc3o5okeXdJPAtft4rmuN8tqNbAKQ0ZvN1PXuEbspQ256seWV19dX3bEhDFnx2JFhL+yX/8HgBObsu4uuBJgNTiHHEgewgLG1aJgToT2W5+gMorwGd6zBcyaOLjLIf8lLXjKcxQ6AuSLaypxIo5bwdUxGvAEfNPFXBjSehhRhbRHqqPJEX2WjmQ3IIx8tT37tVWt0drDLpJPbL299gjdeztHBW10OXWRUhu3oz/nZQJ46oF4OmT2Abp0fhuSuPtrqg+PMq/uOM195poNGIZ3aqCxA2Kuno3amH9spj248pf1kjefJwtbOHtPNYwaRchiwYv/DP/zDEdnM5TydtJ1HuXYhlFXfUMogaLoGjWrOLOqaTnjKaVtuvM24Uw9P9DZRgwByO6fH6DvmsOAcP9cSB1VOVOLgGo3j2ma74Q1vtJZ76dh4xytn9S6MLVVRnQOYd9txEq3prLy68VdPvrx3v9vHI8sIKd9Uz6LZQlDgMFVo/z8ncUx2NNwD19tgec13KY8WuUr0YQs0k9E5B66j4l07AntZa8l7yUteuh7RXzjoChY6MprqojfLqH6pfMdt9dgGWzk74WJMQcl5BgcOa45Oec4hGj7ykY8cOy9f+qVfOhpJGXU4QQZCGxxT1FFZBrGYtXDz4pY5oWnAbDT8Zvmc6yDyyYkWdB//WW7ovLo6HvrqazzOasFsJ+Wa1zx/TGk4Axnxobfk2sLTE9Av//IvH09jRXL0cu744wXOs0MLOdfKm771OoHtWiOGJ66mhmzDESXTiXZ81CNT+h6WbDtKzjchTzuhlx3J61rCS76UTdnNlOVjP/Zjh908x/jVX/3VMa279a1vs9bnJqNunYi9FzmW6aA9+eSP7snC1pE9ZRLMkbA5Ws7L6B6Fm2t6l9tLXIZk9+cG30T5cwLG4zCG8YZ0EU5exlZWfedSxowfdDwIymRodSH97MaYhxqxOLVOoNMpx9G9NvzLv/zLw0E5utHMHFbd5AJHdpPA/eSX5NfRXM/yiO46nfd4OLs896PlfNb5ZCHZDktLuy0LdnpqM0FOe7FdzzDYJdvUVhLbdQ3pfrJwoLPXMDkepJh7lHK/huTQhlxRyKLlHve45xj6RZ5o7dUY0ZRmx+2ekYBxOIEpgkhn/opHDa3cDPXjVToMleHMzsmCPr49KRShPCtwTS5RzKjjlQd6envSXrRGxn9NddDcS47NvOyMZ3rhSV/6CyQW7XTD35Rupodf9jt5uKz8+yXI7uQnCxuRlQ6eGrNdAaupjMSxc3T1ToUuhzo7h8Y45wMCUKaoRygOQZE/+qM/GuciuimHuspVlkLR6FhKOSl+8tTJaKYydmjc5/AWPWSpTuebaRtU/31r+e0Q4A3q42MOL4q3AJPnIZCorq4FuG04jlljNUWQZv2iW5763es+0F0n4tj4cXjRvS3ZpkiwV/3LC6S2pUcH7UxmdXJ4o7BXIejhXSBRXpBoh015nVodgSbbwcnU5UBnJyzHJQxFJCCAfMcM7f0PD03e/Ob/XN3lLnceEU5DENrQpWzbjSnQEcrfzUN794UqMojk5oJGjosuevXaeFcdD12AHGTKWKAuHE93f9RYyqYv+UUgtNHN4X/t135t7JuL6qL4N3zDN4ypi6kNGaqbLJv83ZdXo5I1OdWRlnfGdxsdb/o/+clPGXNhnd3Cr/sdO98GyXEYontQQov9HDkv2eXThV10UD5hS9XrEtpOB57LOmfr9cWODbbX5TAcGtk1HAFSYlasHmx4Ivxv/uZvrr7qq75qdbe73X1EouqJRgTnNJuIXimIiIAP5YsYkm88X/3qiwZPe9YiB15AXs6oYxkSiy45zWFQDi2LbHU1Bt6egMovSnG0RzziESOS3+Me9xhTF3XJJ4IpSx/y12HBwccQaIIyNXSyZos6u0QvdqDXHe7wyavf/u3fHjQsAuVzomhuq+sM/Dax5C35e93fBL7aeT6X6K5NtL/tSR2UfX1LILrbdWIz0R4f5dShT/ROBraaxuS0EHNCUchOiUj7xCc+cTT8F37hF47FnHvSxRdfMiKwc43CGTaBVsbMKUD0wi/+eFn0iPDoGRL//M//fCyE3VdXBMlwrtWtUx4G5RsZGNy56M3BciZOb91wwQUXjDf/vCNiAW7XiFMa4fDLdpv2muVI7/LUkWZs1nNfhzNamkoJND4CYSu61sm2QfxmGTYhe1t6EC220N6O7DG3AVuakmpLUzJlPFmXr1PQgd2Up/vJwoHOHjDWcJjXeIzEoXyM4LE244twIq332YtElCR8DVb9GRkhUL5GrzFS3lEycnBI77GQQXRgQGXIijenj982RquBahxAzzmaaNhvt9OkoXxk4j6Hp78HZvGpXnpvJti8h39wTfe96iunw4uOpgR0FGDcg3TeFtE9CLXHYVCOrWCm6+ge2dmlEdIzFzqwH9/hK9lBucPkOhEc6uyMLdXYEmFMEQhqd8CC7Qu+4AtGhBVZ3U85hneuXg4EGc+9WaHZqN7/1mnc59gMga9rfDS4aODlKfdF2HYo8OPsjtDxMGRo5cmezOTQsTwZFUW9remnMmxBWph78EUmTlcdNDb5pis9nZc27SF1DfN9HRJffPAmkxE155C21Reqc7KQbmRwLFDOcM9UUJt5YGhbUtt5iNZrx7O/nAwc6OwJ6MgJajzCa3wNbAoj7zu+4zuGwylHSE7IOc3X3c/pYXZoebMhMlTlXVcf8EVXgzt6yqqcLU/THNHBQk755JVCzgybfEFeawz1KiPyPOYxjxn77N439/MY9PTQR1kPfDwtNrXhiPIaJQD9WW/nBYVZDvXKm/PZHD2o41//+jdYve1t/z3ePLTzZaFcG6CDx0zjsnBvV++TAXTwJsOsc7+Lyabu9eCPzALYq1510Xja6n3+88+/xtBjbrfooH+4XnvjQGcnVAYmWAaUT5iHP/zh4563GNtX1ggEUQbkqTsL53y5vmzepnOqP1+j79qxczsU5q+2ATm8hpefrIB2RqaT+3OZhl55yqCtnIZou88H00YvH4IrTzZ0bQGKSqKTz+oswHQCNqocWs7xw6M8iI60H9RxX2dfnjJaVyz6k9E6wpNdU7k6GH7RxFdy7QjxrMxBmMseloBcJfrpVLOdjYLpxHfY2xauKY1dG9Oc9AA6AtnZwL10Sq/DcOg0BhFCYpCROBTj2u8WSb2Xbg5LAEIpV2Oq51xeDR9m+TaFjddBUIfB8CGHhxWesnJ8C8amMWSwcDTakFFKL/ctQvHrXEN037Wo7bWHr/marxmv+9I12jqCuhpHpzOlMpe2125K415RjO4S2nNeumwD9Cz46URvsnAWj+Tp7DwdgYzRTkfXzqVt+V5exBP4AbuRkX0dzd/tsnlFmP2NjnbCCjyzHp2zAcw+dRAOncZIRYicnoC/8iu/MqKIKNrDAcZXznllCbYpaEj5UJkaYhvksObvoqvO1s9VaHjOAGiLtEVT187jo3xyynOOlsWvaYKpEUc3p0RH+aZoGsuOjQbSobwEZl6Pfw+YJHSTF4py8d0GaNixQA9fnQ5vrxJ4CY2D6PjxmOnOvJ2n5+kEeebEBvTg4Jw6PVy3L+++suStXucnYrtDI3sNhKGj6Cly6oHebvMgxdNN9zh3cy3X4DzBNFCCydvELPRe9zehjBQPzmbR04cP5LIAYjj304GBHePHyPP5e3bm7PS082Jh+k3f9E1jmqDzKAPtHUvqk8MUxhc8Rj1y6CQcHm8y4DvLAifSYGS3CzY7AVlNpbyy4NwIowMAXjOUl8rH+3Qh3lJ8yQsFHgFCgDESszV7KlNgmGWvrmv5h+FAZ0dkjoQEtLftq3j3vKMt0kEMZ0E4BSEbbnKSUFlQN4Hn42EJyEg29ET43lIkK0fnCIZDTplM6oiKHAZyQjRzqGc845mrF77wBaNTm6u38AXlRH71vfy01mbUQ8f76yKUqZ4yIu1Sbmlg9kBn5h3dg0A+cu/aVsdd9DCNsitmRHFttIVdJ1l4p+OcThU227cjfb2Sce65ywjJRvTSQU1njJjWP7Z0bUAYrfJDNqSTes7lb2u/A7s1YSWENBAmHMhnZp6ULttEy2daGDKyb0R7GEQxeQRKWIjujM08ihyWlF+ceHlimcJ4PuhBDxqyGIEsfER9kZgclXONBt3IH01Gt9B8xStePqKLV5R1GHVnQ1/nOsuXOZdccvE4qtu06XM+53PG24leobA92M9Q6HDoo4UvOptBYD8oqz6w7Xvfe8mYUjrXqX0JZddIRy+fXtL6dFzjS07n6J0q4LEf3Lt0ba/12ZBNp2/3jk1s6d7ylrcar0r7lHOx02JzdaVkd9xWj0Mju0bMkex2+PLI9Td/8zePSDczIxSjW9BZKFJE46fIYdAAYT7fD+jraBxgadAlUjkX6czhOZmXxwyHHF55YGARpDpS+rpnTcJhjF59RCKfHpVtzi7PPefdo7cpFPh423sgFmDJqgwov21jgfJ11uRBT55RTUQ0/fKhC31rH5+/gTaKp+PpwszLOdkdtYcjewgGfAWufe1rjaBpamakdA06K9npq2NDbXIYDnV2CWFG4ugvfOELx++8eLyr4TLaHPFEfx3DPrx3IZSjXI00Y2l0zrZcJ/Q2wkOKc8aL18mfqsFPfc7maDvL8wB74JwwORipc3Qker7sZS8f7+RzUD/3oZyUrmTO6PRyXScB185zeBHKKGMNYU2hkQQFQA+dbcBU/fEAPGb+9EfTTpBXCHRU06ech12UJ2c8HU8V0J7TDJ2T/di+jlo7ZDuBSjDxWab6pjeNmuygDJ3V0zbb4NAFKkYcwMMUL15pqG/7tm8bzCQgsHKunStvcebROoFEmBZpQKFNZJDN40FQpgaU0MW/e6YzjCaPLBbXInx5dUJQN6fxRiMnMQ2x2Hvve41Yi9OsKa9pL+UzMlqu8XSe7GgbYTi8RZeFK56mRKYyZIYa+jD02+p05iygLt6NMuS2uPNU1Tszoj3MnTFHT87TCbLSQSLPYjeddlnDiPTsWttoD9MyI5VnF/Lonu1PRJd9QwohADEMRXQGNaQnjHs5mjwM1dML7dLY933KU56y89H0O485JCwKL+fyyp+P2yR0msr0uqjhL6OYanm33ns7nnByApEP3CdTeqjXy2V+z9DwiYdvTnVgYFPl8aNv9fGd6UlL3XPX/L9gPHW1Q+O7XPZET3nyB+X3QrpKlcfHefn0dW1hKqIbzfAT4eVL5CXXts5xskFOmO235C06gM4rn7wCkx+RsuYRLARQ5ditsqDsNtgzsmcchAkmWnh9FxNzWJFanjIJ7rxeKaKKaKY6OolfutIYtu4oQkgdh5LyNfygRVG5O3xrlDnNyEDKqk8+efg7kkXSCUynyOeXuJTXGR1FezKQyVdIOoSHZj6tm38+wzSEnoCPOuBessorH+S7JjZbGBVNp0zvjBiGZbImf/NX1+SX59qRc8tb6C3vfdfY8enaThK97Ah5Qc7UCR+INmza81QDvxKQgzydAz3kSenD3jYM2EtnZicjY0HL9G0bXfZ0doxjDiIeJzH8Wyn3oEQDAMFqGOcil4iiQbzr4DdjzFuV9yBKR3FP2XhxpL4Omg1yIqheKVr4ksnuEbl0Pos40bsISR+Lu1/4hV8YH0qTm+HVQ4fMOZSE7myjpjfBPXR15BrNKMPpjC4WYyJX64rkTZ6uNbQjoJlO+2ORQz07Gd7ENNKSAd3qR+NgWqcG9KCnY7Js6uUe20kW9kZbtjNqXeMafkxq8Rntkn0Pw77OHghl/9ZTSVHCPLbel6Al9apLAMKIqjqH+SpnEvHNWYdzTwq2XSkPyp8xyzUj/tFznOWrDN4Wid7W9KDone/833XEvc0wIue3g2Rv91u/9VtHNKw+fdkhOuRMlo47bAZmO5BDJIJsob55KBsYJckFaHPS+DpXtmsp++yHdZFjUd+TXyOK1xbwXu4vdHblvqydTzXwnu252VbZT3KPfWx4mMaI4nQShLQbXbfVYd8FKkaI6Fm2fzir3Yx+5KhG2BQ8uM9JNJgphKji20NzSY5kSJod3rSmyOl6pgX4HIToOO5lPPzRNzox0lve8tZ1hH3WiK6MqTNLHh6Z4ogYQV2Y6eExYy955dGHfZKL3pxPADEXhcUe1zrm6Mkb0meT5yaSoTcMvX5NDws7CfCY6WzKfTqQftmEDJtyzPZzzg8FKItv6x82bXawrQ4H7sYgwgkf//jHj2hswWZIFKmK7oRmQALVywhSVOJY7olg5lm2L/VQdDhZCrmHnrLx7nxfUHJdRllp03AdySMSkI+8Hknbt/W3TBnQjoW1hajuVWWy0A/o0RwRPUZHAy3Yix/MstepyWFRbnTx8pxXGvqZOKMm2sri2bkjuurPiO9leK+PffZHZ8882N5uBsjDb9NWpxv4HiZD98hs+mv6aV3lE0ht1v396m9i31ARAQ1tzs05zZ2AkBpTUo5jiCCul4XnMpSamnAM9xn8ruuo6eeZf+M3fmMs1PRS5fFQF10N3Q7CYSDhfgp37chpTB/IlNNq/Ic97GFDDt9Ccgo/T9dClmxkUTf65c175B03z+lSKl9dP/LPEUVz0yWR3nTD1mifElbWIpNd3//+xXGzSbzC5jUabO41B1M2uzKV4ejL+fF1TifwnzvcWtwhswTy3Qed3RSMc2sz7WdHS1ntmX23wZ4lCSBxRD2J4S2uRGLEOQDjS5ieszasozoaRxkNoyGLhBzonHW+Xvm4xz1uvDdiP9tCjdB4iPhoNoXIAKW9kKx7oXzOVQfiQK7JRh8fZDCslb1rDucokUsd+pBfHSMVWcN+vIP6bQHSS3081DNa+hUGHcwTWzzsoLAJXkYAed5/UZ4ch/Fzlz54qe8cP7tJbRrQv7/7etQw66fN2Q/IbCvbm5B8RxvI6/42OLBb2IIz1NvFEIlEi4x+nAOuj5wUMCeIe8rXQ9Vj6PPXjcjhPfDwKqev5HUq23LK60gQ/WM81phOj+HQxt+RN9nR5wjk1Pi9yWgKY0vQmoKD4au8euTmLOq4Rm/GLGOQpzHYhdPF35HDOzdCmM5weDL84i/+4ur1r3/DkM/9pjDL6LJMg/aDclLn7I5P0yMLcPU3ZT8KIPYsP7Bf7cafnHN0yQhrvSMonIizjzl7jTUzAw3vRSqLUo3S07jAoIRQH1NHCR35pfKkBBfVPNq2QyPPoi2nqHzY7xw2r/cDmuTN6fDkiJzc++fkx99C3PYWR0l+0AE4vVHMCAVozkiW8rNJzg3okaMy7dCgbSOAY5vyWUhXxr1+WiR59gM++HJsfIwUgpZ80wB5MOt2JkC3bLIJ90qVcWQHo791lpmGRTf7ubcfrRlXzqAw9xLnCIt2nF2DcBBGVAdjCVxrUPcx1WBFaNc1OuN2zqE8uPFw5dGPfvToqaJ7NBJe2VLXJwLl8UQ33s6BoTzdJbt3YIw4Pr2zWBXJlZPUYVx4/zpKgjyiLMdd2ToHjiVKi6xN5+jFDuh6k8815/ZhiO9arSHsj+uE5GLv6uWom3xmyEe7zumJt2vPObQJeot9z6yj76fDfK/2oocj/W9845uMtaM2MjLLc28bDI0pr4KFUBXN8yxuNHpf3MSUEDUeLMZbfvFLGeflgzwRVSMbujkZITm8PwdpmvTjP/7jo6E1RmXxcq2x8Jo7yzZQts7JcTiAaJ4DOfdluw5nMcfh/bT2j/zIj4xtO+U4CFmzUbxdi7Zkkspb8pfoXT06c3p6VY48fgSp8kbN+9///iOwsIPXqE3vlINsjT/bZxPX5AS00pfN6Suao/PidacmTza89NL9p0SnGunsuInukZW9HIE+zm90oxuOLXCjoJkB7EVnLxzr3guTpRJjmA9xBkOFhgoYSjV8gm0DPKQiuHreLPRimR9Y8qdoRFZ80dZIGnaRbVkkaswaVP42oI+6HJfRQH0y+BLJ9MWaxKLUu+tf93VfN35y23rCuzJ4K5/j53ibWJxo6WAlPA5LZGNv+nh12oM7Q7XFM1tIyqEnCDUVI1MpuEfH2WF0tnPXR3Yn31z+KIOOEt35Abmtbfq2l7O32N8G62nM0vAQcUa1bWiYsCAQXSLIiDPx6mwDfBib06BDAY1hqPW7J5TyYEdk08AaLYdQl/M7h215grrqJatER8YyXeDoEn72c7/+679+jGaGSr/lqCxHQaeOvenw0Q0zr/1S5dgCb/YwpWGLu9zlLuPnQUxpLMjYSTlH7YJ/dOSnIxvpPJVFV2cWsExLlTmbHD5oA3LruAIwnVqPbAuvowxkNGAIjavX9Gg/w0qXB+qjBxkd39ve9uPGVAK8B+GBCyirDEcAZWc5D8IsszoZjMPSzZt0nJqOTa04R52PQS1epRwIkntOMPPquJnwmM8lTinlqE3vbLX563r9qR18585Onzqxuq6TJ/7om4LSj3MoU/2zBfQgL72cm/LZrqWPLePsfxjWzr7rwLvHZcrAgIaNospsIEbseltmyqOj0Ri9yMPx/HFdP1UhonmU7kGLNYP7eClvhKnj1aiHQVn11eUY6JDBWsS83KdsojrIVxZdn9VJ7OC5gF0aHW52dLQkeeXjVwJHdEvz/TlPXfJF2/sf3/u93ztGWPNTD/ZEMW0iSrML3kZAR9EeLfea5wPapmec3TcJ5IznUUe2IK8/LURm8vMBAUmbSHObHJSOzdlddOzv+jSVkIfRbKCcXTlpW6BVlCxpDFFUvvdSvMPstQJ7/BxeHQ0o4ascx1A3JP8myBifOi2ga8rkp0BECjQhJ1LO68ymNOTwuywWsxAdeusA6iZT9pjtQjbnjrOc5VeODSTXnNpw/fCH/3/jlYLf+Z3fGU95vSUZLXJkD5sDztO1bwVAZHffwy2o7c4m9EasxA/8fS6Orh231WW0/NwIHRm7yI5BqCwGH4zB1NUzi7I1mMhECVMKL/o88IEPHH8g2ILVnJUMOh+Zcja/jDUj2ULyyeOU+OQcpgVGFA7F2clEHgvFnEY9Rn3oQx865u9Gmz4Tk5RLfuVnO50IOG/y9YoFeeh6vetdd7xWQEaPyTn8Un7R3Y/IgvKmnuSnx1rrY53Cnj1ntz4Bcn4wbXe6kZ2zjyPZ2dzDMvoa7dyr7Q9Kl3F2cM5oHLAnpyEjOVZn20ZWXkOoi6ZzDaq+iBr6usg+vHdGRHnOqRzFdBToT5EfhOSsTroxlI7METiKcrNu5FLHqGO0MaXwFNJ7/SJ804eMz1Ehm8BMbz6f4UNodSU83UfTkVw9ZZV0en+3Sbn3vW/ZRvXSF9uxi2O6BPKYwggkyyi5yCB/lvWogqxSoyawt7WWo3b0Fdw2OObsEQLnHIJRRT5E5VUmY83X2yLBHesk6MzOgh+H99csdDbTCLsi6rgXv02++zWectHHS/SkH0fmTO5zXPc4jMjvXD4ZzYM98LE96qmyBbTOxz5LFF14OKfbnBecz9cw8naO2aKpGoja5BHV73inO40X1bxi4am2LdHaIH5sMzrKOkVPmfN25vg6yzrnWP5+9joqIB/d2KdziW4FKgHZj7tug+OeoHbOgHNkR1zeZtnNvMNAaA3JIdQThThSdPDRKMp5wKX3iu4cwN9q8mkWqJdMBwFNCb3ozrqZH6MNIiND5uyO7qkvgrp/z3veczwAa3vUVl710gl914fJNiM5W3jSzfUHLl0altwfdatbjWcAdomsH8hAD/fJV0AaEXDNXx00wB47u5u2KRO/E5HxTCB9oPbuGvgmW/d53mG4MgIMM0dvBmcY8yELonoTg7mvgXOghJgN2PleUE80LXrF27Xk2tHfGzXPNGf2KJ0j+FxOZI0/3sG1NCMnnJ1PnfJEzHjrQDm+TpA9HEUQMsv3hFWE9967VxyUQU8HUV85tKUZB9kjuaNVumQ9chg9yMDWt7jFh40Fs4dOF1544fi5D3KTT/nagn2ATGsO430ePOTL20+Wowb60B20kfN0NH2xRQsW3vJL86+fKQv0P7b1ONIouBieYRiQITkaIgzVvNJ9hJwvDBYa8/kmTsTI8aOkx/ke5RvGf/7nf368xI9/Mkhok7fGFO3IkIHk5YDKSOays9zKRFdSBh10QecTTawn/HFfrxV43RRdTifSChLO5WmQGehLByFZJLo7ZktPuAWf7/u+7zv2E3/eKzJK4Y22DiexCTmsa85bH53Th1zKRf9sQe2ULcgusNCFT+5n18rD2tknY66PjMAgCGhwju6+BkdPhMEo4o71nk24N6dtgT+nAfLYOvMBtL92Id+jfLsiNdZsAOU1audkQ8+RDsqiwUE4ziybe5J6kvO5vo6jg/jC3V8a8R6LBav1RPfRRY+dONheupc334v3zH+WI6BreucvXXu6/fznv2CsIeiLPzm0G7rRc8+xfOjeUQcZ0yV7AF2NtO7p6JBukH5z4t+j0GwEjcsxOgYvD5lLVxnUW35g8/gHLMenyzb4Nqg+p9HAPgv0EMhURkRt35uMS2dcHuc7zovHgBaIuAxkm1PZWTb158SoUBnGFuFtffktGg7kx6MsoqPvqB7HjH4ckNnMy5YwGmXNI96bzg7qGuWWvx5+vbGe8VZj0X1NZZRTrzYkE1pkAtfJe3Sx6EHO7NI125iGOrfhsOhdO2XZBdlv1FZhdgzlGRtxURAB1/Z23/72t439WtFTQy/1PChapj2SPAndvZgfBopwqBopRTm9P6xrkehRvwhvh4GM5MFLWYlDq7/pNBLjuG+nybV6i5yLYaKTwzpuljPi+QDFesLOzO///u+Phz9khOx5zAbH6u44unTMPgvfOZFXIr9rqKx8PyfhlWQ/bWJt5bUCNjHt8scK1AM2qOMb9smH3m7bHF3sqH2cD5DYNf04Ox205bDnIfoMZ1eoxgHzPM7WMAEcypzRY3af03F4+7aiCSFE/U2Gzi+PUTmaL+VBI1JKhLdI86sAIqoIz3k5pMTpdQBTH9f4A+PkOG09opUjATnZIT2I7b56OR6aw+jrmxzHG5IWrN77//Vf//XjOvtl6e2mTbvgs02Cpd6yRjF3/+Ef/uHx8M0PPDXazXUEJfxstZI9XRzPFqT7WvmlTdfXth+d881tsKe2jGBhyuHt5+423mow0KMe8pCHjN/yIASGnGB2hoSbG3hb4GXui4ZvJdG36KqxzFXtiviRo+VTttcPJ1dHw5qLKy9PArRydsYR7ezlk7f7aHe96Lz7ICMoRxe83MPPaHO/+91vPACzYPTdLlrprVz6b14HdKO9CfmgHgfX8elFR7r6mOHBD37wCEAWrZ6yuo+WgKE8fQUANCSI7lEGGdlyxrDV+mh0BbqOvJ20H8Y++yZB1xZiiHF2Bl6GwHNHJ/BE0XzXC0oiq4g7Myt9sFCX02kg8iWbRqIYRxTZDeFe5PeHzPwGO8fjADlsjoPeLp3l6Sg6Gl90lj/LPacZaFh/5HSO6nI4UwpzeO+he+IrwpJTmeRw3EywF5+9oBx+9CM/kF8nZgvTKu3m1eVGGDCS6eB9bbUf/aMGYpK19neeDdh1DkzHt9fulLMEezo7cBrOzpERbthjTG+ceUPRVIDDc7TFuEvUmBmE44XZDvjhWzSLBuXI5hVYOzR42ZHwZiD+nNlCmjEkoiSPx+scpQ7s/ixX8sdrvrdguddCD9C64Q1vNEYbb23aKfJRiEi7y/d4e2xeB/mlGckhvw7KNo1WRlxvaZpSXeta1x75dGErzs5+tk0rH62jjUU+8iar85zdsXvptBfcl455+EzQkUF7QIKwBgWNbHrDsCK8xdnTnvZnI6L5SxDKS2iotwix0Ha9DZRFQ8fijCI2ByVTCV33Odf3f//3jx2apz71qeMDblMMUxANyyAZDWY50Ng0knvdz5ibQJdtlFs6uY51zljwfsu3fMuY5ul4nnIKFqAs3tGz5VveNljkXuxCLsEo/XR8Olu426W55S0/crSTe8oLSmzow5A692yHow6ylvjSIv/uJsDSxjOWcpsYT1AXIsuDJOeIaExTFs7MWBgwFKhjoSq6W6B5N8EcXlmN777yHHSps7zW29Abvxm7yizOpAFzDE5tygHKaMhz1w7vnMyGb3/gy3sjP/MzPzNkR4MD4InObBD13W+aVEpH6bIGXDqHfEl5UwO2Iiue8tjMp3XktSXoARiIrGyDL/6mhOoWREL00x1N9pRsEOjoNbI8+jtaz5BbJ0gW1470VIds7KG8/KMONpDYKHmZhX38jDh/ky/4ZiNpLldAGG037qzhwg1HRjIsgiG5d6NzWJXt1GDC0eyOcMif+ImfGPu9GpMQRRzQCBLgsYkhzNTIs/DHpx3nXJ8rf/75yyvI5PCyFrntTtgpyqnVm8EZyGbLTmJMqc64DWZ7oV99svmKxjs9Iq1fGzPqcDZlHUV7aXH6ZatyLww912kT2chxM8356rKNYKUdzNmTeS5/1DHLSyc2lNibDfnhNjjO2VOegTgNh2aoXqXFQKMqh4lzTu7ppsWZz6T6KQr3dBqN6bwItC2S5bI43gFEOxGWA3vg5F1424BeluJkbV3GX91GCnLRT333OMI2QEN5dlKnP24lAdtZOPvxIz/CZLTx0EmEBZ2eXXI89PZKM2Z7OMdrPm4m0F7ui4Dm7Te5yfKn52Eud1TBBuw8yymvh5jajR8asbbBsXdjQg6ht3B2BN2vAZxnRJBnCPX9qLfybLtxeA6nDIdHU53Kd5Tit4nk2ivNDQzqO7cl6SUpOxP+0rTP7t74xjcc4xEfr7ySS1TndOhJ2zp7YOil7iJT0waymLff7nafOB7ri6qeCRglnefsOqC0LdK5lB0cg2tIX4mza8cb3nD5g2LsAZU9G3C8rLt6aTN+ug2Gs0OGyTFESo3i0yfzTfkIa9AaSGOr757GfcADHjB2SCxW/SyG3Qhlqzcvytb/xnlJHnREd680N7AjmJKQ1bUtyW//9m8f33D6vXXvrXgFNEdU76o7o5K3FkV5iYzk2Abxn/VHG42uJb8UbAHNLt7M85aiPfBllNldx8x8F9vspr2Ax266bGQHNMmIvg6GlhHH/YNoHy3s6pTMzmt760Zoyn0YRkhQcSYMnJ2DWPTZt8WgRSMDFt1FKI1OEA7kN2Ds0vjrEn7oZ5mb9nsryy4N7LAZ13Njx38bJC/aZCCT3k6uRz3qUeP8ggsuWEf5vz4mH0djHA6uM5rGdI9e2yLegGZ15eG/PhtyGfV852qq14fkAsh73uMj82Wu2Y4NOfZKEK8Ziww7FxPUydn7+QxrG/LALPtRBhHpQFb60Ms5PeRzdvnbOvv4rceM5hhxRxHRVMAP9HuIJHpmfMAo5iWNbjrhQYuGNVW42c2W3+TjFDpQPGqUmS90by+UX91GDo4NnJ7z6IR+gEljew6go3p5S77FK7k4m9+J0bHrtMlwEOKbzNWZ9bKfD67Nl/ExQnJ4D+puf/tPWtNZfo8xp1/qjbNxDdEvhfl8EwudZaSxVvA54c1vfrOxpiF7bXC2gK6znwD9POMR4LzX3l/0hv3sdM6P/uiPDmffhDxOY5EnMnDgXrxhLIZ0Xt0WX/I5j0WDo/m7TqKziHLKJzBBKQHquVdDRRfm800oqy46jpyWfNC+spHJ1Iqz04Gzm8IY3j35NOfbdNyDgCfZk1ma65PFfXZzJBN7sIF7plZGFDbFO9l3qC//79hgph/cA/mb6B7g7xVkenrY5LuA7LVX3aMI6hCVjbKFc8mrEXzLQ07BJMy6zedjzs4AJeicc5pzeueDgwSMalyY62pc+RrSn3zvJSkLNMN3DlDqGk00hiI7tCAe83FOOcns5E3B3LMrYsEK9r2XXw1epmD++rWI7zz5t0F81SE7zPZwdF2esuQRfT5jvYD28bQnrMsCevnif0aynIhMm8BXANLJjVjWMMl1toD+8wgJ/CPfoR/dtl6g7hx3CO8aWRKNPJHz6qrpQA2H0VyeAXM2zivf0OytQl/lm1NZLJrHGy3Uz8mDOsfy1ud4pWAoT8qZcnbn0WAQRjClssWow9otMqQbad70pjcO+XS+1h/pMkPenN85/nWs3pWZQRb8RR12iceY4t385mNdY89bhN/8ixtSfLseAWCDxyY277sWoExF6eovp6BJNkiXswF0YQfINlLrM1PkGcfK7JyHoTlCKmUIR07E2T0Ygea5yoqGGs8c1NwVQdccDWPGxQMdRvakVaP7Kv6iiy4a5ZUFtJTnPHqq/BxpGygvjU6yBp7RJwuHs36wLerJpqHPXI8eHEHncy5tOgw6c57z+RovT/LqcJuovnJ04uymFBxdEMCTw/t5PXZ0HS2jmzrqquc+oKlc54CH+8nmvjo6kkDTX8urruNO1SON9ORnM/gSu1iLCBTzNBRqJx+eO2anA8e0jOOjZ4uqPjDmIIgzoMbhWJzKufJLR7h4zEuVt4DwwpYHLN5jMZVQTp34ENo15z8RoHNYKqr6Mv8+97nP6FR+YcvC0ZQHbwal02wcUD8cc8R1mW2gHCeklyPddDx8vEfjx480lCDgQZzRk0zk9QkZmcmiHseXP8uDvjxlWlw7l69TmSoJNtYq3QOyHNU/MzMjefOrdNdW1mE6MvvRfRsc6uxgCmCbx06CPI1XT3IsVb7rYFFo98HP2pk/P/KRjxwRbfkdk2VxS+CcowY8LEFGOCiRhcymNF5g88EDXiL7y1/+iuFUnEledaKNz2bU7P5hUK4O4ksutMhSpNb5fVrnbUQfftgMkK9O9QoY6iXPgkWGaErKsZ3go9N4L8e77tYKymXXjmcDyJktnEv8pZ8CNFXedPbaqBQOdXaP2713wuiiO4NyDEQYdS9h3FPGcNP5da5z7eFk3/iN3zjqcXa/1KtRohmNE0EKHZQ4Ahk1sodOtlJ9+EGOpz/9z0eUUI4czcFnOdTzSaL8aG4D5dLLdAfQIo8GErGtiWwJisS+NMrhc8jjeB2TkRzH2xuqI/J5dYN+9OUUzt2HbeU/Cpj1cw5N0Ti6XZj8L1R+U88DnV1hb+cxmHOR2BSm4TWn0HgzErChFZQVXe2OmDtbXHikL7ISVgMryzk2O89eKaizTQJyk8m0zGN8kdX83cLVFALd979/91ta19WXvxf/g1Bd9mmHKDsY7cAw7ENyL7GZdggCHuRlDx1C/cF3XVd+jjvLU1KHbX2PaqvRdmcdPcw2PhtAr+BcZ/bshKNLdN7EXnmHOns/sGPPGhNf4DS0chyGSxjXznOW2cBouKeeoVuy7Xbhhb87nFBHMjzVgYLzzTQD3cMSZyFnMllriKj3ve99RyT1Fzb8whckO1k4lrrtNKFFvlmvg0DWnBLQQCs9dAC8OLRfDDbqeRD3lKc8ZfBRXsTPJslPLjZz7Z5r+WSVfKYokHhPSFSfedNBO51Nzp69swH/44ccXWeeMbd7KRzo7MOQa6MyoEfejOqLIFFpt8Fz4qVBGREDdWuk8jWqpKH87oq3AjWMH/1R1oKDMqY2m8KiE60wK7INRFSLUQ7ECTxQIo9O570VunGIoilZ6IxPeknubYPK6zhSjk9/0RdtHY/e6HtV2vcBOqA/jExWHaKOx0mlOgwkCz51DhsJXrU2iiqLr3vKorNpx6MMss7Ozm70MyJa5LfLBNl7rwQH/jn3GDEwonqTRap9a0ZkQK//Vo4xZwaz4yvjfmUcbTlyLC9JcXqdyCKSU6q7F6rrCCl6EPBvCpNM6snz0TijmZ7ZXnXeh9jKqIvfXvptg3jFF9CR0K4hycaxRSrz7f74gKmIe8oDWmTTEdF0D91kNH0xn+XUdsBsH6d39ZNjWx3OJMhL19rDW7UexvEdmw3Ld7X00Cajyr440NkzhkbhlHYvRB1TDn+FTd4MBiUQ5BigPrh2v4apd3Jufz9IJOPsFh6zUwbXc9oWaORYOY53oj2d41AZ033PAWyVirZ+RRcf5XMu53Ci/Oe6sHlOLuVMF51bQ+iI3pXXAdiKDjqoQEOe6mUPIyI7empqB81UTQcCdbN9Nj0RHc4UyKpdcna7MHT03YJAIAh7xRoO0ofKuxafgGgGYRyGdW1YxMC8UhRk+Bx5joTVd15DSPIIntMR1OLXlAZte82+zDdMKaM8zPVnbF7vBzpwEPKiWx7+dmbMAc3/7NCQgTHtPOkM9FI2J0lfcL2NDNkkPVzXgDq6ozw8HC1YTWcEgic+8bdHlO/hl3rRg1kmD1lEdvA3mUS/ApA2VHcvOx5lkJVdyE4Hwcm0008P6sh0p9NhUOQyzo54BjQUmi82hxXxTGFEEE5hyw7cA3Wc12gWtI4ZvAbmXBne0X0/FGpP2I6EX9cyeszzy5yk6+QE9+YEys7lyWSahBe6Hnrhbd5u2qAjeOhkp+ixj33s+ImQ8tHklOoxOER/kw8km1RdfMG1jq7zZTfl0AZzbjx8F/A93/M9Y7TzMtcS5Zff83E/O9Ph4ouXD92tO7TXXe/66aOjuI+20QFPMpC1ukcd2Zb/sUsP3djQu1dsSD+o3Q/CZaYxVXJkEEZi3IhmLF/Om8qIiDlsjVsC+c6r73+/F54ju68+wXtZyVClB3N+zqbBlaX0Jn2Yz2eUry4d8Ewn/Bzd03Fd+3aUk8mzBejoWj1JeSn+OU3Xykvx7XgYqieRAy+Na+QxHTHamZqI1F5bzmnrePjoDH5dYfl5ka8ZdcOa7DEk67aynUmwbX61lnz1mte8ejx91wYeTtKRHvnkYdhzzj4bYybkmKNYJHgr0tM/EVN5TjvXha4ltD6wbqAcRnlJ5INrXnN5x8ELWt4Xwcd8VTSLt+E8PgwBzmcsxlnQPXVAHan8Hj33RZYHPDqwRbP9bqMQB8I7w0vqz3zLj/c2xt8E+pwcmhbaNXJuWkUetmi7DX91BANTS4HBRyKmhOrMSN45nQ1gA9Gc/Y22pmk+DhJo+U02Z4fDcOAClXMW0RBkoBzFnF0D6F39KLwyM+ZrdVyjx4kNrSITJ2zu5e8EUUAEQ9/j7jpUQ1l0yIHGJk/Y5FvigJL7kjx8OYadJit9zuLv4/tjCJyLcS1WRX12IK866kK0Zp54dH8bVJZt0MYnm5PNgp1D2wkjk8f/7M6OHFz+E57whOEEpmUWuXPjR38+noh8Zwr05yNsIiB5dmDr0avj7ZiFbYLLvs6OESaYZZgcxTUnNNRrfJFk3pmpriNkXEkeIZGM1nK9/EoAOt7SMyfzSvBb3vLW0Rk0IFmK8gsWueIDzufr+KojkUsCDiFxZotiOzGcCH/OrZxOYIGoQxvByCofzXSMX7xKJwI0OK7Onn5LUFievpLRfNyUS+fX2PKsK8zVObxFrbbQUXb5L8dZng9GvjMB9tXmgl8/KeilNhsabJMe2+pzGWffbDxEDSM5JHAIw6upjOHfdqH5dQ6lfg5VHUf3oqOTcDQNQyHQqK6V06Dm8OahnNDbex7vo6uMo18gQy8Q2w7KrANa+CVHciWr/CKkkcpaxEJVvghqyuBPqnMm82ULv3TYtNUy2iyO2r34HoTKkoNdskd8XNt61NCCgFFPUOAE5vJeIrvf/e4/PpTRNmglB/ZozGnJP1yuMw1txR5racefCRXovFZxs5vd/Jgu2S59D8KBkR0QYXRHzCNcnn13jiCitOuQIO5LUB7UmN2XDOGOnE6Ex0uHQtcXRT7+0NA6gXJokCV+M+THP74SwyW/eiDPPYbE27ajqN7UyQhmavOYxzxm3CfTIsNl9ZQAj9lWhwENoDe7FrXoqD46cLWrXX3d0DcdI4/kQZz38/1hNb+o0NA+t8F+6WwAOdnkwgsvHFNaT/E9dfe+VnbJNtvY+TLOjsFCYDGIc8aLqKPhVIOI6F79NQXArPl2w2hJnfk8x57vFXGdqy+hxwnxN5+2BWdfXH4dJseQZrjGIz6A15znGh0On8wenHkCaVFqNMGb04vwfvdFVKX3da+7vMi1Sa8OxX4z74OgvISXt0x9iM0ero/vNIvt2MResxHHV2R+oMrevJFRnWTZhvdRBh1M0x7xiEeMTxm96yPg0REKVNvaed/IPlfm3K4bVjWAoyGTk5jmeF2XE4h8HH5pnN2GXBp/l6b63auBJPW6Bjzt0rg2ZFuocHANjn8yVR6ikxHiUz75c6ZFtqUOuhxGJPERL2dXno6mVCKpeaNnAO6rM8tax4kPfbt3EMhAHnySLdrJLTnn7PabfU9remdq59eDrSfwnHEY72gfVbCzLVWd2ntDHiSxEbmz82z/w7Cns6tcQthQwhE4FoM6NsRe//o3WEfaq463Bjm9oZTTFylhMepCV0Oq7yh/cYrjHdM9yoB8w5YFql7tDUUNbofC/JmyZFl4LDKrH71oSsoC2smhXPmNVqZM8jiQiK5TuUcG83qdTp5rUR8PNPEA5xw9uoehemTJrmQrb4aplAWpV5N9Muk3JQWYnCCk+0E47P7pgHaAZKGDc0fTY6M5W/vwR/DJb9iJzpv2OQj7RnZAVMPNw2NwnaP4WTWvEfijAMpyQguqXYffdTqNpSHViwbESznJec7IuZU1TzVq9OG2RTE+plKUj579ckcJXXAvOM+ZQJnkwwsf0YT8tvO6x7ntwXP4hz3sYavPXc8fzd/df/9aXo6vjoikUUy33NsGyknJHdgh0MuU0V8bIZd38q0vyKxO9orW2QCyw/K3S3d9QP5znvO3qyc84YLVAx/4wNGxc26BB7Sjdqn9DsOhzq7RMl4EYwCy5GtoAvnZO08/bfprdNtjzUEJutsBloYsKrsnQbTnozocXeMaafoLdeZxpjQ6mTJoMgKDoFckiPaMTT7qq2dRalcGH+eiffKRwagi3+eFOrbOcbW1Y8ebLTjefnw3MdtD+fTg3NlLvhHF37OSZ8eIvc87b/npP3Lbg/6ATrbjDEcV2oQzs8+uwy5+Rmd51k3Pfe4/jpkCXY1e8rNF/hSy4UE4IWcPOccMjAnEQTx9tNDzOZ/6Gr5IKrJzcEBzVsDRPako5f58j7MxgDx8XvSiF68XZ3cc+Qwo+bk9zuIhFFk5x16Y9UhX9dG6eG10L1bZCbIodo8saOnAZLBY9dCJsxnZgMMpk8yOhyHeoLzrggBajl6hMHWxK9H8lb2XnQnv+ywjplcx4n2UQb6CQzqzvTxPrQVN6yN/7NnnnAJImOuGbfQ90NlhLcNamOMjO3RevqRhRDwraB8P9ApvzkYhUJaCObp8qXPHnL2OoSwF3ceDs+k4z372s0beta99nWMLVt97queDEu/bbza+8mE+53CSKHn+2uFtq3IyvI0oyeZ+Ed4Cir5GFm9wajD8SvGd+WyCXk3vlCeD8jmCRbmHKkYyC2PzV9On7IpncuUAs75HEXQk42yXgpw/+elBHvv6CRTTR+WqAzm769JhONTZ9yK217VGIYAhnxCirgayT87p3SewKOgYDSkndq5uSoBhzT1GkHImfCwgTZXw8WdeGIcTKB8vZWcjgXthPlfmyjv88WJ8OzCeFNv6Qi/5JAtm8nk5qffgdcJ44R3ik2wlsuFjxwv9bKEuHnZerFFsABhR7n3vew++5APl1dX58FXXcdb3qCG96ac9gbzO2fvxj3/88BlrElvAm+Wg+uy0ra4HOntG2y9VJhj6RReNQSFCc4a+cK+eqU5Oq9EILX9dZX08nqbGhJRqWFefQTzwMbT7ALfphHLozs4WTXXDfH4M6zz1LIAtRsnttWPTGdt8dp+sQfCimzy7UPhzeO/E2ypdExqyL3rtOnrHOWk4RzTxdU1Pw7mOZkHKpn5JjH46h0TO7FLnVNf1rPtRQ/Jpw5wWPDuwyeHa9MUHGuzAjpI6lWWv/GZbHBrZD0KMCEwYQzHhHEVdPdMPAFlMakhRXrldgRfnTmhf8NfwjimnIV1zrpy4OsqKujqQRaVpByNxwOrOBtnvfMa73uXnpK8+oqUhlEM/7nGPGzrc9KY3GXnkoWudWUT3DaudGp3EyAM5HTn3OgI50Wa35qYeohnONb6GN083cqiXjUFwwYNdwbm0n25HAXSQtI0EXnDz7MAoZvSyTmJ/dp59oXaHbLitrpfL2WFmmGNJGsQ81vag7TJ7pqJW24fui5AabflEbndOFp2u5xTcE8nU41jm8SIDZ+c43mtxdF/K6WChs9DapC+9613/O+o6V5cDujaPZGw6FUXJaoTRuenlNVQO2C7O3Dj7HQOHlcdWHN3vUnJ081aOTgYQEfElGznUwUfHc862RxlkZDtTULIawTzbeNKTnjReZvOuOnumG13n9qsz099R2gZbOzvCMBOWV0qYTeaePHIWc0/DvB0Miph/aqDFYZa5l3NH+YEDpJT8zoM59jpzOBxnYzjvwutoIrAj7Mq11J1IHAPaRUgGJo/EybyEpSNZiwDnI2uRlY4W4+ac9OSQ1g8cfpf38fbbzVsaT8e3CPUqq50gtvMqgI7b1qqUs1c/25E/zDY8aiArR2brRmRrErbyVw97WFhb6xCOyucjrp1rz/nJ/EHYytlnIyK+Y+OBBCIAYTKyvHYHvC1oL5wj6MG2BEU+Tp+zUIgBIEUdi6Acoj9khrYUL40PRg108fAz2Z5+crgiIqgHs07lkZ/D2dXBM8NyZLLiZ6uxn6mQ5z5ajuqZwuBtNENXJ2mUQK+ysCvLpaOTWnvYcrMLhL45Oh0q76iO5Jw8nB7YAB/06XEmo/vihLv6Abm6dp+M7Kpze4BnVPLbl9Ym9EhX6Dxnr91B/sznIGzl7BFc0k7mGq4JIgEh5rJAOEmjeQji3MJVI3EMnUDv5vTuQQ2JBiM5j4cyGY7yjCSid080t7/vyx1bdpzfnLo6jlJ0YKYtMXYdSJ1LLlnWIh5X6wwivHeBPDiTn9MpS08NZo9YGXXoiQdZdV708ZHn6CGcLUx/VQ99Hyfc8573HKOfOjkufdWR8ArO408W5ef7lxfZLMy05/xAh7n9JHp27ShpH3/V0HTG54d+GsNai33oKvELUI/e6IZZjvl8P1zuOft+iPlsDE5p+Ldn7VVabxGafthhoDAl9fZen+UYGY3ijKgha2yp615WQ0OEtcCxODb/NSxaQCrLsRjetABtdTm2vBxFHufJaawt8HdtpHDuV7voZtRCm1NqPDrqYOSQNFbRWX15QBd8jXYeFvn7U95cNG3xUTtHD+qSbW7og5BtThaitxfdzXw2YTsys6kEZO9cWbZ69KMfPfT363DWJWyn/cEv0bHXNpj5H4RT5ux7gcIcUeNrTNt55mp2MHQAyjEIJxDtOcZsLAas8+gIUj1eYmSOaEogwtt3x0PUxHN54rj74EUdnaS68hmN40bXtXN0ldFJjEbkJ7v5ubxGD/TVcV+EF9XJIj+Z0RHB7N7okEYKH15ocPN0etfRycAGaG/ToKDctmVPNtjJRkQOT46ObG0Ka7pmdDcd9H663TN2oiPbD9nX57CNHspsU+4UOfsu41kI5xTXkIb3pjAWY7bafPWkoTkHxTWyOjmneuq7BynJwF1DjsnZRVBTCg9+ROEcPvrLNGHpADmU+jWQ1Hl8ddielpJdZ1VHHtrORSh60NF1dY1gPq3zBZZ3Xejrx4xEN1uc84Lau+2OXS/nhyfFqneykPzgvDSj6wIUu0nABtraOy9GMm1tBOPs1jXaq05dJ190Vv94/TbTtvqedGdfBDyeeecdTSVMX0xpOCAjeChjSNPzKctZKF+EYCyJMwXTHStxncC9JW/5iERdyZQCPQ9nOKcph4VlxoV+wg9qHPflKaO+a/XxcU1+TirPolWHspuAthEqOurrUN6ZoR9H94qu6EZ/83M/aloHB7zwWLvPyEMreottD05LuZ2Tk4DssNexBHiSWxuxizLJ4c1UIyxHtyNnju49fCOuOtFU17V6u+l4/TYTxOcgnFRn32Q4X8/nIiPlOIFI5imotxc5vd8o9yNJpgGiv3IMp7HlLcov22+iNugYyuX07jOahL7phN2NH/zBHxzObtcGLU5Vw6i/ONhuZ0XPPef4u1bHtaHaHNO0w2jhoQjZjSYaUDnTKeV0PkO2B1P+4odO8WM/9mNjD916Ao941VE0vDxH1+ST8N4G25bbFpvOXdoEvlLBST3tzNEf+tCHDltYfPvETiAytaG3csqjqR3onr23wTb6XmlN/LISnwJgwznNVSnpWiKkxqQ0o3hb0lzYbgpFfUluiOdUhjRPWUV/91rMMAoDZTjRNSMvi93V2Oc3hMqzby3hTxZ11Eczp9Mo7qMj332d0VEigw4D+HJmD0XMwX/gB35gPD3muBrZ1pr7dm9EcSOCkQGPHJkdHIGdyKEjouEemdyXd7qB72YKi5MtASKHpZcjma2ZPBX96Z/+6dW97nWv8RIb2yvLjrUhmjl2gUUe/U8WTpuzQwagqKOGS1mOxEjyPQk1NbD4MydWz3zYCOB1T/Pgoh9jo+NaOUYChuQ0OSrndK0zifamDfIZs0YC12j4UVNTJObBY3Y4UL58WRdf/J6xP25U8l0oOvQxR/c6g6eutl4txPHGEx9ykwPdGjnaZE+v7ktnAvhvJkgeRzpJ2dTU1JdGPgjXyf0A1Xj3f2ckVkagUF5e9mSzq6zzrn61q6/pnrwR6rQ6O2DH6URYjczxKMgZKQ0alyEsWj2i5/Tm+cqJplbujGZ6YhrAeRh7MaC0OMvsTOihy2E5kSSvSFkn7Dp6aMjfdDz0ndND5/Rktd0ljWwkUce05kEPetDY+zeKhGXUWWRzhEX+3UV5OshXRpJ3JkCGzQTkmeUiL909LPJwj22sTTww6sGcutpJFXYoMNBdauRu5DtZOCPODkVJyjAAI82Gc48zSRY0ogPj2aZjCI4uSpofc3zzYM7EoObS1cVOdMCj+XOOLqpYP+CnrDz83Y8/OcnW6OHcXFyDSn7E6XWve+3omDqkPFMUQB9fUc00rCe86DeSLU7NkZeRI3tkA3mzXRxPJmoPtPcDu7BFvKsD1XOffY1uHN0DNXmeHViEa5d0yLb0ZIto4ENfzh8PZU4WTquzp+RhoDSnYgjlXVOac4B5sNduJbsaHN5UwaLHfrVoz4DqOTLynNCaDa+cozQ3RvlAHhFHshi1R65BRS787BXf/e53Hwtho4+1witf+S+rCy64YER6MirjJSedVOeZI1g8ITkh/h1zDJjPZ1R2E5vl51Ewe4SZLwcUgY3Cs/Mp777Or6N7SGiRbo7uHRcvdVmn+EuBPsrviyp1asvTidPu7BxoG9TYUD3OIF/EtNB1dM8eupeJzPONAsqKJHZzjAB2SxjXXJ/TeQoqb3HKJVprUFHZFqKGFaXMHW2ZlVwXkQ3NpibWED2dRctI4RxN0zUO7Smu7UZTHPf8RQyOwHHIn7PlSDmde2jQR6dQF3xneukHdOTjOwbUQeXNzhuypeR+MpBXHXxckxtvujbHltgG0teTUG9nem7A9jqzvw1lpDXCqo8X2xnVmibuJdupxml39hNhV6MEzs5IGgSixRHNlxlehLGnrTNoGHU4suiT80nuaWDQaBq9DqEhnWsYqQYX2Rx1kqZPOo36TTea7qBPduXxfv3r37B2+ovGSCTJtzOhw/T0kFzkwN9x1j3nUA59x9lhlHVdXkf5jVLy1JWCc/eypbJSTk8vZcgruKAh36eIOq9XmtnRaCWKW4j3d2YleqjDBuhk1zOBMzZnPwwZmsEYqQgENSR0XiPk2JxdEok5kTzH8kVuzq9O9HuVQYNwbJHJUeLgkjyNVSNKOdMsY0eO69x9zmIK5AGXKZDRR4fxYM3TUyMRXuQB9DiduhzK0XW8A/pS8pTnXB0pedCW3/Vcfu4U+DSqdJ8MgorRzyhqfo6eP7XpaWg/d6Gj6xzZQ0KT/dnOvTOB0+7sJ4KcvUYPRZ8aJdSI7tWozuUpt5eq1Vlu5QDqjtNxbzT4OuOcHZqhaF4qD5J5ob0M/2TiDJyIs3tv3TalcpzdIrZFtmmAUWNxDLsyu/vs6DiHmXeydk856H5QpnIS/q6zKdldNzoaLTm2++T1zMA9Udzi20fg5FRHfSMtPeiqg0juo4W2/DOBI+3sMxJzbjh5NdCcgnuiiWNPbWtk4Awaunrdn2nMWPKVXXi7RltyrSGl6qMlyTOyyNfQjvLxFulNBXyZ5D14jm5qYzGrA3AaUysRX/nAgYAO6IO8AkRl8Sp1XSdQvmibA16y7ojvWo969OHkoriPYeyEGQ0txr1R6p0Wf6LfT3lEHz0dmayQnaEy5Tk/3TiSzq6xGC7HyKFAI25GNsixXLs/58NcZ8ZCX93dkWIuF53gHtlEqbYtK+84kvNJlhyKU5KHLnTjGKY2juih6+Ww5z3v+WvHf+lYg3B023feJRFB1TPNmjtVfHPirmcoWwqVkydS4+ejE7tdXsE2Lze6eOLrgZAXtnQ+0zlyZG/neJfkWZDKN+3Dg4613SzD6cSRdPYaYa/GYyhpjqauu++oETiO+u475vQz1HNvpj/zhLlhol0ja7zozuWgsuSMpmP8lOcAkA6isujpKS9H82agoyRPh+A8pji9UanDtaaQb2SQLwEZ8DGycEAOLbWIF73Rdw/QQ8eOlZ0sR7tNjmjqtGTNDukkj170pY9jNtEWbJWe5Z9unDXTGCBqjtI5Q+dwziEnU27uDFLI6N0LrvdDNCqPdrxBvjzIGST5OUX1NT4nlOccOEUykV/Ut51nnmz70nn1w6xDyXU0Q/eSZ5ZNUv4aa0e/wTqSc/J5wQzkCfGcscig3O7LcqCepJM4ZoczgSPr7Ik1G3V2nDmfk8AHa0g0JTRnuvuBHBquRlU32XKynIM8nFZjA1mVdd0C13AfX/ckiJY66BWhRWOR3tG1HSeRWZ5nBc7lgc5n2lPEFqVNTUTpRgNbn6Yn7aDMdqQTkI8MrivjPD17Cgxz3dme9HWvgHC6cVZF9rMdOfKccp46w8nC7GQHQTkyLImD7kb+XEOZbRx023JnClc4+ylETrMX3JudqWh4svDBOvtasun6xOQ7FXqcTFzh7KcQTLs7zC/Ot3kMJ7sZNulvC3IkS0e0tqV3hbN/iIJpe5UVTpejwzbOuclXnc0819s6OpxI2dONK5z9DOFUm31bp0uOo+ykJwtHd8z5EMKZDDec/EPB0eGKyH4FPmRwRWQ/xRBLrognRwGr1f8DZ4QJJGByq28AAAAASUVORK5CYII=;fontFamily=Architects Daughter;fontSource=https%3A%2F%2Ffonts.googleapis.com%2Fcss%3Ffamily%3DArchitects%2BDaughter;fontSize=16;fontStyle=1;align=left;" vertex="1" parent="1">
          <mxGeometry x="235.5" y="331" width="187" height="148" as="geometry" />
        </mxCell>
        <mxCell id="NrACzrblmRAF2PJDY66M-5" value="Outer:&#xa;KStream-KStream&#xa;KTable-KTable&#xa;" style="shape=image;verticalLabelPosition=bottom;labelBackgroundColor=default;verticalAlign=top;aspect=fixed;imageAspect=0;image=data:image/png,iVBORw0KGgoAAAANSUhEUgAAALIAAACDCAYAAAAprEFgAAAAAXNSR0IArs4c6QAAAARnQU1BAACxjwv8YQUAAAAJcEhZcwAADsMAAA7DAcdvqGQAAGFKSURBVHhe7d0HsDZJVfDxh13iArILS1iymBWzYs6KOWBOiKuWWkqZQ6kICqJWKQaUMqEigiKIAVHMYgQRMAdQTIARREFgWYLf/Hru/729s8+993ndJVj1ndremelwcp8+3TPPfa/zPwvsXkcAK4ewU78LLrhg94pXvGL38pe/fBT3V1555e6lL33p7sUvfvHuZS972ahz/e///u/Rdp3rXGd33eted3eDG9xgd+GFF557vuENbzjqLrroot2Nb3zjUdRpQyeacwngUML3/+E1D69TjvyqV71qFMB5AizmIDku5+Sw//Vf/7V70YteNByXs7r/z//8z3H/H//xH7t/+7d/G9eXvOQlo+6Vr3zlcFCOyvHATW5yk90tb3nL3c1vfvPd7W9/+90d7nCH3a1vfevdzW52s931r3/9c06veObcW0e+4IILl7I69Fkwy7O9D2Y81R+CewuGnjZspn8aHNrvtQWvMUdGhhPNUWuu48Cc84qlXLC03/SmNx31HFcfzgSe/exn7/7sz/5s9wd/8Ae73/3d3939zd/8zWi71a1utbvkkkvGGA542WWX7e50pzvtbnGLWwznfp/3eZ/FkTn7i0b/13u919v98z//82hTXvCCF4znv/7rv9793d/93e55z3ve4O82t7nN7h3e4R12b/mWb7l7/dd//eHkd7nLXQYv+FpUuNBcJ91WleRsYrpX9Lniiit217ve9cZk1W5iALIqQDtZ0lH9muDq1bnOOg1qU6I9B4fAKmV8q048zfx6VrQpW1qvC/AadWTKEE0pglEocFaSPgyZckU/kfZZz3rW7vd///d3f/EXfzGcTTTlTKImR+OURc0iaJFTxH7yk5+8e/d3f/fh3KIxHkTpiy++ePBSOqKMybQ4miKC/8u//Mvuuc997ugPF17RvNvd7rZ7m7d5m4GT0yVTsir46R5NV/ThyBnUeQbqqp/vw0FHM6gD9YNnX79Au0nROIDnmR9yS6+C6oPt8+sKXGNHPmz0cWTgqK4pJGfmTK6K6PiMZzxjRFuOxJn1F6UV0feOd7zjSAOkBBzJODQ4MUNyHEaTWjzucY8bEfbud7/77q3f+q0HLqmGCTDzkpEZVx2ejPunf/qngeff//3fd89//vN3L3zhCwd+dK0CeHnzN3/zsQLc6EY3GmPhqczPxriC6tDFM13Ut8isrkle0UdZzAfLuXpQW1G8/nC41g+4lQ6py/nJJQiAxq8TUv/jiVL/8K38vPbgGjnyoUP1oxTGYUhKKPJSGkXJa0W+f/zHfxzX5zznOcOJ9Lnkkpsv0e+td2//9m8/IqCIkSIzDsMB+DznCNKGJz3pSbtHP/rRuzd7szfbve/7vu/urne967nIDDJMePY5D/7158R4fPrTnz5WCpPMCiFKv+EbvtFS3mDwaJLAYxxcGfrqzrTin+kB4wAcjanNcwXoq3iGB+TI1cPTBFUHlZSIfrXBbUyrSvzoW7v72rb8Rve1BdfYkQ8ZTnkci7OKqJzNEs4JKIkC5aVSAE4n8slLP+ADPmD3Fm/xFsNRTABKtvTBJ/JyLHWUqA4v8xVefVwf//jH737+539+cbQ33H3WZ33WkpbcZuHhisFLfcMFGA3PxmvH54UXal8dQZuo/g//8A+D51/+5V8eON72bd92947v+I67N3mTNxnOjXeQruBSZkeIZqsSPpqQ6KMFd/318azUVp32lde1wA1f+osWHtBAU73rFVe8bNn43njgmPuC+R6gFz/JczaQ/ej2WobXmCMrhO/eOEayVP/czz1+9/CH/8hYlj/90z9994Ef+IHjPqOWV3L88l84AsZkCIbUPwOaLFde+fIlF77ZiMzf/d3fPTaJb/VWb7W7973vPXCJ7sYkC1xoATiucx1llXV9vs7gm2N0L7eGH+4nPOEJu2c+85ljk/mhH/qhYzLK5fGMvyIgmnJwEd7kxof69APwD6/0yt7AWM9WquqkPHCY4Hg3Fp/owYuPyy677ZL+3GGkYk5mbnvb2+4uvfSWi0yvGhtjfBmHfnKipXhWzx7qgf5489wKexi8DjtyRj8N9FEI7ErplmeR7Bd+4RfG8dd7vud77t7u7d5uRDE5MAUVbSjZs7EU6DlnxsN6Rek4OnAw/XNqNBn/F3/xF3e/+Zu/uXvXd33X3Ud/9EePNEAffQF6qcS4eFavX3wAdfHHMW0Gn/vcf1rorKcfv/Zrvzby5g/6oA8aG0PpRhNNX2M5MFnUcVB7A2nLn/7pn44NJlomnMhuQtOVMe4rnjkaHHiHl/xk7tjRBBAI6M/KqI2epVlWqTd4gzfY3e52txu4yANHcoZTPRqu2tzTT33OAuOUVwdcY0cm4CGgLyH+8i//cveUpzxlbOQoVdR40zd90907v/M7j4hBMQlLWYqxHMBZ7Stese7+LfPpRP94USgYZIgmBdyipagpFbjXve61e4/3eI+xYTRujvTR9Rx+4B4vHGVu11+dNhHaMeEf//EfD3k9mzDSDqcdZOZInXVzXo7vHg7857xKjnqDGzj/vujcMyd2XdvWUxs8xUuOzIkV9NSJ4J71M6H0JT8cToM49Ru90RuNaE53QDvc2acyrwJnQWNeHXCNHJkilLOAsIzk/JdxGZnTyH/f+73feyx1FIEVxlBmR0lJlOle+1Yh+CiCh0OdZwa3TALj/vZv/3b34Ac/eND44A/+4JHTWmL1m8e56r9OojUy4ylHVqe9/miQSx/t+kk3fuM3fmOcfJgwnNlJB16dzqi3ubUvQN8JiE2pwvk5Mp62uvAczPdAP0Xt/xzxvC14tQKwCX3I9fFjkl166aWDdoV98B4fSrKTE5D1LIivVwdcM0dehr5qMWDOMwOGGViRy/3O7/zO7od/+IeHw3zUR33U7v3e7/2GkoqU+q/O4wjt+iNyYI2CRAXtoof7ok9Agq1+0A3gEY2MK8LAf/nllw8e5LJWhIsuuvEy7ni3n8EykntFW/QZEt8cuOcMJupJJ0xizvwzP/MzI/pyTvTx4gWLiSS1EgnpJxrxgJaCDrxAffzNfbWr0z8+gvrNRTRf9f6qkXJIa2y6TUB1JpQjS5tvub7+8MObzAH6YKY5w5afaxOucWrBcBxMlPGsMDxhLalm+c/+7M/ufvqnf3pE30/4hE8YCmHEnCpnIGQGyHlScpHO5o0utkrcByaJyJPBcgaTxemDN4MPe9jDBu+f+ZmfOYyGX0s3/Poan7HxRS78aoe30uZHwXv8Gsd5f/VXf3XZ1P7c2BdwVrQ+5VM+ZfcxH/MxY/nHA7zGtzIAOAAa9JneTAQ0TRRjyArc5yyz08z3xqFlQqk34aILr2ITbuV82tOeNs7htZvwyhu/8RsPm8vXBQdt5MQfuWfbLZSX5+M9yCxXsgX7+D4UrpEjYzRmr3e9dedPQS9flCpSm+Gi8J//+Z+Pk4JP+7RPG8rjGISljD/8wz8cmwzFskaICggnZVNSUfUQYY3FHyMb55ljquOsIiVn5mSMcP/733/wpw3NcnjKn8e2IqiDW4kn7TmTXPSxj33s2FxqF3k5sHSCQ9t8qbvnPe85aMLHidDmVI4LRWz5qreQ6leHMKGO9WQizKsN2Kef6uAgi3EmFbps5AhU6mPDDfAi/ZDn//3f//3YX7CDVENQepd3eZdhR/KiDa9Tnl6yKPSRY4N9fF0bcOHXLXB0fxVYeDgTYjYh3GP0isUpvE5+xCMeMRzEBofgFEThHJIjUCQFWnbNbpHaeG3hq6hHJ8UdAsYoxsPZPfCMF8dRHIShbLhsOEU5tPTlpGgyCJ6M80wu+PCi32wwOafN5E/91E+NqOYbDUb3Qsf58p3vfOchKxzkt/H1zJnhT77f+q3f2v3Jn/zJcHh5Kx3hIScG+lulBJJkrO0kqN1ENUYxuZ761KeOCWbvYiLRAUeXftELHtSJ1uxLTjossq+41qM7OmlCN9mBPq8O2OvImFgNflZZof6YFoUp33IkN37/93//cfwk4lIcY5m1xjM+IzEYo1KInfLsqDm0KM7hKOJQRwbGwoE3xVglnvFjWVdnQsHPudVd73rrixttObF7+bZnjpthrlx4e96yYbMU/97v/d7Y1Ho7KcJ95Ed+5O6d3umdRnRnUDRt6jiJiPfbv/3bAx/ZRd7wokOXJgOHkUMD7WRJLjxxINfk3AfkBcYlDzCObm045cee2cLEKVUwudHHNyfnzBzZlQ3h4uiAIwN4cmC04zXIBjOcxPtZcEpEviqBfZDSKIGwFO9o7TGPecxIGSzVPtYpx6QMCnz5y68cAhKe0xjLASjS8c/1r3+Dc8bUX1905K/qRYVDBSYHHCkSTlfPRQ4O5UwVnV//9V8f/IqQ3nIxGmduNXD/r//6r8NojGwMQz7/yCGtQhzPKvSJn/iJYyWCmwHhgFt/PKFBXjh+5Vd+ZbTRB6dFVyTHY1/kieYcLN2sun/Fwsf6UmLWyVY/2dMVPfTRMw4u9Exe+B/1qEeNSecMnDPjQZqhr3Y8v9d7vde4N/nZGpAnfHhEQ4BaV2Ar6coTHuZS3TlYeD9fdz4jIp8OOQhGGfgnfuIndj/2Yz82hHHvyIZAFc780kUh7inOOFfGk0+a4aLYO7/zOw1lw8P46HByzmMsmtoOAQbVFz7jelY8U3qGtIRyGt9QMIBUSITEA8C/cSInPoCcUQT+iq/4ihGFrT4c2C7fiwbOwhGkUa7olF7BwRlEOnxxIEdxXgwJDnjmzPo7JjPJnK4YA4yhm/hSDgF0FWObEGRMTiuGwAKvFUVfvGjHN71xbPm7D7HIaAX+wR/8wSEzvelnDFyi9ote9MJzvgLcA7S7Vpb/vWYdGdTXuewf/dEfjTdFXjRYgkoFAKVRyPWWco7hBSiEYTjHi1/8kmV2P333V3/1V2NTpN44fSmLEjJY40+DWVmN6R644i+caMhfnTI4V+VAa4qxfhuc03iWQpl8nEsubJyTDy9YGFhE048OjCE7J8YTp1YfL+qkXiKat49yVS+JrGCOBOkGbyI+p7CCqIM/3oP0kuxB9V2BexOWXCAeySwtZAe5s5yZLqwkrU6e05nNHwdmn0c/+tFjEy044dE9OeYTDnS35Sr1g5vzgxNTCzATOqm8aEknfmdRsJ055/OdhE8aiyiUo982alB0jsFJGP5GN7rhUKyzTApSRwHGqIdnxnEIoDPzq1QfcCxpEVoXX2x5vWh8wyDCmkycDD/4JZexDCSF4nSi5kd8xEeM89aidbzSgXvGv+51RbzjlyVkL0qLXBzZs42U3FhUxxPaHINDOGEB0hV1PvTpxChZT4Lk168Akf6BerTWCXTRmFQ2oxxUmkEG45QmEVlazURiuKxoggGnlw7B2YQh9wzxG2//W7hGObIZ6mjGWawjIsuM2UvAHDejwqcOxDDBinSuFCh94FScyFgGY0y0Uh743wjdGLwo8UXhHIjC8SHC4Ema0QdAJhWDWkHkq14Y2OFr880Gp1soDP7gNT4asw5c9ckp0KUXfdA3cTiHF0hoRlu9FMQJh+9UjNNm0uWIAP75OoO6+EAbH41VB/ChSAtFUJFZ6sRJTZxWFWPxrcBJNyK5FdlKRW/4VGdM9Mg9Q3TBabyfBWc48rHyq+uZIjH7S7/0S+PXG1/8xV88DsrrRwkZUCEEAxGc8tTpRwGuRSlRSUT3cY9NVRGRMuAM4IsX4H5+Bt1T4hbiCVAuJxI98YZHNDm0vFXeniEttT4JtQI5UuPEye2tIJzJRya4PeMBfpAx1eOZnHJxUcukXfPiGy60f3xM7L5BUWwifVAkjYOPruChu+TZAl7SzaynxuATsAU+TWy6li5JY6QLHBov9GBiwSG4sAs8/ME4/b0zEJSkJlIv95cturzZIiMwdp9N4gt0PRT2OjIiCgYpi7CIYFYhsBzyJ3/yJ4dBv/mbv3kYU/9A5CrqGAuHZwWTSnhrs/TqLyLb7YsEIh8HkjO2c84Bwg0XvrTn7DNdJZpzAa7hysE8k0U0YZQf+ZEfGUsnw9nEekt5n/vcZ6RR6uHAs+WYvuDKucKnjzq8BBxIX9EPbfj1Q/e2t71sOKsl2jgOSza659g2hc6q0eRwJqKxAToFDvQ5GX5mvQD3M69wpAd96d5K+33f930jBePITSzt+DFe4dTqFSspvkxOG0HOf7vFmU1UOlKiFW38Nv58Ya8jI4BJjGOUEhBJkaKSN1aWDr+4cFYscsYExuBwTZEEPQuMUdBgIFFKnmaTQ3mW0pQFJx7du0Yv5/B8CE0AF9CfrK6rDGRZjwhFFm/aOMyXfdmXnXvbhj4Z48vYQ+nqz5D6w9E9/hlcmiZ9oWcTxipBPrQ60vvxH//xEcFFPXojycuOJnw0yOJqovQM6Gi+bqFJaWLhhQ7YXtBCDy4l/bnnuMnCeZukApIzc3aEL1npOz+Lz5P4OQ1OdGRAkKGchdEIiDwEsrw5mXDYX5JPaOBef9DYnk8D+OtrHIFdvXVzVpnz6MegOS5wjy4Ij+shgEalSMEYPhk1eTkT+lIMk8kvTPAxO0R8uz8fukB/xoRPUU8uzkomq59Nl6jMHgr6nF1kdmyJr3E8ufRP//CGy1UdB3INtrz23NjGsDEenZGbWGwveNU/3TfGs3EmHTvKm6Ua+PVuga8o+utLbuM8K1u+zoJTcmSOfPxLCETMNjPLkkYwP7G39DJ6gseE/upT6iFgLOH0lypwIjkXZdjFeyHiOWdmUMpNaQDNHOxQhURX3xzZswhmaZcTy5cZD2/4udOybM6THDT2EJrA2Iqx8JDF+JzPUR4ncDpCJyZzaYQ8WpS2R3EcWKSmt3ggB53ApR3+GU7jVVsFDqsCfduIO7XBG5zJj4a+XdUrVjSFEwuA9ObZla3whE8FRPN8YK8jYwTjFMdBKNmzZf6hD33oUKxPMb3d0ZeD50iNjbmMA2LwpIIOAxLQkmO8JYwDUaIDd/g9W7JADmC8/vJkykkpKfk0gFMxDn24gEgoNwS+VJO3ewHi7d2bLTl7xgDkt1qRdessJ0F8o8k5Zz7ghS+jq3/kIx85NnsmsjFkdJJB30984hPHkaG8tGVfO/zZZp8utM9lhvhRb1JLFQQwOseLSWTiSAPRil6TMF2g34phwnXK5dmkg4+vGZ9jny/sdeQcytJFSZ4Z0Ez83u/93t2Xf/mXj+MmsxHDnIfCMeAZQ+sEOL83ToAiEgROz3jo9MKxlDzNH0xBiwPgVaEEPLWxUQ6BeEYLTbxzYicnzm0f8IAHnPsqjBNZHXwfYkLJT40zHt9oej4MVudBzzVduVcYmW7ZgTM7n/VKWJ7JEegEOL9H29ItBfFFHciB6Q8uuJsAM50Z5mf32Y6e+QD9OlNGmzNzUHpQz0/oDy109Oeg8NAL3TmVwqvTIM9kIZ8+cARbvs6CvY6cQnMOheFsLBw32eAh3gzKcQGnwARm48XzIQWecKLvHj7P3nBdcsnFS2R4ye6Zz3zGWPKtCDmPa/1nXjLEaaBfExYfPi/1EbwU6r73ve94awWPNtHOtwbOz61QxlotGHrm4RC6yWscg9N3Y/GjXHeRhTyinujrxMSSruiHZ/KbZMZ7le20gzOrh894/fRHK1lA1y2oN1YxZg5WxnNejooeuiaWdnXaCwh4cA+M5axk8XES2UVlAUobWugaf75w5mZPscRxZHmabwoYDoMpJuVjDKgbODB1hOskhW3hla9cf6lgVgdoVW5xi5uPdqsDMKPhxie6CsWmkEPo6kOGljdRj4FE24//+I8fkyh5GUeezgAioA2gZ1HKSqDPoXQDNPWPj5zH85ULTs8+pPLLGTt/uaa6O9/ZefO6anEQk8y9D7ekf9IvfMIF4q9nffdB9etkEljWiZYjX7jo4iZLREZPQLEZp3OTKzuB5EgWRZsgKCXxwkk6JAjYEGpD0zh8ng+cmCNTblcObMmilA//8A8fxsQcYhFN+O7VKwlwCDROzk1pM94mSTmZzYZjOcqkGEsdReg3Itlyn8EOAXSM9XpcOiEftPqIFviAC28mDN7koiaUt3wiswnFmWajnQX1g9e4+E1WzxwEcCZyWZpFM/JbKW55y1stTvay0YczWOo5u1MW/LAZ/YTLlTzgLB7Rw0sOlh4uXK5wtU+RhnFotrApNukay1cAWsnFcV//9e+y6O2fx8qG3z5OymfSxaFw4f3ud7/FkSn0qGYBBCOKISmFJcOGh3IwNysBUc+VDB5UfwjAxVGNz5HxoOScVgTFp4+iovuWWgrWT4kXsmS8QN3cbhznsAcQuRwR+QBIH7zEh3urhXGWV2mIvN1ufv0EdY2Q+MwoYLn1/3PPQDvAK9CmqMcDPcOXvt1zVI4jKuPH9x1sA4d+7GOSeVvYL7jLQ+MtWvN1H8R/ThW/riI0h5RS6CPQoWdlskIlE57waYwrXWu74oqXjiBhRZMK+eIP73DO+gDGRlud+y3fF37t137t12nI0HXCPMI+52MokcCZsUgVNENzekbOQVwTwn3K2Afa/Y5uoX6Oaf3hVwiWcNqACOxc1XGg16cAjzYQK76VJ/2lRnhJRjwxBBocWF9R9Xu+53vGcuczTD+OjY94797YnIs+XL3GZUCTKh6aVMDra3T1xYdr98B9sqmDP6gvnCaMXNnnAXJ4v4GEl5Mar3B2f0fDeX8fYNFVeAatBe8rFv7cRwOg4R5OQF448TR4NX6px596drvTndZTJG892YIzs4X+6U6ODTc+qysVMjGN9aaUDvVDv370zbfiw7NrPIORWqhQVsaOnUDnb/iGbxjLk+9szXR9EoChFASNn5k1ltJdM/pJAB8nBvEy3/e89luv8BLaRyommi/GzHA8imZ4ii/O5J4CKKhnOBQpggnBGfuWuJzN+FXeVS+ejTU5tOOB0ejIj2z1tfFSTzfxamwON+v3EMA3mawEaMJhJRB15afeuplQ4ROF9TWpHJtJM9iAftSnT3KAZCwQwYN3kA4roCtw65m80gOfLKDpWRronh/gWT808g/64MxWYDzizTNZ0NVXcZ8PeW4SrfSPZMmRgUaFMIjb8PgoyF/lUTBAkcAQihTB9C9HBXCkAFdMR2ML+ta27eO5AmJ+qRhRAYgE2kUCx1OWOjRnJ+ye4lx7BtopUXSjxI/92I8djpnygHH65YzGuyYjvXCafhjA8RjRcj47a7Rz8KVmab+qzEH8AcbTv5QmPCaTPzbjfButQDv+Oue22jz5yb8/0q+b3eziwXdy4GXL47wpnG13zBObHN0tNwpdcV5XQcHLKymNgAAPPtIXGcjkXr0XO+jwNYFInq2t/nPBd/czb+c2e5Cvyl2B8A9/+MOHQfzNBUogtDwGQMB5LF1yI7O9qJCRKSqI4EkQc/Wbr92DYcjlqg4dzkVh6k08r08pglOin9JSCv5ACvGhuj9tRQ4/CBDhjdNWFCC3K4BP/YrHcr/i4UgMyZEtlfrd9a5vOZxaO/rxYOVa646W6yO8V4djHWQ0fAOBg1xOWGz6pBNsow/n8J2yZ3yR52//9lnnTlhabaJJh8BYdWiQcZ/95mv3IFxOemyATWrB0DNeZ/3D3x5Ane+p+Zk/n4Y/wcmVHNrxB33kjIcv3YHhyJhIGB0Yzi70277t23af8zmfM4yrXj/IIXBvk4Fhv5DAyKULA45lEnJWUNB9gp8G9Z3HA894wJOlS6QqivpDhSZVy7u+ltr6A4ooEtloOAXQ5lNUxlv/7sVx/j8bVh2c/YC2OoZhNP3krzY/llpy4i+n8MyRV3wi/sl6IHayKng23j07AMdXvn+Ql5IZGKMfvvTj5Jz9R3/0R4fzlwrBhzd1ZATuLfXhQMv9DKv8x3Wro60vp8gpqgqE0gyTiWPCCdCB0wRfdbnqmbOzE7/z7GtH10DAQIPe8K0NnuAqx28r4uuMN2fe34u0H/dxHzeiMSYphaApFZM2NnbQ/vgIB/JlFDyK3NMV8QAzCtgqCMx13W/7UZxCaXjIMdCnNCuJegrlzIwlp4SHIvUXqSzNPjE0GfzhEWkJ3uCFT1994Eo3gA5EU3V0odCN/k4y3FsdfObqE0hLPH6Ni3aOfSjgi/HxYmzOY+XxJSLeTSQ8OfvFg37Jgncrlb/jYRXyNjA+tJuI5bb6ClL4hecsyKbpAw604HvgAx947o9Taues5MC3K0gmfsYeePGnE/Clvza8qNdX/ezE4Jwjzw1yHK9nfZ7pDZHZAhZezzkNRWIM046dLFuiM2KiA0AUXkJunTGo3nXuM9cH3c+OnKCcFT3KoCARUbQSffQlgz7uKcVElALIMTma3Jg8eE0X7vVnTPfVkTHl0gd6cAeMxEnoUWQyuSznHL3ItIVZzkCdEh/u0a0On+h4WYU+OqJvq5R2vOJRIDLJvCiRRol87OsZbjYlJ1mM87zPYfaB8fEjnaBHcpKZbvFHdquAgg4eXfFpLHsY4whUYHTle/5mh6BB7mRX0ATuwdE58lpRtDJrLbef+7mfOzYxKRJCfQgYAsgxS4HyU7tobaIhIJxSfwAfqM51bg/21QXh5Ux4AnhRJ82Rv8vVyGOJ14+C62PMQx7ykFFvI9s/yUChg5+lTziNi4b7+DW2OjJlTMYxwU0iR2CMZuXiaO3g9dvCLO98H6jLoY1Hly1MFsa/8Y1vMn4jB9T71gXf+prk6OLDKmO1tfLqT8bVvsf7Gvf7eAyyIcDPVi/GmtAisfQNfyaTVdPkwss8Fj624kvsZkXzgZQ/yZDMxrjmxMAzuPA+97nP1yGqAgFLMMKcUn4MDNSnfjlDSDEuCmPGOLOdAKIFo2I0mBUA4IBrH8TkFtCER7tr94oZfJvb3HoYjoHlq5TDsTIO41KWX374wyk+R8XrDCiP/kvJieMnxXt23/OsI9HFSmVC4YEzm2DqW6m2EH6wve/ZRIsOmnTBQaSCnp0fe84uxnFqbQpdcDB2tupKAdThixycpcm8j8cZ4AP1Q69JYTzbkxVeebwVUj2a9N14dcagKyCymxMocsjt0y+Y5Z55HI5cB46MICQY+pAP+ZAxeykiZUAKAXBVJ5/S3ieF3vVbtnvLow0grn9MNT584KT7QH8Ky6CA8vGFtle5xjnJUCfyWNq8EEipcncbVP2djzuHxZtllfLiEX4cqE9uY9R7VvRTR0bPQB186v0dCkeUvg2RBvUqFq598oGT2uCd5YZfMUG8rjdZ5Moiv+gGCjpkoCd8abdaCDg+P+BYUjKOh+4sL0DXvSuY7wN8oGkcXaDLTmT2zTq6vhr0JrZfh6cHY/Wle/f6WrlkBu/+7u9x7gVTaQ8ankG6uPC+973v11GORoI6ipIeSNDtHM1UgzCu3UD3ITJOH4QBBZnh/nghwhxKdDYGHYy6h0chPIGikfK6BtF0TVnhqD0FpxgGRt/uWV5oYkl55PLf/u3fPr6plofJ5UBLXoqCIweFG62UH2zrXMlJdo5hvAluaXVOymHK140z3hh/otebNrxHK0h2oE0f7XiFH5+CzwuXgHKjZbKymz7a0QD6AbiM5cxewfc2ziRnJ3wZG28geuikZ/yoU9zrQ0/xWnuRvi8I+wSWc6MJ4HN6QWf4FPzkyE5ZPvAD182yvvrxM31m/sDY7KlAjCEtN5ad93zP9xpKj2lX/TAMujcG0ozvnpJEQG+6RHSMcKocIlyWbf2rq951C3M7QIvSZqhPhSE5KaU9Zdl42ZAymlWHM/v3SvCaESpodGW8DBnts0A/cuEPHkagA7i+//u/f0RpS6h+nJ4OGSf6eM8RklNdPCgAX3CSE45/WAIQ+aRKAC7QeOpqLKdR/BJcKmkicCCbMc6Mbjwo+rrGW3yKuOnPszID2tmJDrxr8NmDFNTEEfiMpQd6ip7VxZ8+0MZ38AaPwKdfOKM3NnsxIDfxIQ4jfMiHfPAgisnR8YhRz64JBSiTIdTVbhIA+aHcCDOWCH3gAphxjzlj0D0N9FGMo8zqulZm3lzRlRf6mY3ITPkmmohkicMD2sYxGKUC9WTrXvshYEwOhj5+0cEDHUs1RCpOYzlNJ67G4QGoy2DJ5NlVoQMOzPHgcVJjk+Sv8JPHeGCM8fo3Vh1aNl/6cmTRUmqCT3X6AddtwIpHbYN35Qj3Ou54LEAPj3DjhTOLrp45tH6t2PB5RtPJjyNdK6s67eRdga1X/CO1SFkMrTip8NHMOtCsXJkFhMAIcE1B2uFByNWsca4p+jEcZ6UkygD6KMZSKDzoKbWv13EZMLepr78yj+85Gnjr6Kndun9tiYLwqV0xBv/4gUNduMJ/CJApgwA8cGqBgUP7LqR/aoGBWvajbTw9NcHjDaQrBV7GZ1gTA15FxF83t8dv7+AwFiRLV6sDx+TMRUrj8Wy8PuFxr8QHPofTj9bjdj4T/gq54CSzfZV9AxnZhm7mAJJM9jL2MFLCguUxjWObjK/fElAOB7GfEYlYx4KvBk0oCNwrs5Ixop2BzCZGoxBG8z2DTYVZCYyjaJ/zYRjAN+Ney3EKAXeMg1mofUU7OuGiQLz4exkUI28rIurPkSjLPXDdKu8QWGVbHQfdngEDMZxfZptQt19WLukPI2dIjoGmFI/hFQAXvSZXPLlXJ2hILeCzH/DRPdBHO35mGciGpmM6+uDQvgCkk5zZuGSgnyYZnmoD7kE8ed6WVjsrER/jE9IHONo7+FO+AA3O7UUbu/GdVgo6mHUKRmqREh1HQehctZwuw+ozG9rzwvZAUgKe0THGmeGUUlCsD4yc25og8iLOa9YSjlJSsKvxlUD9tqDV/QzzWDzYOKAnAkh1OEi/jCYvBZFBPs/RyEHWeHMP9tE6CfSjaDgag1/OItXBn6X8aU996vh8UR900dPmZEXf9XkMH4CXHNcYhm3CCEJkcxrhWJHM+tRXP/31hUede6/K2YudrFI+TcCj40PBiA7TRePDqd4znjxX9oExxrviRX7uYMGG0+Q2+W54w+P8HFjN6YKNtMPNVvBcxZF7sye59mrXdxWUYFYapDOk/pA14QkDtPlzAWaHviHVJ4VhWDGzzEJLuxxcXtbrYEqqnwJSRkV998F8PwOcFbmwwiicxG7Z+bGXAL7j9UcIRQEKYnRG4cjG5hzkUg/i4yygA2PojR6UxsHLaejAvZxWZHL+y2nUGYsWXlzxARdePKdr9fC6qtdHwPAln2NFjqke4GnGkYye+/WJdmklfk14KwYHEng6YlWMZfcCGJ/Ypxf9lHDHq3F0YKyAiR+v89mJLynairzOyNnHa2vjV543pxYiMoEsuaKUzo7edEY8BflnrjCCAMbArCT9E8ZV4aSu2jAu+ln+KEgbYzIWhsHMWDjUdX8IpDzFGAKjIVo5kUGXkZ3n2oT2sqI8zTjyoEvW6JOh+0NAP/0bByc9A/pkLI6mn59W0YGlfM1t13QIfeAewBMP4SOf9uptJi3HH/ZhH3buZKTxAO5A2wxwsZNVtK/4TCrHea0UaLrqiwc8zjhnQDbarnAZD5ex6kwUDmwlcRbuFIlf4IOe6MORMBvyS3SV5A0ugJASfUjCkIqOkGgDBmA2xRZtqseQog4YX50CzChJ+z3ucY8RJUUNL04IJQcHxivzuPk6l9MAXwo+fOtKDlGA46LXh+h4EQW9jnfWDPTFA0WRjeOnuPMF4xhuq0dABtHPyYnPZOXtXgDIcfVR9E+nOeS2zGByMLwxVj+TF239jFfSMZhx4rUgJV/GE4eyefQhTytnNPG32m6tg7O2YGF/yBBt92D2DzxbIZ3puzcR/YYPH/CbVGxFFj6afbYwHJljMbIwz7DAaUVCYwJxBVSvYIaTVj8LY1YZQ2hXE8aOWm4kH/XVllnve1Q0Gs/4imeQ0NX1rGwhZQU+/yOfFccExCsZ4ZGvO6qSXjCWExt9wkE3onXK20dvW+dZf7y6LwqRj2FyAFdtouaXfumXjtXK0aBJxQnTNRwo4Ml9fHhW0Bp9lgIn2aRx8kqTd+6fjqtrbE6mXp17dvJREef6oR/6oXG0p80zOvo27hyfS5nvowlcRVU+AY/7AqM6X+P5Q+kisuhMZ3J3erDxBFaJeHSd4cL73//+Xyf/sYumWDmyXWIffcccpmIaAzGZwt1XQH0BwgqGOTAajCkKouvjEM9owc3xRAAKU9Rj3KyM5szPSaCdQjixv8QDOK+cWORiaCkFRxZ5/LMR5ZbGookXPKAZL9HVPusHkBNkJFfj9oEx8DKqfYkPy+XLolCfZKIBs3v9ya8uXeOP7tTRGSfwFhFOcpooxuGzMe7pJR48J0f29Nxm2IbLCyX4BDs021PgC86ZRpM4WuzWs34zzeW/cVXHYW0wrVT4d2Kl3mZdpOY7Ul9+1Hg4wThHFgFEA0aQD1lSIDgJYqZyFuTIFE5RFE7BFOV3cnAQ4la3uvXS+/iTPkw2lkMY657RTnKOGQgK0OWkHMRXbmY9RcW/CMZIfp4jvxTVGJDC6pcRUjpofMoEtdfnNAgnecnmxAAPvphjg/Jl/eDlQPrlKO6VebIJSs94xjMX7P8zXo3nyJV0Amf0t/x3RYfeTaonLJPMBKEbG3X09Im3bBK+cCvx5n6G2pe7teIIkllhbxPBMZ2UwyoR7q5jDEe2DImMlg0hnlNhbks4IWNg234SEFLhUIi7R4sDSfb9XAdceukthqIoTx/4Z6YVMN+fBvit+Jm/V9UinwhMsQGHlYdxWqcIZr5nzsTJ0MpI6QDMOtjWHwKNgR8/oh160i0vbkw8G6E1Oh1Hn+hWFz1XRn/2s/9xnF5wOLasf2Pquy0zeIabLejC5PdaH15Bhu2yE9BX4fzZW6m+fjOdmfZcr38TRT06jirRlwp6vtoY/6M8iTQDMyrYCgzUHZdRdRBgLMchkHvMiBY2XBzM8sWhGbG+xqGFvxShjZCnQTwrxpFNpGIQzoI20FYfeEVrf4BGX0d10g3QKoCX+vcMXKtbqI8+h0JjG8P5/EkyINXwtm1OAwBejeu0hzx0pZ39TADRS+oE9I1XfcLTfSUHqmQnfuEXNN4vCHp+jMBe7DLjbaUAM80ZtjQVdOO/AujdvclMLvKgP+srGI5sgDyyqJRRMGJARMAxg1dn8iRIQcYR1kfrOaMo/fmf//kjzXBe2M/JKRFNyvJDSvzMDn0SzAKigZ6zY5G+aI8fAB8gv3tLuX/UxqpkKfPRE6fWlpHgP9bBCsm18rb2OaSkV7mmsaKpiebEwL9RLd1zkmGTE4/6A89Dl8uzsWSFj95ET3klvPWP3/l5rjO2Alf2AfmEX2ub7PTpqNYBAT4AXqQ4xtOxghegT7gBehV1833PeAu3uoKsFUH9EevnYOmz5iEcmaG3jrwVNpjbzgK4VuJHn4IuuNTB5xnNe9zjo0cu5iTDEtLxkT6v93rrkaCNTFHoUGBMR1qWQsoAs0wADTxId0wiUbk/cCK3LrLhGWz1MOvrfIBOjKN3jmDJNpmkWya230s+5Sl/MP5ypQiLP/LoS2/kcY9nTp7hjZceqYvX9A9ynLnsg1k2q5p+fhLm3xT3GawjQ3QAW7mPhmvj2Q3fM2zp9ozf7ptMZCSTFbzJMw0dMKTUQFEiMq8P0cxMDKo/X8CcYsbC4961iMGAd7zjHcaH/M5VP+/zPu/ch+hFBzwwspk+G+UkiE990WF0YynFs/GcF278tAKgoa9NxSd90ieN76r9kwsmur6zHvAEv6vnaIKeTyszoI+PHJIjv9/Cw9u+7duMie3PlmnDw0xz/ZdP1+M8AIdnMuoH8Kx/YJx+ypYPUH/t0bNSKHBLfx70oAeNCSb94VwmGd3Bx24cOx4Phbmve9/iZCvphYJWuGe4QCfG7XsEjpwAkBmQ4vRVdz7MAeMUjgQPg7hGB3h2UsCBvLAQmZ3r5ngi9EmK38Lcx3h5VZMU4CX6yYQPde45OF4spaKPN0v+mpEjoBQ702h8OjsU0Ffow7icmJ44xi0Wx6EPR4ZSHbmpqKdPjuoMPn2ib0K4VhfgueuW/xlq7x7g0UqIJhAZbZq9D/BSy8dmTlvozZj0mD4EhtKMsyC+Vh5Xv0C/AOPrPDbdwgU6apALMjQlQmYw0E5h+qQY7ZXzAcKkqGhQeArDqLc8nEedfNn3qO5TZko6C+oDv7zq4ksuGdEELgoO4kUx0/XXTg/OM+95z3uOzZP8ndEYMx7mYgwe3R8K+qfnxsFDT3TuKl/3oby0y7ch8ma20h8f4Zj5ANrItvw3roH647bj+hlmGZo09fUWlsM6a7cBFCDwZHMsEvOT9GeMOnqH8yR6pwEdkI9voMuR4Zl5BMORFcxmjOi5V485g/XjTFtEM4P1UwJ4Mk73aOkLP1wikHqTye7YK8s2XDY7BMmJ4AAzDTDzERgjkl480pLjly7xn4K3Bmviyq2lGO7lhH5zpq9+xs4F6Lfla4Ytj2TJ6AzeZEPfPZ3YYPlCTq7ZicErFh7oUD86mx3YZDRule04+MAbf+4rMyRLOiarPQL7rDZao6x7Ly/6t6if8IRfHC9zOC554q0VZKV9VT/Z0g7gB9qzFRk5shRv5j9Y9l3rOV2Oti4ha+QjzAte8J/L8/rvegAbp5atEOboQB2HyCkq0WmyeEbTjPYcvWav71V9/C53/8Zv/MZhxE5VAJyz4xmP/6BnfUQwE+GmN13/tKq2VgLD9VNn+aKwFI8WXryo+NRP/dSxqfrKr/zKq+R/+rlXohtPXUH9ojX36dlVoQd8zCAy+1ZYuuVj8z9brtFvpQLktTFzcpFN6VzfebVBIzucBPHKUdnY+PDZoKqXfplkJowPKeka6M9xb3KT9a+3ouVt8QxD5qWkC7zs4wkuNKW+rtlu7neBBoM5yby06kQpv/mbT9w997nPGcg8e31NmPq6V454Gbg4iz/2DIc+EY7hYAhyZESgf2NsLPxKxQaQQfy7Jc6YB71ljKt6wJDGGIsv+PCh6Ce/poQmIyAjWIYMwAcZAUMr8Uw33pKJPvJVvDjfRXflef0RLf1EF2g7B6PfsaGu0rYH5vZw4v+rvuqrRpTzT0N4eYNPTo9/9PFBXn2TEWg/i+YW0KTjfGTmO93A61fRl19++Zhs/qkK6eAiwTLWV4/rhppulcYBuPp5VHDUNKB+aBcERXywlWVoXEcz2BKSQ0SQESnNDpXhRClKgpiQEYFXf4Jxnn5LBdeMb1sC98aijw7ceLKh4NCc2A7Zh9g+KQXHznjsIMbBhQf4KO95z3v+OL7B+0p3lVk7cA/X/BzPnMO98b4J4cwchT7GEj8m+Prra/1A1xmq0bavfR/UN77w4PNT58wc1r8nIm2qfYX1t242ZKJhkx0eMrrOej8N6CFHVvqlULDqcv1ozKpFN8b4svFpT3vq6NPR4CxL9Gdcx7DgPLoD+sLZxOy4bwvnUgsbGkQz3GhcEIhADCeZ9xo7iDFlVhAHYlzMe04Jp4F+CQfcMxScNlwcyIann5JzZrxRClru0TCOEWdc+Hj+84+PFlda6/KdUuPRfXXa66OIunRkt26V8B2z74i9SsZnBp9xzOB5WweMDdxXZmgsO3Fm/wgQh7aJdSxX3micHzt0AtVPnYxNnvMB+Iwh1zr+6ks/3HSMN98L++jKnsYZvD0OyBe2kFxz2UJy5ch8FGx1NCTTSfST37RcYphx7JYdATnD8zZHjqYfh81pM5xximd4tIerthnm5/oV6U2oaKDdT/dNJkdhcuZme2CMOrzknHgxEeVzcM8K6xpvSrLMvHh+5SvXpdHmzz9B4Qs+mz+/eEkfxvv89eVHOgnch3cfRPskqI2s7n2xZ5XiOE4y8GHVgd/S6+Mesusb3WifRWsfNGZfoSeywy8d9C2Ekyepl40pfvCA93S0YFwRL2DcVj+1xrcxTaYC7YrnGMY5MoNZihhcehFSnUVG7/4dQ4kG3uxQVE5xxeKwmG3Wqec0xuaMIOKHFDhsvIDxIiklOZbDg292/ZrA4TgBORs+8SFqegZwAXyoo4gZotd9zj/XmeSKseWfcJlYDOZvQth80Rv5RftXLTzjOz1mqNlYa9/9jr2Fla/jPxCukFNk9pOtb/qmb9o98Ym/MeQEeHE8Nlag5RndnO1/A41LL8C9Qi820ujRkwDmT635fsYkk5aij/fjILnigTfetvydxGt0tzD+ZBYH8OE0Yj5n9BstwHCUoZ5zikbes3vThHFfh91gYZ7jZShAOMQw00w6CWam0BNRLYs5jLzWeDQUX3M5OXHG3D+RgI4+xrnOipFD+nGjIzRyxVc8Bu6V6sOBf6A+J6cvqYqo/KIX/ff4CZWoTHd28/pGA6zGskReVTfAfdD99ooPODiKlQgfBQzR2SmFVIf+OJXNllMfE81qNtPbR/c00L8xYB7XvXb8eeYv+ERXvb8WZNJ5UxkvM4Rf0ZbulFlX/EKU9/cwTF4BbYbxmz0K4KAUYnd+hzvccUGwMlokozxK8sZLFJKfqeccGF96L8KszqM+JjL+SaD/DPq2fMCLvj4mkzqOy4ic2ebPW0B1HB4tfckTbXyKCr6fMAmM1Sc+A/2VgONJJeb6cCp447R25SKg3J2hTHYTimHxDtwnpzp4eg6/55nODNrgCCcZ8O6e43CS/s0/x5WMbZPMybXDh+dsUjkU6rsdRwK80bdoixZgPzrgG+qkGPRC/+kkXmYY+Jd6OBV9FHYwge2N7En8s3ECyQxjs6czQhhao9CKAFEMAvcG+xbCP90l0omKdu6dHVJWzMUEmA05Q3XHjK8OAm6wKEAdBw7goxiR0BkzhVnWCYdPfcMZfTyZgKU/Q1lLISeYeSjyrbysxg9mvMlIwV4K2Py5+gzVJPdKPIjePpjrT+oD0MYXyBFmoA85M+eRL5vkJhmHN66V5TReToL6dz1SwwCnR+kFdK+v1cKPNPzjQvzGV3zeALIZvemrXzaa9aptxbU+4599jSNX/WYYb/YgkYNm7JBCwLmLTAgq/pkykZAzM55o7ghKW9Eih+gKYrBSXSC/9IzZ6y940M2ROXCGsax4+/dFX/RF49WxGS8i4R+f+uEFJJulqUmpDzxBPOTIwPhWhFlx2uExRn99nJ/6W9KihsntfDedhc99xdgZ5wzb+voDqw59KPDGg+KlhGM5/a0QYOX9OMIpjQuqD7bPYOZpH9v4MonwQd+e0aZDUfgzPuMzhv6tWv7mRo6MDNxKPjcqj6C3kqro3CSwd9J3y+MFlIJwn8h1TocpkaWcT78ImmFeIcvB5If+NKmoHHLKQrSNY0zuK9oUQhNeMUbhvIp+4fGsD2f1qeUXfuEXjm8gHvrQhw4e6osXCoOXozmiIlt0warMlWd1+xw3QLv+IrznjEV/vgjz40mG8lq9qIymMfr1ipZu1c18gH10Ab7IDfRBO0BbO5mtlp/92Z89UkQRkD2tLOFNz/P4dI0Hb9nmiTIDHFv+wpcemlQK+wuC6v3OjjPjy9s/TqnPIvmgw06uTTp0jMOHZx9G0SOdSpf22ejcH2jhdA6yLQf9nWOdKQqytazLKScyA8021wc/+MFjDANjQKHc63GM5X5LdIaUeD6Qsk0oKRHwtzJsBigtoGjOzai3uc1lu9vf/nYjmhexKTpjnMZjoK+ir0JH+HBNJ/J156dWKo5FX0MXSzsSrXrpKUgHWz5m3UTT1Vi8APl8TuHvhvjdIR4s787hRTFOZDLgRwHhnmVKxuwSjdNAX3xB55fPxnhWOF0Tkdz/8i//OtIfv9JuLFk4Nx2hOfMSDw4YbGjZrz9Jq09w4dd//dcPRyYc5ds4+LsGInHKQswgrxzdq8PgjW500YL4poMBSyqguHmnPBOb74F2pftDIfqKiSZ1oCS5smW9v1uhnwlKCfA7VcCbvnhOibNDHQI50yxPvFjZ4PWVljN3b7wYUt/Vmddx+uNv1sEWp/qiuHp0g7mvM264bPZs9EQvLyYck3Jgmy4THk2gbyU88VFdPHk+Cxq73C001qDQhDEeXTqgGzqSDgo6fM27ARBvdAeSLZ6sdBzZYQP7wgPqd5V/Q8RGhVEh900FBOtMszQe/12LY0HXZZaxGM2ukrEss9qbAGDtfyx0z0Cf+h0C+MIn/CKciGPiyVHlYWYrpXFmuRkDW2bxdetb32bIlHPBgZdDDAb0ZaAmebwrntEuj3PWDURpvAA6bCyY9bAFTixPTDfoGt+YJmCRz48RpFm+lrOPoQ8O4yq9QjP64exKD9l6rSPP4XYxTkkn8ehenWfRlF0EEm9F6YqvCS6AfNGLj8byLwcL5OBvc1AA4xw5xTI2o+vE69URTntKAwarb4nEnGgnV7bxk3IwnvGK/pihrEp45j6U5+L+tALgsxw5b+aUorIij/Lmz7LaebjllkH7mxboJRMZ4GqSngX6ppMtTzkDR3Z2ajXwqtYk8yyK5Ij6uoLGb6HNDtAHbrZxBbNN4LJkc2Zn5uR0zi/l8gKJjRTOY1y8DtpL8cyRXLUf2+RsmOV3r6RjV0DP6JnQTlk4pYLv9e+orDxlB/fhcO/Egw19IqC/tHXm71wYMsBMNnst0ZJ1QHGQQ9bOEQJ1CKUMM8XbLni++qu/ekTKlKGoxzRlKRkjZlajnhydtmC8aFvOCxjPZ5ZmuTyxWc+AeJcTo8fxyYGm9papQ8D49LHyvNaldAXgwaef8jmv9m2K5dD6Wfrxjgd4ZlzAvbogHQXa5/7kN2mcIsHNUUxknxd4+0cv3/Vd3zWO5egNbo6VPb2JJFNOXp+JxMEQb3iGC14Fj+j5JQnevuRLvmSkFv5wjnN+YHVHN98zDsBFPkVwgnc7xUaOnKIIYjk0wL+tYfbEFAIckNEZo2XAM8E5rohojBMCb9Ms5ZyI4wQZCI4KGqvijpem04q+CuXkhPhhHMCQVoY+gscHZzJRLUsUJZKTF73zhZlv+Ge+XYeij3g1wUVFf1qAEX0foQ+d6GcsqP8M1YUbuCd79ca7l0OS12Rxzh8fcmOrgXzZZBKl153/8TfoCtDfOM8rbXRH05mgf+OVYLY3mdnMJOYnVm4vcKzkaDowYEdj0k+T3Tc2voB0Lg2iFYxTi5SBCGWY1SKKTR8ks6CE1z+n8RwxMy1nFtVteNxTprEgQRU0Z1iVd7bm8ENgjtiSBR9e1FvKObgI5FcLePBxj52ylCmlU5axctFZKScBGRVj43PmOafUxz19oi3VkLbZ5DCilyd4D1+6CA9Y76/qxMAz3K7x7NlGHQ3pk8laNNPGLhyYbb3pRJNNOD3cdAaM6XnGfygYq6CppIfawume7tlIFLZSWj35jsBHX+kYL06evHb3VZ9flsOJ15m/8ZeGEDRQQ39nS/SQjwADIR3/dvJyvXJZIkCItDWecjCDQXmNSeFeVJj7rWMJfZwvV86CFAUX/HBtI5yJSFiT6elP/8Ml93/2iMiWW4bVP0X3eeJZEG59G7uPZ/VNNs7MQHgzsRjkFre4dOwhcmbj4dzi2dbNtBqDFjrecAooPnd1cpQj48O93T5aIne/mOfM68+/Vh70C192OgSMSReu6ICZ19oUuKvjtHixYjiV4Cd99iBI6WtF8wkvvvxO0LitbsY/vZCwMeMM0qbB39hVn0ANlOswECLGMkhtcHj2ssTRjyXVBkxEYLwUtAp1vOwAOGbmtmAMgEOhMLyY2fhJSfCZPHIwSnr8439u9GM4SrKk6bc1WPKfBNrqi/Y+J6ydXqRodAFMLA5GrzYtnpts4cgBZnxBsqtXVv2tdfY1PrK3Enld7qoP2eqPDhtIqTgNZ6aPiy++2WirLx5MCM/KIRAvye4eLs/JEm56mdvR5hfeX/h2hr46+6Y/QceqKlXEr1U1nYGu5z6sR4Rh5U9mhWVKyFcfg/6GAhB1jZlBZMRkwmNWPuMrLGmGv0geUWC2wY8p+I1FP6VsCz5ShCtcxjq6yYnVoc+xXfEpJ/2Wb/mWUed40ZmyNjjMemPCy4DwzKBtH8DRZA6Sjzxw51BwoG9FuN/97jdOUfyJAdFRu2IMfSju1Zl8yUs38afNs32JZymDOhOUA9Ctvq5woa2dk/jgxhtRuvD3OgQboF1/NF23ejgN0EgP8LhXtwX1SnYG9CTY4N1bSTqzx4KHfYEXWuTxgok+ABzdg5FauDEwhiTVwryIZhbkGBT6H//xgkUhx3+/IEf07F5dO0yO5Nz2ZS+7YiypHc2ZZcAYeCkPDuPxsS2ga2DsvgLmHzTCLzoDZ5GgP+HPYNqj6z7wrE8GoTiy7TPQFvSFG16pGod3T/FoiEBeXDjqpA86Vt+EpA9QsIi3+OkKpwAiGrORSWtf05gA38YA40RmTu3HrI6ypD50hIZx2hoz6+SaAp2YfPTDgfGCnkJWTiwFEpH5CNomtrTJs7RJ2kqPxsYvOPdCBGhUKF8+J1e2MXHERWkEe/nLrxyC1leZlRRiitAPc4ird5IhYhQ51IUXeIbjJAg3aEzXGY57rfgY2SrDeeRaZrclivJmg834g+r0O4u/gKEUdAGjGY9uvAD5u7PU/r3lHD49bnnyHOAZDYbuL42Sia0a31h94x0OPHBc9rEysBHnEXhyssbM9IN9dYdAPJBR8YyOUr3onN6Ayd6f2eXIeK6/ElzFkWOcsCLqox/96HGU00bNjCLk1vm6KhGAI0KWf7Pe5PAK2bNvH65//ePXxI0NX/i3UDuI5knFJg4eDiTq+fGAYukykcx+v/ZeqJ3DN4Ox+AvCexYYpx+56ArAQz7OyhgmtxMMaQG9CBitVCDdRQ9O+EDpBhsZ7/MA58WcGX5j02XFczYxnh1NIPshK7A+9NG4ruhuyzHAfXR7AMAXD+5BOKOZb5HP1UmPzZ4c2u8UgX5BeM59NBQYbFYj6J8rk+OKoGaJ2UrZBrvXF9KK5+owRGH6AY7jY29/Xmn9ceT6ixO44DZmFq5rZQv1P6tQCIdhYBsctB1ByZUZzt9k5lg52kxTwb+2DHAIJL/xeIBDHTpA6iDymNzufS0n4pjgRW9jgfHdA3hMTGAf88hHPnKkgHQLBz5n+fWfr3CxC2BnDuK1vrTP5lOqgd/w4CV+5gKicT6wDwfeFKC+iepqb4UvTswP1e8LpGM0JBgHMU45X/M1X7P7ucc/fhxYa7cEUTwkvr2AJKUAChC1c17tnDTCDPWtD3rQcCj/LoVvM+BEP8ajP99X4JgFOKsYA25+81uM3MyLEhuucrHv/M7vHK919eNA+IAf/9FPpnCdL6y6uuopiyXc1UrnZEjxuzsvo/CAl44V8QGHe3y4J5urZdevqB1Jia7qgvlef5A8eEHDBOe4fkyrjT7whc5sVwDfFv+27izQNz12JVf8uQee8YhX345wYCuWMfHlPhxgpBYhmq+cT8T4jaNvBToSEdkIW5+ZEZDR1GFcewUTN1wc2wyzvHs96QBfvoZpJWG2inKFswJmuvsAPf+qp+9Z8U1wqQUH+IIv+IKxLIvM6m2SyANnCjJGHSBTvB0K8dw48plQnEjRBi8jWSWkXXQ760QfBS68cDJXR1KOq+jSt+FWN3TiP715DlZ9CDLr5sp7AacWJpQVQopjY+X9gaATvm0B2mo/FPQdY47GKvhkIz/M6JlOyCClsOL4a0Yyg1ZufVzzM3C11AL0l3wIZ/my7ABvxSxrIXGFCFH9zzE6CVcbA8jpMGPXTpEUx5lNEoqz9BoPMkQQ3rmAmdYMxmuTJ+Phv/7rhQvt6w+ajr+8OhbFOLVNLdqWWvxFepZzK9dZgGYTM34V+NRr18ah6VlaYFI5khMpvZ0D+pCFDvWlR+fGNkAc35/g5Yj4hjsgw8ouuqNq4JmLCa5fsrv29o+NBLIm9wyzPNu204AMCj5dgfF4oQ+00pdVW+7vzFv+b7Ibpy3dKcE5R4YsxnxEQtny4Wa/pU6kOHeGjIEFYRDy9Sv/NezDFfPugbGUTnFw922HzU/HUFtY+cL41ZU3328BP14/4x1Pvp/2xpIjcwi7YPxwIAaUbuDDbxbxTAb8pNxDIUcBja2OzK7pZ+hygb7UM9FswOiIc7sGRWgnL2zC8e51r3uNNnRmPl0rwfy8/qrbq+J1c8jWggl5fdeAFkcW8Wd5uoJwzTROg/Cg1yRXAByzg9uA+iPrcngrRCc96Q24dn/uWwtQpec6cTiGNkspTlSGjBOP69K3WTuPxxDGws1gxtfnxjf278GtH6E7nHeMRJEYjj44vo7Lct3v0FuoDR8myjpx1nNJGz5HcU5kvIH05tHumHNLMUS+FEa2GcI78wiSc66b9QIfXhgunLXloCYSh2JEztTP+ekNiNToeJHh+wORyoc26yqyOgmdwxXM9yCagLz6NwZtL8S8eTSZ8CyHFrzcK4H7nBBs6eyDHDde3cePog5P0i9vhB3XfvInf/JYPW94wxsN/SWjK4jucOQZUQR0NpBwwMZMJPCXZChRu36MwEmNC49C0JTkvrx6Zp6BfPtgrHxP3mz26c+ZEhof6nIE5TQwJkCfIUqJRFw8f+u3fuv4wk/Uk3+JPD4BtaRzesu9vQFAe5bPvbr5GW+K52ScQR0HjndXJV711+6TS5HwEY94xJhwnNtmB9ChgGInr+7yyy8fspARhDN+g3hR16TRz306Vaddbs5xOJL9hD42ydkgm+KFjYxRtvKCbZ3x8UZWON3Hf6mn83UrtRzZ2z624eD6FwzjOdibI2Meo8AAiCzHchYz1okGISDChCg3GwloUzAa8zNxV88YVziNyO8UwS7cmF7BosURCRGN8GxB/xk8G9vEGDwc8eFlhCWd83Bwq83DHvawIYvIzJln2WZZjN8WfTJOfJ4GM6/woqWOIzsT9htKmzETi+PKjX/gB35gPJuEzuJNUjTZ4YKl0MqWrxk8JwO9D30sdXRE39rILc3jUH6kYJPP5mihY6xinPGnybqPvv7GNw5NeNOzz029qPEPE3kLq824fA7w0RnHXkdOUAOBK2VJwEVOSzJlA31FZAgbBxDCgHGgPhipj2dF7nrJJRePXNZ3GRy6yEg4Y0wsik+QrkE4wXq7PqtX4JnlYiwT09ItKnNkExafVh65dMs2WeIV3bnAqWgL1M/PJ0E4guGMyzjXPrCy+bMZdY8nL6n8KQTfHXSKFJ4ZF9g+g/SRTkS6+Pe8VA/90L3A4SMjaY4Apl6fbMm22Td54QUz7e6jq2869QyHe8VnBOyCL79KZ6f4owP3c/9w73VkjQZhWpQAhFLnmwlXuSxFYoixIwBCjlB1+xROCPdOE8x2THNYS6coiYalrn6VWQCg/apwVSdOAYpxnvEjIotyaEhxXNG0UzaZ5KTOnQE54EK7a/XKzF/lLIi/5Jn5lNKJwtILfNpHuOKPEztxYRPA6Fua8G5hrtMX3VIu+phthBf2baVUOHcnTpx6xXdyVJ75cR9997Mjkzde/LKH/n034m8Okk0bX6w/feNvprnXkXVQEMiROStBRGKhn6Jve9vbLdc1Z0mZEdIfeA4fSLgE8Kxot5zBLyLKjzi3Z7RaFYLwBPDN4Lk6SjBB0KAA9Z7h97LHPYfVjm98OD2wARStRWoQv7PjJodrcm55OwngyaA5sWe4OCm5OZOobONjtfIPsDs9yumM7e/kuTdWAfM9OHdv3BH/aBqLfvjwpaCfTdhcO0fGU8GrsWCmNUP66AqcHaMFh+LeJtcveaySXhKhTR9sD/SL1hbn1afRERgk+TYjDUbIxsOvcxn3SU968pLP/u6o1w9BSCnAM1BnLGEJ2TKmn3HaPGvzrN2Zsj98ZzllPDlzuBjPrOV4wLjKvmc40UajZwV9juK1LmM5S7YHcHqhXrSjSJtAb71sevBKodF3hRd+RtU+0z4E+oMkHBGuoo8Jpl4QsUopeEZLHksPwLj60Q/YRx/udDB0f6T/9AAv0If9vChZJ8rxnyjzV50c+XE0tPSzWtDFTNP9SQWgiY6TJ3gUba5+5aJNSicnd88++KNvfqVvNlWCvRE5wgxEuRnRQHmsmfKsZ/3NOKZR76wPIUABhKcovGNcAYRPgdW5znXd+0ubfmEiZzJDLf3q8QNSfgoK5mf98cz48eRZH885hBc+Xi5wXrICq4/ifFk6RWZ5onHpIkUag1Y6cK+cBYwJOCJelOgbT0av8kVkb7ekFByJcfEiMtJpPEXTlaxB/FRqowfPAB7OtDqwOmVthx8vL37xS3Z///frX2O1GQX4zWbBSTZx7R6+9KbOpPQDWb5ETo6sD570qS/7Vw/S14k5MiCcjgblhJzC8sJoll/5jKVOmxKD2vtjHQGGZ6ETrGdXY/UxiTiwXbvl3ypgdYhOAgQpCHQffpDTkiWDAc5ABtFGJOAknAINV5tO0VqqQwfyVn3wCg9nJjPwHG+z3CdBsseLcQzFseGxsbbRcoJiJXTCghcFb1YOPLmf9QHnTD86cM71TcTqtCv6w5v+8GP/YEMuKvpW3TGgH/Wa7CfJayyoLXye5zEOEURjqZOzcWkeetrtU/StP77oO17DsdeRdc4oEZ+F5FCWOwKKZvN3yxFz1RdELDzzM1AXqKverCQAxXmBwZk5XtE1qP8WwsVROAi6g6+ljRHh4JRWGUdN6Ig0JhCgMHLpR8le16PvhAPO5MyRixZ4Ph+AAw08wcl4VoKHP/zhI53rH9Gkc7zRuYmFlpUqerPuQM+V9N4VDH0cteHBPdsD9/hxRQttDkZf9g/623yy+xaMOQZ6X2lFG17youXlC1l94eZEjN310xbt+ErXZEY/uJojhwAhDrNG1tU4kLl6ZlAObddvp2lJsCkSHTDoKn9CbFZ0goAEyyG0u1eM5yw2GnJGx06eKU4dvPDDrb+x6roPt6JPvPjDHnJEcsFHVrSMEQFFGXIwGDmdzYrCvdq2QqBvVYJPSbmiVfqBjx7iASxVS1nr1ue1jxIvJkNftYl6/qi1D+aN4TBOcwQQjm7iWTHoRzv8C9ZzdIPqAX61Ke6D6vBEh9kMLpMdb+rohu3Rt4qZXOnLuGAfrgBO+tdmVfcHZKw8/tI9/edD2tE2nl48W6m9Xu/tbnAVR04YhoAMxAQkkGPOjtMzgzKyGeVNkGevNH2s7udNORp88FKccSBaigjkGi10jDHeFU4RycsAID80iRi6lQFePEt93HMMJZyuGc4150UXDo7JEXtrJs1Am/3hM1G1O6jn1KVTcKQr/LhvR49/kJycuMAAJ+cAAgY88ElzfLPtzd4DH/jAcQyF93QCODPwQ1aREW+i5SrT+oe2kx1OtNN7z0G8VeeKjn7GwwPUcSbAkfFg/2Jvga7X6egaowD/qCWdcUb4jKcTNNgMeN0ugNzjHvcYaQVdAPSSF8y8+BZm5hmcuNnLaSsAM4rcNyUlhNMFmwAgBSAUZ2NU42dFKpiITkyrBwRW3yzUl7OhxXAciYEpFKChbTHDENZ9QnZNBs/bOnTUiW5SGCkEfshh5uMLXjkqWjYl0guFA2kzXlRiiGjAQU8clj5AvCnwandvEsgVObEfW4pOckUywr8a1Yuh9d83NNnwI7ekD8/+QUxtIjTcaNKfP6DO+J7Vp+dDwJgX/Of6J3JzUPwKWtIeG36rstWilVJhv0XBQyfkl44sA8czPHTv71rTt8Dk36ihW7JG5yzAR3CmIwcxOBfHMxREcZZ8u2sz1FhHV6IjHPpmMKUllJJzYM9mq7oMZ4x75QY38E8MXHZusyFPlE/BF2504V6NF4/rhAniIYg/SmQMk89xG+dgKBMoXjgpx2Uwn58er0DrGbdCDjiNiRa+XJOVXkA8ardUO260unn97J+KEMngNg6QDR+KNrxwYKmdNvyUv1vlkh/++KnuECCPsXiID3VooWEVg+sv//KvltXhj8aqiSfR1jg61e7Z2J59q8NPnMCYqKKxvUhy6nMIj3OfvY4MMnBI5wJccxD3ohcQWRiDIinZDNROsPAZp7ifjaSOkVL64MHzUozlVAQXubzpokz5mbbGuqKVwT0D+Lp2H3jW19Uxmzz4Oc957rmPdspBGZFBRW4TSTH5yMlIAX6A/uhHD1+VdOHsWo7oLyGJbDabllgOASd6+sJlAqhb9WPyrf+snHE+6uIgHJkM+tMPGugBMsbbIdA4NE3Q5CATe9HL6rgvHfTpQ3Q1yfCIlkJHeFHHqe0BbO48k7UPxfSBW7GKLJY5tRyxM2CvI2N4W4L5HkEMWH4wb1ZxXNFFqmH3WUQDhNLfOErFOKB0eD0rlATGn1U9UqZ2ymQ4UdO/K+fjclEITfQzMho5JlrBzHtQXf2M5wy+xJPGwCkf5FCtIiYTg0kBnGaQ0UTWl4xw4mGenK7JVU5sQjor90f8bCR9LKVIGTgnOsYC+Ipsc50izRI8RDl9RMZoADzhe9Uz57q6HvaB8YrxrSLsg75/S/C6F66/eia7OnI4KvTMHk0mPNKJZydcvmyzojlS7JfR8CcXeqse2efkMsOJERnhbQEJp6jDZG/EMC0adGRl1smNvK1jHEbwbIYazzmAZ/0JAp+Joc0vGBifcShGvXHw3elOdxxR2W7X8m5zZrx2+NzDGZ8ngTZ9FPyj0eSgdB93O/5Sx1HrY1nFhxzRV2qc6aKLbry0rbLNTp1sxiqAzuS3/iYFfu9973uPyMQxjEEvfShw0DHayaWIivRjsjlChFNaZ7KX2tEdXCa//U08nAXRTpfJwo7kW7xhtOOBfekj3ZQLJ7N7K8aTltXnIQ95yPg3V3z8lJwKPcCtnC+cmlpsHcBzBdQH03JKzwTEnGMUEYyjyWlFOYJyUGP0VTAtSvinzSjBrKV4CgMcWR28CUl58PiLOXA7MVFnyRfJjNcPfrCPbzDXZyhtlEoGBpEv28S6txpo5yD6elbvrdRjH/vYxYHuOgzar1LoBe9442zGoSN1+Y7v+I4RmXz76x/h9BpYjq5veTY+PAfqyA2He8W9InrjmbM86EEPGs5sReRkdEgfJgJ84T4LokHWnM14+LrvqqAviNkvZUN949Mkc0rBbn5nSHfq4XAFftTc/fnAiZu9gBAnQQ4QI0qKEllEZ8ZkOA6R8RMyBYgS7azhUhiEQfVjPHWcQgEcm/EYSG4mR4OLY4gA8Z0s++SIfwAvRzMWXW2iGufyc3kGQY/yW32McSUP+tKMdcKu/56fCIN3ExTgxYcxfq3MsfsH4x2foaWfPsa6trKQC/2cWL06/WYZ4EAf/74jpn/LPB2ly/S7Tx9bCLeCXrpfnW3dtNeOhklDF4F6Y8jqiM1f3NTPrz6kZvEQP/GoHMLfDCfmyEd3y/3R7RFQcCVwb0zFMyEZXYTCmGVPDidickJKZwj9CLJgGWPdq6MAyvOsP5wpErjXXxSARxrQZ442IMYZD+JrC1uF6U/RFA8/o+Cfg5ssvU3jHDkT4+GBk3tBYGUyiW0SOeYq2/oXc0wIX5GZpP4pMRsdb+bgQI/c5MRX49CLR/eMnV6SUX/jODqd0wFdy7tNOlFSv/NduuFUtoCfaMLrGU78qMNjQB/k9o0xO8qJvcHDV3KRnc7hyCa1HQpn5MhHDxtIuFlIzGAiZhyTUayIJkpwCmmAIzr5IQVwQAJlEPjQhctYAJd2ddq65ySeOY0c2VgRUeT33ETRf5VlFcZVXwXu6uIdbg4F/MlVZ7Nv/MZvsnvuc58zcHsTxfHwXeHEnEU6YfNGvo7ubOhMYhtDL1NsIp2Zvtu7vdtwuPgpGi3cjGfy53DxVj9yKbMcyaKfiWUyi8omOF6shDmyvsalky2wBdCne2P0j99o0lfODOJJPdn9XQrRmM78W4BWoGwfz2zJkdmsupN4OwlOdOSTAIGEiJh7CsppPJc+ADPRUuJsVHSTJzEqZ5fXzkYjpGdKN57AwPMsvCu86MHDUBzDP5WmnvE84wlwznhz9ZpTKpPi1bmibwwe2t3bdNrMkUl0cZDvo+8mFSMZb8PJcbzxEg05N0P6Y4E2piKw/FU/UCrBOV0BnpIZL02q+J51kDwgOZT0jT8TyyRy5m7C6Y8evpsclXRQRDVef3XzapGtgGe4jNG/wolNJF/vCWSXX375eNVOppluMqVD4Nr9oXDejjwDpggRU9uiTR/CEo7D2QT6JNHZKyPbwYpYlvA+FnEGTTjFMxyucGR8OPuOV1RMGSIdR+P4ckTRyVjPszEqW0fpvqKOHIrNqnzWWbnTDMs4eThOS6NX1yKyE5vHPOYxI0pzIn9ilyNH00RZJ8tx3lqZ6Vfi7TRo0yx9oxM6xpOjOVHRks6Z58AhzQk/GUE8gPQVb/Q92yDbKK3C7OkVuz8F5p9J48QCS/3mAk6qOx+4Ro4MCLRlZMuE2cqRRDQK5HCiJeGkHvJHyrZsG8tBOAeFKRRmXI7onlL1dd8zJYrM+olENply0JasinEZwj1jZER1oDpFHfz4t2Rfdtltl5XlJeNERt4s+nEQDu4s1RmpiCSN8ILD8Z2duj7omnSuIN6V+AGuczkE4ll/ukDHRMa3M3F64dydjqTDlZc1UABX7eoVqyj7zXxWjEdz/cXHdUb65YcRXvMLWHe/+91HgMKPvo2pbJ8r5wvX2JEjfMyQ61pf3aoQRjtWFOcShfutnChsR+9cVkQDxurLIAxOuXAqoLr6KTkzB4OT81jaUmR8BfEX7voE8xj9XEVm0V4a0e/ZbAY5sElpM+iMVLTGA370L90KF7w5xkxz1ddxgDgf0J9eGi9o0K/7/n6I3J1eRNBWvcA9fgoaIN3AC7Tppwg02l/84v8eP1FzDGkV8sMI//B9pyZr/1XO5D0uV5X/fwPXyJFX4gsjy0w8ZurY+LUTRKGA2SmByGw5dqUAm0GOYcnj0Ha96glfoWDj4SkCVQc/44mcJks0OLJ2RX943BsPcqhgGJEM07O+jC/SM6BIZSXxelk+6I2m04hP+IRPXKLw+41o7IxbH7IzamfLTbxjPa0QjyD9Tc2nwlY/AF2rm70IR6ZfeEXJ2ugMT2RyP+fs+uJTP1f9tKtHi536YQI92Bv4pY09hAmcbK6N6f64jC7XCK6RIxN2CHwk9BZWZRwrJCUDSjmeqev5ModWGMGGyccwjqson4KNpEgFwKfelVNxeE4sd7aE3uUubzCip1QFaLdE6g/wUnSBp7qM5R/90b8URzRjNJtVn3s+7nGPGzht6qQSNoTOhu985zuN6Gvy+LsM5ODM8msOhAb54wN9oJ7sropIZbmu/RAwHp8cD+/GmtB0bQW06imgV9n4MEbx7BuTHDx+4tVVPbxXXvnyJYX41/GtuH/UXtt973vfITM7pFc6Qr9xc7m24DoLk/u98ABI4WdB/QgDKJijAIpjVEBpnCilUqi8WYS2MeTQFCTS2dT1mSOHgaNiOVeHBjzyRA6b02rbAv70ddWOV88+HvIjWzm3pdOEkfcxNEfwCSserB4+hvf7Pg7jOwKRyQRwLMjYrve///2H4yd3kzkdVQDHOMTgjUmvHDcdKMbTrU2gifioRz1qnDM/4AEPGKsV/jkZeU1I/OfEAI9jYi+yAHpkF6/mbSLtdfyzYfQhbclpyWec/vjIkV8dcI0cGRw6XD+KIZz7EVUXoS5cjMVgBFZHUFeGdrWUSy/kozZPXdtMiXzyT4qC28aLMi+91K8W1j+4yFjwKfAzsvGckvEsj4zs3uSxUZE+6McoIrpUxaoh0ntGk8Hj3WTxQkYq4bxcjo6WIyevi+XOll95s9wRj7NRZz1uje15WzeDsel36zjqPOMzR5RicEJpgDNtK4V9BFnXkwfR+PiITD089GEPY+Noo6veKkQ+e53SFdBKJvDgA+BBeXXANXbkQ2BVMjIrKc8MQygKWtvX2e8+lurDQYE+IkHLo2MeTqid01MiJzNO33DD0eRwT8mMYhIYW9/wFNk8wyeCijqKZ8bm2PqYDEBUgwNeaYQPxq0ggJMYy9BoMnwbsHhUPM9FnXY8KyfBPL7J3/6ATrQlp6vUizPbmDmSk9f76Ihjkil9NU6xmpDJphZ+DurHr37xbELDbfIY2987hkM/dbNcrw641h05dDPD6lIixRKQcJ5TGCUa496Vg7g3m5vRgKLn/o68RGwOVJ7sWUQUXdV7tvTrb5zCqeXPjqIUEZLxRVaOx2HVM0S08I4+kFrArZ5Tko8s+rrHh9XD0msZh89OXuSC3yphHIDDGJBegLr0of4k0GcGjiSizuMV4JkcL1wCwN8tKZuoLKc10ZKBQ1qdrFLpzitm+xY8Oxf37/nRWfzCDy9bpaPslr1Pk+GawmskIh8KWDmEHQpXZgNXZ3xKy3jXFmTo8Lruuw88W16tHDaGnFok5wh3u9vdRhTkDKI0wDunyAE4RnKkm/TTFWxpNxFAPLsC+NKTyQg4nj7q4PGMtjNhJxHSCDzJ+6VFJiMcIruJzvFnfk6CLZ/XJvyfdGR9KHJ21uqAOm2HwvnSjeZ8rfQ8ot5iaCmHcXJuKYfobPNq84hHSzun9sJE/s2p1RsDhyvHnJ3z6ryifXS7B67ef50kVjBXUdZV2uDTAcW9Fct5ON5ssMuj4ePYTQrXmb+TYNbRtQ3/Jx0Z6NbR1DrkOGKdr8IOpbvtN9PZ0syRRWDRThGd5fjracj6Tz7YsFreLeHSD+e9TmMcQ0pzOAhnaQJxGmWmFV/16zkH204CewBObH9R7mtyqbehtVJw2lIg5982t5w4WUB4Z15Og62Ork14HXTko4dTIF1slTKLUttBwg26Z/dc+VsnSrDeM9D67KZ/uoJTycXdA47FmS3F6jivTatNofSDg6uH0ziOJE8XMT0bZyn3LJ93FcHVFynh55A2ZBW5vJzdPRo9SyE4s3rjOauJ5Jtuzosmp9UW4E1pYnV15n0WLN1G31cHvE45MjiUnVeXQk4DvG35m/nonjNyADmo+yJoRtdWNFOn3dXG1WlCv6rRh6NyWA5sOedc7iuzI4ebM4u4OWyFw3YiQw64HFfa7PmFilQCL/7N8T4n0A9ucrjXnjwALfezs58M04S/luH/qCMfK0T/lDpDePa1XRPY8ncS/vpxJg7NKdWtjnL8h/g4AofKsbWp82ysSC31kGNzTicI7jtLd+90QRteOLZoLbpKCxyNKe6lKjaX0p3OwaM7Azx4bYXoKK/65ADJeQhc27aY4XXOkc8HUioFbZWUWNe28g7BO0fkeQlWp829KFp916IeJ+fc6jiocRxHmz4V9Yp+AB6OOZccThu81XkOZzjcaxf5XfWJZ5PLJNGmr/oF69Lv1Xusdij8n3ZkQKkUDrqC16ZYaCs5y1yX0+VM1XEMzxV1nEe/HLD+J0E0wq0EjasuujOoqx2O8KnTd54YnmtXV/1rC/7PO3Lsz0YD5yvWdvw+OF+cW948z47AedVx1PXfvTt2cCnGy162fo1Wvqq+MkN0XGea2/5z+ww5JYi+Un8OPMOMYx732oPd7v8B6w7jM1+yicgAAAAASUVORK5CYII=;align=left;fontSize=16;fontFamily=Architects Daughter;fontSource=https%3A%2F%2Ffonts.googleapis.com%2Fcss%3Ffamily%3DArchitects%2BDaughter;fontStyle=1" vertex="1" parent="1">
          <mxGeometry x="440" y="348" width="178" height="131" as="geometry" />
        </mxCell>
      </root>
    </mxGraphModel>
  </diagram>
</mxfile>
